<?xml version="1.0" standalone="no"?>
<!DOCTYPE svg PUBLIC "-//W3C//DTD SVG 20010904//EN"
 "http://www.w3.org/TR/2001/REC-SVG-20010904/DTD/svg10.dtd">
<svg version="1.0" xmlns="http://www.w3.org/2000/svg"
 width="1454.000000pt" height="832.000000pt" viewBox="0 0 1454.000000 832.000000"
 preserveAspectRatio="xMidYMid meet">

<g transform="translate(0.000000,832.000000) scale(0.100000,-0.100000)"
fill="#000000" stroke="none">
<path d="M0 4160 l0 -4160 4890 0 4890 0 0 4160 0 4160 -4890 0 -4890 0 0
-4160z m1783 3590 c3 8 8 23 11 33 7 22 26 13 26 -13 0 -32 18 -32 25 1 4 17
9 28 12 26 7 -8 -17 -87 -26 -87 -5 0 -11 15 -15 33 -5 25 -9 29 -16 17 -5 -8
-10 -23 -10 -32 0 -32 -19 -19 -29 20 -15 51 -12 65 4 22 8 -23 15 -30 18 -20z
m161 34 c4 -9 1 -23 -5 -30 -9 -11 -8 -18 1 -29 7 -9 8 -15 2 -15 -5 0 -12 7
-16 15 -8 21 -34 19 -39 -2 -3 -10 -5 3 -6 30 -1 45 0 47 28 47 17 0 31 -6 35
-16z m33 -51 c-2 -16 -4 -5 -4 22 0 28 2 40 4 28 2 -13 2 -35 0 -50z m81 60
c-13 -3 -18 -16 -20 -46 l-1 -42 -4 42 c-3 29 -9 43 -21 46 -9 3 1 5 23 5 22
0 32 -2 23 -5z m70 0 c-34 -5 -38 -32 -5 -34 l22 -2 -22 -4 c-32 -6 -29 -31 5
-36 25 -4 25 -4 -5 -6 -33 -1 -33 0 -33 44 0 44 0 45 33 44 30 -2 30 -2 5 -6z
m246 -2 c3 -4 -6 -6 -19 -3 -33 6 -33 -16 0 -28 15 -6 25 -17 25 -30 0 -16 -7
-20 -30 -20 -16 0 -30 4 -30 9 0 4 11 6 25 3 15 -2 25 0 25 7 0 6 -11 16 -25
21 -34 13 -34 50 -1 50 14 0 27 -4 30 -9z m72 -31 c16 0 24 7 27 23 2 12 4 0
4 -28 0 -27 -2 -40 -4 -27 -3 15 -11 22 -29 22 -14 0 -24 -6 -24 -14 0 -8 -4
-18 -10 -21 -6 -4 -10 12 -9 42 0 42 2 45 11 26 7 -14 20 -23 34 -23z m117 -5
c9 -25 12 -45 6 -45 -5 0 -9 5 -9 10 0 14 -33 13 -48 -2 -7 -7 -12 -9 -12 -5
0 16 33 87 40 87 5 0 15 -20 23 -45z m94 29 c3 -8 1 -20 -5 -26 -8 -8 -8 -17
-1 -30 6 -10 6 -18 0 -18 -5 0 -11 7 -15 15 -3 8 -10 15 -16 15 -5 0 -10 -7
-10 -15 0 -8 -4 -15 -10 -15 -5 0 -10 20 -10 45 0 43 1 45 30 45 19 0 33 -6
37 -16z m61 9 c-16 -2 -28 -11 -28 -19 0 -8 11 -15 28 -15 l27 -2 -27 -4 c-16
-2 -28 -10 -28 -18 0 -8 12 -16 28 -18 25 -4 25 -4 -5 -6 -33 -1 -33 0 -33 44
0 44 0 45 33 44 30 -2 30 -2 5 -6z m262 -1 c0 -4 -12 -8 -27 -7 -24 0 -28 -4
-28 -30 0 -26 4 -30 28 -30 15 1 27 -3 27 -8 0 -4 -15 -7 -32 -5 -28 3 -34 7
-36 31 -2 16 -1 35 2 43 6 14 66 20 66 6z m78 -19 c5 -16 13 -36 17 -46 7 -17
6 -18 -14 -6 -16 11 -25 11 -40 2 -19 -12 -19 -11 -4 32 17 52 27 56 41 18z
m98 -22 c1 -37 -1 -41 -11 -27 -16 21 -32 21 -38 -1 -3 -10 -5 4 -6 30 -1 47
0 48 27 45 25 -3 27 -7 28 -47z m66 41 c-30 -9 -30 -26 0 -31 l23 -4 -24 -6
c-35 -9 -37 -29 -4 -34 27 -4 27 -4 -4 -6 -33 -1 -33 0 -33 44 0 44 1 45 33
44 27 -1 29 -2 9 -7z m2164 -10 c7 -4 11 -26 10 -50 0 -35 -2 -39 -10 -23 -11
26 -33 27 -39 4 -3 -10 -5 3 -6 30 -1 39 2 47 17 47 9 0 22 -4 28 -8z m92 1
c-14 -3 -18 -16 -20 -51 l-2 -47 -3 47 c-3 33 -9 48 -21 51 -9 3 1 5 23 5 22
0 32 -2 23 -5z m116 -2 c4 -5 -2 -7 -13 -4 -32 8 -33 -15 -1 -32 33 -17 35
-32 7 -49 -11 -7 -20 -7 -27 0 -8 8 -4 10 11 10 34 -1 33 20 -1 32 -32 12 -37
21 -18 40 14 14 35 16 42 3z m94 2 c-13 -3 -18 -16 -20 -46 -1 -40 -1 -41 -5
-7 -2 19 -11 41 -20 48 -14 10 -11 12 23 11 21 -1 31 -3 22 -6z m76 -2 c4 -5
-3 -7 -14 -4 -30 8 -25 -21 5 -35 14 -6 25 -18 25 -26 0 -18 -38 -32 -51 -19
-6 6 -1 9 12 9 32 -1 35 22 5 30 -36 9 -35 54 0 54 7 0 15 -4 18 -9z m214 2
c-10 -2 -18 -13 -18 -24 0 -28 37 -25 43 4 4 19 4 18 6 -5 1 -23 -3 -28 -23
-28 -18 0 -26 -7 -29 -22 -2 -13 -5 1 -6 30 -1 48 1 52 22 51 16 -1 18 -2 5
-6z m109 -5 c4 -7 8 -27 8 -45 0 -28 -2 -30 -16 -17 -20 18 -27 18 -32 -3 -3
-10 -5 3 -6 30 -1 40 2 47 18 47 11 0 23 -6 28 -12z m101 0 c27 -27 8 -89 -27
-87 -10 0 -7 4 7 9 16 7 22 18 22 40 0 52 -53 50 -63 -3 l-4 -22 -2 22 c-2 40
41 67 67 41z m82 -33 c0 -47 -20 -69 -42 -47 -8 8 -5 9 11 5 19 -5 21 -1 21
41 0 25 2 46 5 46 3 0 5 -20 5 -45z m62 38 c-22 -4 -24 -9 -20 -49 2 -24 0
-44 -4 -44 -5 0 -8 23 -8 50 0 48 1 50 28 49 24 -2 25 -2 4 -6z m102 1 c9 -3
16 -11 16 -16 0 -6 -7 -5 -16 3 -13 11 -19 10 -37 -1 -20 -12 -21 -12 -8 3 15
19 21 20 45 11z m94 -1 c-14 -3 -18 -16 -20 -51 l-2 -47 -3 47 c-3 33 -9 48
-21 51 -9 3 1 5 23 5 22 0 32 -2 23 -5z m86 -2 c4 -5 -2 -7 -13 -4 -23 6 -39
-16 -20 -28 11 -7 11 -9 1 -9 -19 0 -27 31 -11 41 18 11 36 11 43 0z m246 -31
c0 -13 -1 -13 -10 0 -8 12 -10 12 -10 1 0 -8 -3 -12 -6 -8 -3 3 -3 15 1 28 6
17 9 19 16 8 5 -8 9 -21 9 -29z m124 24 c9 -8 16 -24 16 -34 0 -21 -25 -50
-44 -50 -14 0 -36 20 -36 34 0 5 6 1 14 -10 12 -15 18 -17 33 -8 10 6 18 21
18 34 0 13 -8 28 -18 34 -15 9 -21 7 -33 -8 -8 -11 -14 -15 -14 -10 0 14 22
34 36 34 7 0 20 -7 28 -16z m92 -2 c1 -7 0 -8 -3 -2 -9 20 -43 11 -43 -11 0
-17 5 -20 23 -17 18 3 22 0 24 -21 1 -23 0 -24 -12 -8 -17 24 -33 21 -38 -5
-2 -13 -5 1 -6 30 -1 52 0 53 26 50 14 -2 28 -9 29 -16z m223 -72 c-1 -11 -3
-10 -6 3 -6 23 -53 24 -53 0 0 -9 -3 -13 -6 -10 -4 4 1 28 11 54 l19 48 18
-40 c9 -22 17 -47 17 -55z m82 23 c12 -13 16 -23 11 -23 -6 0 -21 15 -34 33
l-23 32 -6 -40 c-6 -38 -6 -37 -7 15 l-1 55 20 -25 c11 -14 29 -35 40 -47z
m101 50 c22 -20 23 -46 1 -64 -15 -13 -15 -12 -2 9 17 27 2 57 -27 57 -15 0
-20 -8 -22 -37 -2 -23 2 -38 10 -41 8 -2 8 -4 -2 -3 -16 1 -26 55 -16 82 7 19
35 18 58 -3z m213 -3 c37 -41 -15 -105 -54 -65 -15 16 -15 16 6 4 18 -10 24
-10 37 0 9 8 16 21 16 31 0 10 -7 23 -16 31 -13 11 -19 10 -37 -1 -20 -12 -21
-12 -8 3 18 22 34 21 56 -3z m83 13 c-13 -3 -18 -16 -20 -46 l-1 -42 -4 40
c-3 22 -10 43 -16 47 -7 4 4 7 23 7 19 -1 27 -3 18 -6z m102 -36 c0 -4 -4 -6
-9 -2 -5 3 -12 -9 -14 -27 -2 -21 -4 -13 -5 22 -1 50 0 53 13 36 8 -11 15 -24
15 -29z m154 27 c9 -8 16 -24 16 -34 0 -21 -25 -50 -44 -50 -14 0 -36 20 -36
34 0 5 6 1 14 -10 12 -15 18 -17 33 -8 23 14 28 41 13 59 -18 22 -39 18 -50
-7 -5 -14 -9 -17 -9 -7 -1 18 18 39 35 39 7 0 20 -7 28 -16z m92 -2 c1 -7 0
-8 -3 -2 -9 20 -43 11 -43 -11 0 -17 5 -20 23 -17 18 3 22 0 24 -21 1 -23 0
-24 -12 -8 -17 24 -33 21 -38 -5 -2 -13 -5 1 -6 30 -1 52 0 53 26 50 14 -2 28
-9 29 -16z m66 11 c-20 -4 -22 -9 -19 -49 2 -24 0 -44 -5 -44 -4 0 -8 23 -8
50 0 48 1 50 28 49 23 -2 24 -2 4 -6z m136 -17 c2 -10 -6 -28 -17 -40 -12 -12
-18 -26 -14 -29 3 -4 1 -7 -5 -7 -17 0 -15 8 8 37 26 34 26 57 0 50 -11 -3
-17 -1 -14 4 9 16 38 6 42 -15z m70 12 c7 -7 12 -16 12 -22 0 -5 -6 -2 -13 9
-8 10 -19 15 -25 11 -18 -11 -14 -64 6 -75 9 -6 12 -11 7 -11 -19 0 -35 23
-35 50 0 24 16 50 30 50 3 0 11 -5 18 -12z m90 -12 c2 -10 -6 -28 -17 -40 -12
-12 -18 -26 -14 -29 3 -4 1 -7 -5 -7 -18 0 -14 15 8 35 27 25 27 59 0 52 -11
-3 -17 -1 -14 4 9 16 38 6 42 -15z m78 13 c4 -7 8 -27 10 -45 2 -26 -1 -34
-18 -39 -11 -4 -25 -2 -30 3 -8 8 -5 9 9 6 27 -7 41 15 19 31 -15 11 -15 13
-1 19 22 8 7 29 -16 23 -11 -3 -17 -1 -13 4 7 13 31 11 40 -2z m-6316 -25 c0
-8 -9 -14 -20 -14 -22 0 -28 26 -7 33 16 6 27 -1 27 -19z m590 0 c0 -8 -9 -14
-20 -14 -22 0 -28 26 -7 33 16 6 27 -1 27 -19z m2450 15 c0 -5 -4 -8 -9 -5 -5
3 -11 -3 -14 -14 -3 -13 0 -20 9 -20 8 0 14 6 14 13 0 8 4 7 10 -3 5 -8 9 -22
9 -30 0 -10 -2 -11 -6 -2 -7 18 -40 15 -53 -5 -9 -15 -10 -14 -4 7 13 48 24
70 34 70 5 0 10 -5 10 -11z m227 -51 c-2 -13 -4 -3 -4 22 0 25 2 35 4 23 2
-13 2 -33 0 -45z m1380 40 c-3 -8 -6 -5 -6 6 -1 11 2 17 5 13 3 -3 4 -12 1
-19z m233 -8 c4 0 11 7 14 16 4 9 9 14 13 11 3 -4 0 -13 -7 -22 -11 -13 -9
-19 6 -38 19 -22 19 -22 -2 -4 -11 9 -23 17 -27 17 -3 0 -8 -8 -10 -17 -3 -10
-5 2 -5 27 0 25 2 37 5 28 2 -10 8 -18 13 -18z m442 -22 c2 -21 0 -38 -4 -38
-4 0 -8 21 -7 48 1 52 6 48 11 -10z m368 30 c0 -16 -3 -19 -11 -11 -6 6 -8 16
-5 22 11 17 16 13 16 -11z m-2060 -18 c0 -11 -7 -20 -15 -20 -8 0 -15 9 -15
20 0 11 7 20 15 20 8 0 15 -9 15 -20z m846 9 c10 -17 -13 -36 -27 -22 -12 12
-4 33 11 33 5 0 12 -5 16 -11z m95 -24 c5 4 9 -1 9 -9 0 -8 -4 -18 -10 -21 -5
-3 -10 -3 -10 2 0 4 -2 17 -4 28 -2 11 -1 14 1 7 3 -7 9 -10 14 -7z m-201 5
c0 -5 -2 -10 -4 -10 -3 0 -8 5 -11 10 -3 6 -1 10 4 10 6 0 11 -4 11 -10z m263
-19 c-4 -17 -8 -19 -14 -9 -12 18 -11 31 1 23 6 -3 10 -1 10 6 0 7 2 10 5 8 2
-3 2 -15 -2 -28z m1018 5 c5 3 9 1 9 -5 0 -5 -4 -13 -10 -16 -5 -3 -10 -4 -10
-1 0 2 -2 10 -3 18 -2 7 -2 10 0 5 3 -4 9 -5 14 -1z m506 -8 c-3 -8 -6 -5 -6
6 -1 11 2 17 5 13 3 -3 4 -12 1 -19z m-1973 1 c10 8 16 9 16 3 0 -20 -41 -25
-59 -7 -15 16 -15 16 6 4 18 -10 24 -10 37 0z m181 -9 c-3 -5 -14 -10 -23 -9
-14 0 -13 2 3 9 27 11 27 11 20 0z m-5907 -468 c2 -23 -1 -32 -12 -32 -21 0
-29 17 -22 46 9 34 30 25 34 -14z m62 27 c0 -8 5 -8 15 1 12 10 18 10 30 0 13
-11 15 -44 13 -211 -4 -260 -21 -267 -28 -12 -4 135 -8 187 -17 190 -10 4 -13
-41 -15 -186 -4 -267 -22 -253 -26 19 -2 182 0 210 13 210 8 0 15 -5 15 -11z
m174 5 c20 -8 21 -34 1 -34 -13 0 -15 -28 -15 -190 0 -183 -1 -190 -20 -190
-19 0 -20 7 -20 190 0 162 -2 190 -15 190 -18 0 -20 26 -2 33 18 8 53 8 71 1z
m128 -11 c12 -6 5 -403 -7 -406 -6 -1 -12 37 -15 92 -3 61 -9 96 -17 98 -9 3
-13 -22 -15 -91 -2 -53 -7 -97 -13 -99 -16 -3 -19 404 -3 414 12 7 51 3 70 -8z
m122 1 c13 -13 16 -45 16 -195 0 -166 -1 -180 -20 -199 -24 -24 -29 -24 -58
-4 -21 15 -22 20 -22 199 0 195 5 215 50 215 10 0 26 -7 34 -16z m204 -182 c3
-254 21 -254 24 1 3 163 5 192 18 192 13 0 15 -30 18 -199 2 -141 -1 -203 -9
-213 -8 -9 -15 -11 -22 -4 -7 7 -15 7 -24 0 -9 -9 -17 -8 -28 1 -12 10 -15 47
-15 210 0 108 3 200 7 204 23 22 28 -12 31 -192z m163 188 c16 -9 19 -22 19
-80 0 -53 -3 -70 -14 -70 -18 0 -26 22 -26 76 0 24 -4 44 -10 44 -6 0 -10 -65
-10 -175 0 -104 4 -175 10 -175 5 0 10 30 12 67 2 55 6 68 21 71 15 3 17 -6
17 -72 0 -94 -21 -122 -71 -96 -18 10 -19 23 -19 203 0 195 4 217 38 217 7 0
22 -5 33 -10z m84 -26 c0 -19 -5 -29 -15 -29 -16 0 -25 28 -16 51 10 25 31 10
31 -22z m113 23 c9 -6 12 -59 12 -206 0 -109 -3 -200 -6 -204 -3 -3 -12 -3
-20 0 -11 4 -14 41 -14 194 0 119 -4 189 -10 189 -6 0 -10 -69 -10 -188 0
-104 -3 -191 -6 -195 -3 -3 -12 -3 -20 0 -11 4 -14 43 -14 207 0 112 2 205 5
208 8 7 68 4 83 -5z m120 1 c7 -7 12 -40 12 -80 0 -54 -3 -68 -15 -68 -12 0
-15 13 -15 61 0 44 -3 60 -12 57 -16 -6 -19 -338 -3 -338 6 0 10 37 9 90 0 81
1 90 18 90 16 0 18 -10 18 -109 0 -101 -8 -138 -25 -111 -5 8 -11 7 -21 -1
-11 -9 -17 -9 -29 1 -12 10 -15 46 -15 206 0 173 2 194 18 203 23 14 45 14 60
-1z m137 2 c5 -8 11 -7 21 1 11 9 17 9 29 -1 12 -10 15 -47 15 -210 0 -108 -3
-200 -7 -203 -3 -4 -12 -2 -20 4 -10 9 -13 54 -13 195 0 116 -4 184 -10 184
-6 0 -10 -70 -10 -189 0 -184 -7 -225 -29 -182 -12 21 -15 349 -5 389 7 24 19
29 29 12z m179 -12 c11 -16 16 -46 16 -98 0 -78 -9 -100 -42 -100 -16 0 -18
-10 -18 -85 0 -50 4 -85 10 -85 6 0 10 30 10 71 0 62 2 70 18 67 14 -3 18 -16
20 -70 2 -57 0 -70 -18 -88 -22 -22 -57 -20 -72 4 -4 6 -8 95 -8 198 0 168 2
188 18 197 27 16 50 13 66 -11z m76 -84 c6 -115 18 -107 22 16 3 77 5 85 23
85 18 0 21 -9 27 -114 10 -155 16 -160 17 -14 1 118 9 149 33 125 9 -9 -5
-344 -18 -399 -5 -24 -28 -31 -40 -12 -4 6 -10 68 -14 138 l-7 126 -2 -110
c-2 -60 -6 -121 -10 -135 -9 -33 -39 -39 -45 -8 -9 43 -27 389 -20 399 17 29
29 -4 34 -97z m294 90 c10 -10 16 -33 16 -65 0 -43 -3 -50 -17 -47 -13 2 -19
15 -21 46 -4 58 -22 53 -22 -7 0 -34 9 -69 30 -113 24 -50 30 -76 30 -130 0
-58 -3 -69 -22 -82 -29 -20 -34 -20 -58 4 -15 15 -20 33 -20 75 0 48 2 55 20
55 18 0 20 -7 20 -55 0 -30 5 -55 10 -55 6 0 10 29 10 67 0 53 -5 75 -26 111
-35 60 -45 163 -19 192 22 24 48 26 69 4z m135 1 c3 -4 -4 -14 -16 -23 -22
-16 -23 -24 -25 -200 -4 -248 -22 -243 -26 7 -2 179 -4 189 -22 194 -25 6 -26
24 -2 31 20 5 82 0 91 -9z m99 3 c9 -9 12 -68 12 -205 0 -186 -1 -193 -21
-204 -16 -8 -28 -8 -45 0 l-24 11 0 194 c0 175 2 196 18 205 23 14 45 14 60
-1z m131 -12 c6 -7 9 -92 8 -206 -2 -166 -4 -195 -17 -195 -12 0 -16 19 -18
98 -4 125 -22 128 -22 3 0 -92 -11 -126 -31 -95 -5 8 -9 103 -9 211 0 196 0
197 23 200 29 5 54 -1 66 -16z m71 -11 c0 -24 -5 -35 -15 -35 -15 0 -22 50 -8
63 15 15 23 5 23 -28z m114 13 c11 -15 16 -45 16 -94 0 -88 -5 -104 -36 -104
-23 0 -24 -2 -24 -85 0 -50 4 -85 10 -85 6 0 10 30 10 71 0 62 2 70 18 67 13
-2 18 -15 20 -58 4 -69 -3 -97 -29 -110 -16 -9 -26 -8 -45 5 -24 15 -24 16
-24 200 0 154 3 186 16 199 22 22 50 20 68 -6z m124 10 c18 -18 16 -118 -3
-118 -11 0 -15 12 -15 46 0 32 -4 44 -12 41 -23 -7 -13 -98 16 -154 22 -44 26
-66 26 -132 0 -69 -3 -82 -19 -91 -27 -14 -37 -13 -55 6 -22 22 -23 134 -1
134 11 0 15 -11 15 -39 0 -46 9 -73 21 -65 21 13 9 109 -21 169 -24 48 -29 73
-30 127 0 53 4 69 18 77 23 14 45 14 60 -1z m181 -2 c8 -9 11 -47 9 -107 l-3
-94 -28 -3 -28 -3 3 -82 c4 -99 22 -109 26 -14 2 51 6 67 17 67 12 0 15 -17
15 -80 0 -71 -2 -81 -21 -91 -16 -8 -28 -8 -45 0 l-24 11 0 193 c0 137 3 196
12 205 16 16 53 15 67 -2z m86 -112 c10 -113 11 -116 18 -64 4 30 7 83 7 117
0 59 12 85 30 67 10 -11 -16 -404 -28 -416 -13 -13 -42 1 -42 21 0 9 -7 99
-15 200 -8 101 -12 188 -9 193 18 28 30 -8 39 -118z m164 112 c8 -9 11 -47 9
-107 l-3 -94 -28 -3 -28 -3 3 -82 c4 -99 22 -109 26 -14 2 51 6 67 17 67 12 0
15 -17 15 -80 0 -71 -2 -81 -21 -91 -16 -8 -28 -8 -45 0 l-24 11 0 193 c0 137
3 196 12 205 16 16 53 15 67 -2z m136 -202 c0 -123 -4 -201 -10 -204 -6 -3
-12 31 -15 89 -3 61 -9 96 -17 98 -9 3 -13 -22 -15 -94 -2 -57 -7 -98 -13 -98
-6 0 -11 77 -13 207 -3 227 -4 223 58 208 l25 -6 0 -200z m66 152 c8 -75 19
-83 19 -15 0 62 12 91 31 72 9 -9 8 -42 -5 -141 -9 -71 -16 -161 -16 -200 0
-70 -13 -99 -31 -71 -5 8 -9 48 -9 89 0 41 -7 128 -15 194 -8 65 -12 123 -9
128 14 22 29 -3 35 -56z m293 42 c22 -31 24 -379 2 -397 -10 -9 -16 -9 -21 -1
-5 8 -10 8 -20 0 -9 -8 -17 -6 -29 5 -12 13 -16 37 -16 105 0 88 1 90 30 112
28 20 30 26 30 89 0 87 -18 101 -22 17 -2 -50 -6 -63 -20 -66 -16 -3 -18 5
-18 62 0 45 5 69 16 80 22 22 50 20 68 -6z m74 -42 c4 -69 22 -66 22 4 0 49
13 71 32 52 7 -7 5 -50 -6 -134 -9 -68 -16 -158 -16 -199 0 -80 -3 -91 -26
-82 -10 4 -14 25 -14 82 0 42 -7 130 -16 195 -15 121 -14 151 9 144 7 -3 13
-27 15 -62z m-2910 -140 c2 -130 -1 -193 -9 -202 -6 -8 -27 -14 -45 -14 l-34
0 0 206 0 205 43 -3 42 -3 3 -189z m2720 0 c2 -130 -1 -193 -9 -202 -16 -20
-75 -18 -83 2 -9 22 -8 379 1 388 4 4 25 6 48 4 l40 -3 3 -189z m-3338 -44 c0
-93 -3 -172 -7 -175 -3 -4 -12 -2 -20 4 -10 9 -13 48 -13 159 0 156 3 180 26
180 11 0 14 -31 14 -168z m938 4 c2 -153 -4 -196 -29 -180 -10 6 -12 327 -2
338 22 22 28 -11 31 -158z m1350 -6 c-4 -228 -22 -228 -26 0 -2 148 0 170 13
170 13 0 15 -22 13 -170z m-1604 -576 c167 -40 287 -160 343 -339 17 -56 18
-107 18 -695 l0 -635 -25 -44 c-37 -66 -94 -94 -186 -89 -85 4 -140 35 -170
95 -18 36 -19 74 -24 643 -5 556 -6 608 -23 641 -22 45 -57 64 -113 63 -54 -1
-91 -25 -112 -72 -16 -34 -17 -185 -17 -1932 0 -2019 -1 -1963 47 -2006 12
-11 41 -19 78 -22 55 -4 61 -2 88 25 19 19 33 47 41 81 8 37 11 300 11 861 l0
809 -30 12 c-42 17 -88 73 -96 115 -10 55 1 133 23 163 11 15 35 37 53 50 31
20 44 22 183 22 136 0 153 -2 189 -22 21 -12 49 -38 61 -58 l22 -35 3 -1118
c1 -738 -1 -1132 -8 -1156 -22 -84 -92 -130 -193 -131 -142 0 -206 70 -207
230 -1 55 -4 78 -10 65 -4 -11 -20 -51 -35 -88 -35 -87 -98 -157 -167 -187
-72 -31 -185 -25 -250 13 -87 51 -144 134 -185 272 -17 57 -18 169 -21 2048
-3 2170 -5 2053 54 2170 110 220 373 320 658 251z m1278 1 c31 -8 78 -24 104
-36 67 -32 165 -127 202 -197 64 -120 62 -83 62 -1107 l0 -930 -23 -37 c-12
-20 -34 -46 -49 -58 -60 -47 -83 -50 -348 -50 l-250 0 2 -952 c3 -1059 0
-1008 69 -1043 40 -21 111 -15 141 11 54 48 53 33 58 799 3 391 7 711 8 712
44 52 82 88 105 100 40 20 134 20 172 0 34 -17 87 -71 104 -104 15 -30 16
-1420 0 -1495 -19 -90 -67 -177 -133 -244 -100 -100 -219 -144 -387 -144 -275
0 -457 128 -526 371 -17 61 -18 157 -18 2024 0 1824 1 1964 17 2022 50 179
161 297 331 352 94 31 246 33 359 6z m1498 -26 c160 -34 201 -246 67 -341 -29
-21 -47 -24 -177 -28 l-145 -5 -5 -2120 c-5 -2111 -5 -2120 -25 -2155 -12 -19
-42 -50 -69 -68 -40 -26 -58 -32 -103 -32 -78 0 -145 38 -181 105 -16 28 -17
202 -22 2150 l-5 2120 -146 5 c-139 5 -147 6 -181 32 -62 47 -89 131 -68 208
15 55 73 113 127 128 54 14 867 15 933 1z m1399 -2868 c47 -34 71 -75 80 -138
l7 -58 12 40 c52 176 211 241 327 134 44 -40 78 -105 90 -171 4 -21 10 -38 14
-38 3 0 14 26 24 58 29 92 71 159 117 182 73 37 172 18 232 -46 39 -42 76
-129 88 -209 7 -48 10 -433 8 -1201 l-3 -1130 -27 -41 c-35 -53 -87 -77 -163
-77 -72 1 -113 20 -152 71 l-28 36 -5 1122 c-4 931 -7 1125 -19 1138 -17 21
-25 21 -45 1 -14 -14 -16 -129 -16 -1112 0 -733 -4 -1110 -11 -1135 -15 -55
-67 -102 -128 -117 -87 -21 -165 6 -215 73 -21 28 -21 31 -26 1158 -4 990 -7
1131 -20 1139 -21 13 -26 12 -44 -6 -14 -14 -16 -130 -16 -1122 0 -1066 -1
-1109 -19 -1149 -30 -64 -86 -97 -169 -97 -79 0 -118 17 -159 71 l-28 36 -3
1226 c-1 674 0 1241 3 1259 7 39 58 100 100 119 45 20 155 12 194 -16z m1674
-1 c125 -47 215 -157 237 -289 7 -46 10 -381 8 -1086 l-3 -1020 -23 -57 c-32
-79 -108 -160 -185 -198 -198 -96 -460 -37 -565 128 -64 98 -62 63 -62 1187 0
636 4 1036 10 1063 33 140 137 246 280 287 79 22 227 14 303 -15z m1840 1 c74
-29 145 -86 185 -147 60 -94 62 -119 62 -640 0 -309 -4 -482 -11 -501 -12 -34
-64 -90 -101 -109 -20 -10 -69 -14 -188 -14 l-160 0 0 -454 c0 -250 3 -461 6
-470 7 -19 45 -21 62 -4 9 9 12 95 12 322 0 282 2 315 19 352 62 137 272 140
341 4 19 -37 20 -58 20 -367 0 -344 -4 -384 -48 -468 -11 -22 -43 -62 -71 -88
-211 -197 -589 -127 -692 128 l-24 60 -3 1030 c-2 686 1 1046 8 1080 31 148
147 267 298 305 65 16 220 6 285 -19z m-902 -19 c127 -42 187 -109 215 -243
13 -62 15 -137 11 -459 -3 -248 -9 -402 -17 -432 -16 -65 -48 -109 -99 -137
l-43 -23 50 -29 c104 -59 114 -130 110 -769 -3 -421 -4 -458 -22 -493 -50
-100 -206 -126 -297 -50 -60 51 -59 44 -59 602 0 307 -4 520 -10 535 -7 20
-17 26 -40 26 l-29 0 -3 -537 c-3 -503 -4 -540 -22 -576 -50 -100 -206 -126
-297 -50 -62 53 -59 -21 -59 1308 0 1313 -2 1252 53 1303 50 47 87 53 297 49
165 -4 205 -7 261 -25z m-6648 -3072 c3 30 4 28 5 -12 1 -27 -2 -48 -6 -48 -4
0 -17 15 -27 33 l-20 32 -3 -32 c-5 -46 -22 -41 -22 5 0 54 10 59 41 20 l27
-33 5 35z m564 -1 c-6 -4 -7 -21 -3 -40 4 -21 3 -30 -3 -24 -9 9 -15 51 -12
83 1 10 4 10 15 0 9 -8 10 -15 3 -19z m246 8 c12 -4 17 -16 15 -39 l-1 -33 -4
33 c-3 18 -10 32 -18 32 -8 0 -15 -14 -18 -32 -3 -24 -4 -19 -5 17 -1 28 2 45
6 39 4 -6 15 -13 25 -17z m681 -36 c1 -22 -1 -38 -6 -35 -4 3 -8 16 -8 29 0
13 -5 27 -11 31 -8 4 -7 9 2 15 18 11 21 6 23 -40z m-1406 17 c3 -13 -3 -18
-22 -18 -14 0 -26 -4 -26 -10 0 -5 12 -10 28 -10 24 -1 25 -2 9 -11 -13 -8
-22 -7 -33 1 -15 13 -19 52 -7 64 13 13 48 1 51 -16z m54 2 l9 25 14 -25 14
-25 10 25 c11 27 14 8 5 -27 -8 -29 -22 -29 -33 -1 l-8 23 -7 -23 c-9 -28 -22
-28 -30 1 -9 35 -6 54 6 27 l10 -25 10 25z m144 -3 l12 28 10 -25 10 -25 10
25 c12 27 15 8 6 -27 -8 -29 -21 -29 -30 -1 -6 21 -7 20 -18 -8 l-12 -29 -12
34 c-15 42 -14 66 1 28 l11 -27 12 27z m128 -9 c11 -32 8 -37 -24 -40 -32 -4
-41 31 -11 39 12 3 21 10 21 15 0 5 -10 6 -21 3 -15 -5 -19 -4 -14 4 12 20 39
8 49 -21z m61 8 c19 41 18 26 -1 -29 -18 -53 -29 -60 -29 -19 -1 15 -4 38 -8
52 -7 22 -6 21 9 -4 l17 -30 12 30z m173 -7 c4 -34 -22 -57 -43 -39 -16 13
-20 51 -8 64 16 16 48 1 51 -25z m108 20 c4 -8 0 -9 -15 -4 -12 3 -21 2 -21
-4 0 -5 9 -13 20 -16 11 -3 20 -12 20 -20 0 -17 -31 -28 -44 -15 -7 7 -5 10 7
10 9 0 17 5 17 10 0 6 -7 10 -15 10 -8 0 -15 9 -15 20 0 22 34 28 46 9z m152
-25 c2 -24 -1 -33 -16 -36 -11 -3 -25 -2 -32 2 -17 10 -5 40 15 40 8 0 15 5
15 11 0 6 -9 8 -21 4 -15 -5 -19 -4 -14 5 4 6 17 10 28 8 16 -2 23 -11 25 -34z
m50 24 c-9 -7 -19 -24 -21 -38 -3 -18 -5 -14 -6 13 -1 32 2 37 21 37 19 0 20
-1 6 -12z m70 0 c19 -19 14 -28 -13 -28 -14 0 -25 -4 -25 -10 0 -5 10 -10 22
-10 15 0 19 -3 12 -10 -26 -26 -67 27 -44 55 15 18 32 19 48 3z m101 -14 c7
16 14 27 17 24 8 -9 -35 -98 -48 -98 -10 0 -10 2 1 9 11 7 11 15 2 41 -15 45
-13 62 4 25 l13 -30 11 29z m89 -5 c3 -30 -18 -52 -42 -43 -16 6 -23 54 -9 68
16 16 48 1 51 -25z m48 -29 c8 0 14 10 14 24 0 14 5 28 10 31 6 4 10 -8 10
-28 0 -25 -5 -36 -17 -39 -32 -8 -43 2 -41 40 l1 37 4 -32 c3 -20 10 -33 19
-33z m76 48 c-5 -7 -12 -24 -15 -38 -3 -18 -5 -15 -6 13 -1 28 3 37 15 37 12
0 14 -3 6 -12z m103 2 c3 -5 0 -7 -8 -4 -8 3 -18 1 -21 -4 -3 -5 3 -12 14 -15
21 -5 27 -31 10 -42 -5 -3 -18 -1 -27 4 -16 9 -15 10 7 11 l25 0 -24 19 c-13
10 -21 23 -17 30 9 14 33 14 41 1z m133 -21 c3 -30 -18 -52 -42 -43 -16 6 -23
54 -9 68 16 16 48 1 51 -25z m44 19 c-5 -7 -12 -24 -15 -38 -3 -18 -5 -15 -6
13 -1 28 3 37 15 37 12 0 14 -3 6 -12z m35 -40 c-2 -13 -4 -5 -4 17 -1 22 1
32 4 23 2 -10 2 -28 0 -40z m71 40 c19 -19 14 -28 -13 -28 -14 0 -25 -4 -25
-10 0 -5 10 -10 22 -10 15 0 19 -3 12 -10 -13 -13 -41 -4 -48 16 -7 19 10 54
27 54 7 0 18 -5 25 -12z m72 2 c0 -5 -7 -7 -15 -4 -22 9 -18 -5 6 -25 19 -15
19 -18 6 -30 -12 -9 -21 -10 -34 -2 -16 9 -15 10 7 11 l25 0 -24 19 c-13 10
-21 23 -17 30 9 13 46 15 46 1z m2724 -45 c1 -19 -2 -35 -5 -35 -8 0 -17 69
-10 75 9 9 14 -5 15 -40z m150 0 c1 -19 -2 -35 -5 -35 -8 0 -17 69 -10 75 9 9
14 -5 15 -40z m-893 -9 c5 3 9 1 9 -5 0 -20 -19 -21 -25 -1 -4 11 -11 18 -16
15 -11 -7 -11 -3 -2 21 6 15 8 14 16 -9 5 -15 13 -25 18 -21z m117 20 c6 16
11 24 11 17 1 -6 -4 -24 -10 -40 l-11 -28 -13 24 -13 24 -6 -21 c-7 -21 -26
-22 -26 -1 0 6 4 8 9 5 5 -3 12 6 16 22 l8 27 12 -29 12 -29 11 29z m250 4 c3
-13 2 -13 -7 0 -13 18 -27 5 -34 -30 -4 -21 -4 -20 -6 8 -1 35 -14 42 -30 15
-9 -16 -10 -16 -11 -1 0 19 14 26 54 24 17 -1 31 -8 34 -16z m77 10 c3 -6 -1
-7 -10 -4 -9 4 -22 -1 -31 -12 -14 -18 -14 -18 -4 4 11 23 34 29 45 12z m123
-2 c15 -15 16 -28 2 -28 -5 0 -9 6 -7 13 1 6 -5 12 -13 12 -10 0 -15 -9 -14
-27 0 -15 -4 -25 -8 -22 -18 12 0 64 22 64 3 0 11 -5 18 -12z m79 -28 c2 -27
0 -30 -6 -15 -4 11 -6 26 -3 34 4 10 0 13 -16 9 -13 -4 -20 -2 -16 3 14 23 39
3 41 -31z m51 28 c-9 -7 -19 -24 -21 -38 -4 -21 -4 -20 -6 7 -1 29 8 40 33 42
6 1 3 -5 -6 -11z m133 3 c-7 -5 -10 -14 -7 -20 4 -6 2 -11 -3 -11 -12 0 -15
23 -4 33 3 4 11 7 17 7 6 0 5 -4 -3 -9z m134 -1 c3 -6 -1 -7 -9 -4 -18 7 -21
14 -7 14 6 0 13 -4 16 -10z m108 3 c3 -5 -5 -8 -18 -8 -13 0 -21 3 -18 8 2 4
10 7 18 7 8 0 16 -3 18 -7z m71 1 c16 -6 22 -49 8 -58 -4 -2 -8 8 -7 22 0 18
-5 27 -15 27 -10 0 -15 -9 -15 -27 1 -14 -3 -24 -7 -22 -12 8 -10 38 4 52 14
14 12 14 32 6z m43 -46 c-2 -13 -4 -5 -4 17 -1 22 1 32 4 23 2 -10 2 -28 0
-40z m79 12 l2 -35 -5 33 c-5 40 -25 38 -34 -4 l-7 -29 -1 32 c0 17 -7 33 -13
36 -7 2 3 4 22 3 33 -1 35 -4 36 -36z m-1109 8 c-3 -8 -6 -5 -6 6 -1 11 2 17
5 13 3 -3 4 -12 1 -19z m43 12 c0 -5 -4 -10 -10 -10 -5 0 -10 5 -10 10 0 6 5
10 10 10 6 0 10 -4 10 -10z m745 -19 c-6 -5 -25 10 -25 20 0 5 6 4 14 -3 8 -7
12 -15 11 -17z m-720 -10 c-7 -25 -25 -28 -25 -5 0 8 5 12 10 9 6 -3 10 2 10
11 0 10 3 15 6 11 3 -3 3 -15 -1 -26z m-265 -12 c0 -6 -4 -7 -10 -4 -5 3 -10
11 -10 16 0 6 5 7 10 4 6 -3 10 -11 10 -16z m216 -6 c-10 -10 -19 5 -10 18 6
11 8 11 12 0 2 -7 1 -15 -2 -18z m431 5 c-3 -8 -6 -5 -6 6 -1 11 2 17 5 13 3
-3 4 -12 1 -19z m248 13 c3 -5 2 -12 -3 -15 -5 -3 -9 1 -9 9 0 17 3 19 12 6z
m112 -13 c-3 -8 -6 -5 -6 6 -1 11 2 17 5 13 3 -3 4 -12 1 -19z"/>
<path d="M1890 7775 c0 -8 9 -15 20 -15 11 0 20 7 20 15 0 8 -9 15 -20 15 -11
0 -20 -7 -20 -15z"/>
<path d="M2530 7760 c0 -5 5 -10 10 -10 6 0 10 5 10 10 0 6 -4 10 -10 10 -5 0
-10 -4 -10 -10z"/>
<path d="M2610 7775 c0 -10 7 -15 18 -13 21 4 19 22 -2 26 -10 2 -16 -3 -16
-13z"/>
<path d="M3036 7771 c-4 -7 -5 -15 -2 -18 9 -9 19 4 14 18 -4 11 -6 11 -12 0z"/>
<path d="M3110 7775 c0 -8 9 -15 20 -15 11 0 20 7 20 15 0 8 -9 15 -20 15 -11
0 -20 -7 -20 -15z"/>
<path d="M5350 7761 c0 -15 6 -21 21 -21 25 0 22 33 -4 38 -12 2 -17 -3 -17
-17z"/>
<path d="M6050 7761 c0 -15 6 -21 21 -21 25 0 22 33 -4 38 -12 2 -17 -3 -17
-17z"/>
<path d="M7256 7755 c-9 -23 -8 -25 9 -25 17 0 19 9 6 28 -7 11 -10 10 -15 -3z"/>
<path d="M1020 7155 c0 -57 3 -76 13 -72 8 2 12 26 12 72 0 46 -4 70 -12 73
-10 3 -13 -16 -13 -73z"/>
<path d="M1150 7055 c0 -110 4 -175 10 -175 6 0 10 65 10 175 0 110 -4 175
-10 175 -6 0 -10 -65 -10 -175z"/>
<path d="M2150 7166 c0 -44 4 -76 10 -76 6 0 10 30 10 69 0 39 -4 73 -10 76
-6 4 -10 -22 -10 -69z"/>
<path d="M2758 7223 c-8 -20 4 -343 12 -338 13 8 13 345 1 345 -6 0 -11 -3
-13 -7z"/>
<path d="M2880 7155 c0 -43 4 -75 10 -75 6 0 10 32 10 75 0 43 -4 75 -10 75
-6 0 -10 -32 -10 -75z"/>
<path d="M3070 7166 c0 -44 4 -76 10 -76 6 0 10 30 10 69 0 39 -4 73 -10 76
-6 4 -10 -22 -10 -69z"/>
<path d="M3376 7233 c-3 -3 -6 -37 -6 -75 0 -54 3 -68 15 -68 12 0 15 14 15
69 0 65 -8 90 -24 74z"/>
<path d="M3626 7233 c-3 -3 -6 -37 -6 -75 0 -54 3 -68 15 -68 12 0 15 14 15
69 0 65 -8 90 -24 74z"/>
<path d="M3750 7155 c0 -57 3 -76 13 -72 8 2 12 26 12 72 0 46 -4 70 -12 73
-10 3 -13 -16 -13 -73z"/>
<path d="M4120 6965 c0 -50 4 -85 10 -85 6 0 10 35 10 85 0 50 -4 85 -10 85
-6 0 -10 -35 -10 -85z"/>
<path d="M1270 7061 c0 -155 8 -207 24 -165 8 20 8 298 0 318 -17 44 -24 0
-24 -153z"/>
<path d="M3990 7061 c0 -103 4 -172 10 -176 7 -4 10 55 10 169 0 111 -4 176
-10 176 -6 0 -10 -63 -10 -169z"/>
<path d="M2432 6094 c-12 -8 -30 -30 -40 -47 -16 -30 -17 -93 -20 -834 l-3
-803 136 0 136 0 -3 798 c-3 881 -1 852 -67 886 -39 20 -110 20 -139 0z"/>
<path d="M7046 3224 c-14 -14 -16 -119 -16 -1008 0 -758 3 -995 12 -1004 20
-20 48 -14 58 14 6 16 10 390 10 997 0 864 -2 975 -16 995 -18 26 -27 27 -48
6z"/>
<path d="M8888 3229 c-17 -9 -18 -38 -18 -379 l0 -370 40 0 40 0 0 358 c0 307
-2 361 -16 380 -17 25 -22 26 -46 11z"/>
<path d="M7950 2810 l0 -400 30 0 c24 0 33 6 40 26 6 15 10 172 10 374 0 202
-4 359 -10 374 -7 20 -16 26 -40 26 l-30 0 0 -400z"/>
<path d="M1575 450 c-3 -5 3 -10 15 -10 12 0 18 5 15 10 -3 6 -10 10 -15 10
-5 0 -12 -4 -15 -10z"/>
<path d="M1905 420 c-3 -5 1 -10 9 -10 9 0 16 5 16 10 0 6 -4 10 -9 10 -6 0
-13 -4 -16 -10z"/>
<path d="M2137 454 c-16 -16 -7 -44 14 -44 15 0 20 5 17 22 -3 22 -19 33 -31
22z"/>
<path d="M2395 420 c-3 -5 1 -10 9 -10 9 0 16 5 16 10 0 6 -4 10 -9 10 -6 0
-13 -4 -16 -10z"/>
<path d="M2525 450 c-3 -5 1 -10 9 -10 9 0 16 5 16 10 0 6 -4 10 -9 10 -6 0
-13 -4 -16 -10z"/>
<path d="M2707 454 c-16 -16 -7 -44 14 -44 15 0 20 5 17 22 -3 22 -19 33 -31
22z"/>
<path d="M3067 454 c-16 -16 -7 -44 14 -44 15 0 20 5 17 22 -3 22 -19 33 -31
22z"/>
<path d="M3225 450 c-3 -5 1 -10 9 -10 9 0 16 5 16 10 0 6 -4 10 -9 10 -6 0
-13 -4 -16 -10z"/>
<path d="M11100 7740 c0 -46 2 -50 23 -49 16 1 18 2 5 6 -22 5 -26 83 -5 83
27 0 40 -18 35 -48 -2 -17 -1 -29 4 -26 16 10 8 63 -11 74 -41 21 -51 13 -51
-40z"/>
<path d="M11194 7776 c-3 -8 -4 -29 -2 -48 3 -29 7 -33 33 -35 20 -1 23 0 8 4
-19 4 -23 11 -23 43 0 32 4 39 23 43 19 4 18 4 -6 6 -16 0 -30 -5 -33 -13z"/>
<path d="M11282 7778 c-19 -19 -14 -28 18 -40 38 -13 33 -34 -6 -31 -24 2 -26
0 -11 -8 22 -13 57 -2 57 16 0 8 -14 22 -30 30 -32 17 -31 40 1 32 11 -3 17
-1 13 4 -7 13 -28 11 -42 -3z"/>
<path d="M11406 7767 c-28 -41 4 -88 48 -71 22 8 21 44 -1 44 -14 0 -15 -2 -4
-9 7 -5 10 -14 7 -20 -21 -34 -65 13 -46 49 12 23 30 26 48 8 8 -8 12 -8 12
-1 0 10 -22 23 -41 23 -5 0 -15 -10 -23 -23z"/>
<path d="M11638 7783 c-2 -4 -1 -26 3 -48 l6 -40 2 35 1 35 25 -38 c14 -20 28
-37 30 -37 3 0 4 24 4 53 -2 51 -2 51 -8 12 l-6 -40 -26 38 c-15 21 -29 35
-31 30z"/>
<path d="M11746 7774 c-9 -8 -16 -24 -16 -34 0 -21 25 -50 44 -50 16 0 36 21
36 37 0 7 -8 13 -17 13 -15 0 -16 -2 -3 -10 12 -7 12 -12 2 -22 -9 -9 -17 -10
-30 -2 -23 15 -27 48 -7 64 14 12 20 12 38 0 20 -12 21 -12 8 3 -17 21 -35 22
-55 1z"/>
<path d="M11877 7783 c-4 -3 -7 -17 -7 -30 0 -19 4 -23 18 -19 9 3 24 1 32 -4
12 -7 12 -12 2 -22 -10 -10 -17 -10 -32 0 -11 7 -20 8 -20 3 0 -16 20 -23 45
-17 20 5 24 11 21 40 -2 18 -6 38 -10 45 -8 12 -39 15 -49 4z m44 -18 c0 -5
-9 -11 -21 -13 -20 -3 -27 8 -13 22 10 9 34 3 34 -9z"/>
<path d="M11961 7738 c1 -29 4 -43 6 -30 5 28 27 29 39 1 8 -16 10 -12 10 23
2 44 -7 58 -38 58 -15 0 -18 -9 -17 -52z m47 19 c2 -12 -3 -17 -17 -17 -15 0
-21 6 -21 21 0 25 33 22 38 -4z"/>
<path d="M12056 7747 c-18 -48 -21 -71 -5 -44 11 19 49 24 49 5 0 -6 3 -9 6
-5 7 7 -14 75 -25 82 -5 2 -16 -15 -25 -38z m34 -8 c0 -5 -7 -9 -15 -9 -9 0
-12 6 -9 15 6 15 24 11 24 -6z"/>
<path d="M12141 7740 l2 -55 7 45 c4 25 4 49 -1 55 -5 5 -8 -13 -8 -45z"/>
<path d="M12200 7753 l0 -38 -20 25 c-11 14 -19 21 -19 15 0 -5 11 -23 24 -40
l25 -30 0 53 c0 28 -2 52 -5 52 -3 0 -5 -17 -5 -37z"/>
<path d="M12240 7740 c0 -53 10 -61 51 -40 42 23 16 90 -35 90 -12 0 -16 -11
-16 -50z m54 18 c13 -21 -2 -51 -28 -56 -13 -3 -16 5 -16 38 0 33 3 41 16 38
9 -2 22 -11 28 -20z"/>
<path d="M12342 7778 c-19 -19 -14 -28 18 -40 38 -13 33 -34 -6 -31 -27 1 -28
1 -7 -9 17 -8 27 -8 38 2 22 18 19 28 -15 45 -32 17 -31 40 1 32 11 -3 17 -1
13 4 -7 13 -28 11 -42 -3z"/>
<path d="M12462 7783 c12 -3 18 -18 21 -51 l3 -47 2 47 c2 35 6 48 20 51 9 3
-1 5 -23 5 -22 0 -32 -2 -23 -5z"/>
<path d="M12657 7748 c-19 -49 -22 -72 -6 -45 11 19 49 24 49 5 0 -6 2 -9 5
-6 6 5 -14 68 -25 81 -4 4 -14 -12 -23 -35z m33 -10 c0 -5 -6 -8 -14 -8 -9 0
-12 7 -9 21 4 16 8 17 14 7 5 -7 9 -16 9 -20z"/>
<path d="M12733 7778 c9 -7 18 -29 20 -48 4 -34 4 -34 5 7 1 23 8 44 15 46 6
3 -3 6 -22 6 -30 1 -32 -1 -18 -11z"/>
<path d="M13027 7783 c-16 -15 -6 -41 19 -47 30 -8 27 -31 -5 -30 -13 0 -18
-3 -12 -9 14 -14 45 -4 49 16 2 10 -6 21 -22 28 -36 17 -35 43 2 35 20 -5 23
-4 12 4 -17 11 -34 13 -43 3z"/>
<path d="M13112 7783 c12 -3 18 -17 21 -46 l4 -42 1 42 c2 30 7 43 20 46 9 3
-1 5 -23 5 -22 0 -32 -2 -23 -5z"/>
<path d="M13197 7784 c-14 -15 -6 -35 18 -46 33 -15 34 -42 0 -36 -13 3 -22 1
-19 -3 9 -15 44 -10 51 7 6 16 -12 37 -41 47 -8 3 -7 8 1 17 10 11 15 11 29
-1 15 -12 17 -12 12 1 -5 16 -39 25 -51 14z"/>
<path d="M11363 7735 c0 -27 2 -38 4 -22 2 15 2 37 0 50 -2 12 -4 0 -4 -28z"/>
<path d="M11502 7735 l1 -50 7 40 c4 22 8 36 9 30 1 -5 13 -23 26 -40 l25 -30
-2 50 c-1 40 -2 43 -5 15 l-5 -35 -29 35 -28 35 1 -50z"/>
<path d="M11603 7735 c0 -27 2 -38 4 -22 2 15 2 37 0 50 -2 12 -4 0 -4 -28z"/>
<path d="M12541 7740 c0 -37 2 -41 9 -22 6 13 6 31 0 45 -7 18 -9 14 -9 -23z"/>
<path d="M12607 7759 c-3 -12 -2 -31 3 -42 7 -18 9 -14 9 21 1 46 -4 54 -12
21z"/>
<path d="M12937 7738 c-9 -23 -15 -44 -12 -46 2 -3 7 3 11 12 8 21 33 21 50
-1 10 -13 9 -5 -2 30 -9 26 -19 47 -23 47 -5 0 -15 -19 -24 -42z m33 7 c0 -8
-4 -15 -10 -15 -5 0 -10 7 -10 15 0 8 5 15 10 15 6 0 10 -7 10 -15z"/>
<path d="M12852 7733 c-2 -41 -1 -43 26 -42 22 1 23 2 5 6 -17 3 -23 13 -26
41 l-4 37 -1 -42z"/>
<path d="M12035 7246 c-93 -30 -165 -91 -206 -174 -23 -45 -24 -57 -27 -314
-3 -226 -1 -271 12 -297 35 -67 127 -105 198 -82 44 15 96 68 108 112 6 18 10
129 10 245 0 176 3 214 15 224 12 10 18 10 30 0 13 -11 15 -60 15 -329 l0
-317 -57 -18 c-148 -47 -248 -116 -298 -207 l-30 -54 0 -490 0 -491 25 -49
c65 -125 233 -124 307 2 14 25 32 69 39 97 l12 51 1 -54 c2 -105 58 -175 152
-187 56 -7 124 26 157 75 l22 35 -2 995 -3 996 -28 57 c-33 68 -90 121 -166
157 -46 21 -72 26 -151 28 -58 2 -111 -3 -135 -11z m150 -2024 c-3 -7 -15 -12
-27 -10 l-23 3 -3 355 c-1 195 0 369 3 385 3 17 15 46 28 65 l22 35 3 -410 c1
-225 0 -416 -3 -423z"/>
<path d="M12659 7237 c-74 -49 -69 31 -69 -1153 l0 -1061 23 -33 c39 -58 71
-75 142 -75 69 0 99 15 139 69 21 27 21 35 24 996 2 1021 1 1001 45 984 15 -5
17 -97 19 -972 3 -950 3 -968 23 -1002 24 -42 94 -80 145 -80 51 0 121 38 145
80 20 34 20 52 23 965 2 560 -1 969 -7 1029 -8 78 -17 113 -41 162 -38 77 -75
106 -145 112 -91 7 -145 -32 -186 -136 l-18 -47 -1 35 c0 47 -29 100 -70 128
-47 31 -143 31 -191 -1z"/>
<path d="M10292 7220 c-18 -11 -41 -34 -52 -52 -20 -32 -20 -53 -20 -1076 0
-1163 -4 -1089 69 -1134 32 -21 51 -23 178 -26 229 -6 341 22 411 102 59 67
62 96 62 542 0 253 -4 422 -11 454 -12 56 -46 103 -92 127 l-31 16 36 18 c93
48 100 86 96 515 l-3 339 -27 52 c-34 64 -79 99 -159 124 -50 16 -92 19 -242
19 -164 0 -185 -2 -215 -20z m306 -278 c9 -7 12 -76 10 -313 l-3 -304 -27 -3
-28 -3 0 315 c0 294 1 316 18 316 9 0 23 -4 30 -8z m7 -1317 l0 -390 -27 -3
-28 -3 0 396 0 396 28 -3 27 -3 0 -390z"/>
<path d="M11083 7224 c-18 -9 -43 -33 -55 -53 l-23 -36 0 -1055 c0 -1041 0
-1055 20 -1090 24 -42 94 -80 145 -80 52 1 116 34 140 72 19 32 20 49 20 501
0 501 -1 494 49 468 20 -11 20 -19 23 -475 3 -451 4 -465 24 -492 40 -54 70
-69 139 -69 69 0 99 15 139 69 20 27 21 41 24 454 4 550 -1 582 -92 642 -34
22 -36 26 -20 35 42 25 81 67 94 102 10 28 14 130 17 398 4 315 2 368 -12 422
-22 79 -74 141 -147 174 -49 22 -67 24 -253 27 -169 2 -205 0 -232 -14z m306
-288 c8 -9 11 -108 9 -341 -3 -289 -5 -329 -19 -338 -9 -6 -24 -7 -33 -4 -14
6 -16 41 -16 345 0 186 3 342 7 345 11 12 40 8 52 -7z"/>
<path d="M13447 7223 c-15 -10 -36 -36 -47 -59 -20 -39 -20 -66 -20 -1080 0
-969 1 -1041 18 -1073 9 -19 30 -44 45 -55 26 -19 42 -21 215 -21 209 0 265 9
336 57 35 22 53 46 78 96 l33 67 3 890 c2 616 0 910 -8 954 -19 111 -62 170
-155 213 -46 21 -65 23 -260 26 -187 2 -213 0 -238 -15z m323 -292 c7 -13 10
-294 10 -841 0 -547 -3 -828 -10 -841 -6 -11 -21 -19 -35 -19 l-25 0 0 860 0
860 25 0 c14 0 29 -8 35 -19z"/>
<path d="M10452 4614 c-22 -15 -22 -17 -22 -313 0 -192 4 -309 11 -330 15 -43
43 -57 75 -36 13 8 24 20 24 25 0 5 11 -2 25 -15 29 -30 39 -31 65 -5 19 19
20 33 20 335 0 302 -1 316 -20 335 -25 25 -42 25 -63 2 -15 -16 -17 -53 -17
-310 0 -188 -4 -292 -10 -292 -6 0 -10 103 -10 288 0 244 -2 291 -16 310 -18
26 -32 28 -62 6z"/>
<path d="M10688 4619 c-21 -12 -24 -69 -6 -87 19 -19 66 -15 78 7 15 29 12 49
-10 71 -22 22 -37 24 -62 9z"/>
<path d="M10806 4614 c-14 -13 -16 -58 -16 -338 0 -237 3 -325 12 -334 18 -18
113 -15 128 3 18 21 4 65 -20 65 -18 0 -19 11 -22 296 -3 279 -4 296 -22 310
-25 18 -41 18 -60 -2z"/>
<path d="M11212 4614 c-31 -22 -30 -69 3 -90 23 -15 27 -15 50 0 30 20 34 65
7 89 -23 21 -32 21 -60 1z"/>
<path d="M11326 4608 c-14 -19 -16 -68 -16 -335 0 -300 1 -314 20 -333 24 -24
29 -24 58 -4 22 15 22 17 22 310 0 189 4 294 10 294 6 0 10 -105 10 -294 0
-293 0 -295 22 -310 29 -20 34 -20 58 4 19 19 20 33 20 308 0 299 -6 354 -41
372 -25 14 -56 4 -64 -20 -5 -17 -7 -17 -30 6 -30 30 -49 30 -69 2z"/>
<path d="M11624 4623 c-12 -2 -32 -15 -45 -29 -24 -25 -24 -27 -27 -302 -3
-293 2 -343 40 -363 16 -9 26 -7 49 10 16 12 29 17 29 11 0 -18 49 -31 71 -20
18 10 19 23 19 173 0 114 -4 167 -12 175 -16 16 -65 15 -75 0 -4 -7 -6 -70 -4
-140 2 -89 0 -128 -8 -128 -8 0 -11 79 -11 265 0 163 4 265 10 265 5 0 10 -37
12 -82 3 -80 4 -83 30 -92 47 -17 58 4 58 106 0 102 -8 124 -55 144 -35 14
-42 15 -81 7z"/>
<path d="M11940 4619 c-49 -20 -60 -46 -60 -146 0 -84 2 -93 21 -104 16 -8 28
-8 45 0 22 10 24 16 24 91 0 47 4 80 10 80 6 0 10 -39 10 -98 l0 -99 -41 -18
c-66 -30 -69 -40 -69 -217 0 -157 0 -158 25 -174 23 -15 27 -15 50 0 14 9 25
21 25 26 0 6 5 10 10 10 6 0 10 -7 10 -15 0 -8 9 -19 21 -25 16 -9 26 -8 45 5
l24 15 0 305 0 305 -27 30 c-31 34 -82 46 -123 29z m50 -485 c0 -81 -4 -123
-10 -119 -18 11 -12 245 6 245 2 0 4 -57 4 -126z"/>
<path d="M12138 4619 c-17 -9 -18 -36 -18 -344 0 -320 1 -335 19 -345 21 -10
51 -4 63 14 4 6 8 143 8 304 0 188 4 292 10 292 6 0 10 -103 10 -290 0 -277 1
-291 20 -310 24 -24 29 -24 58 -4 22 15 22 17 22 310 0 189 4 294 10 294 6 0
10 -103 10 -290 0 -277 1 -291 20 -310 24 -24 29 -24 58 -4 22 15 22 16 22
315 0 321 -5 360 -50 374 -23 7 -60 -18 -60 -42 0 -21 -16 -15 -28 11 -17 39
-51 44 -79 12 -13 -15 -23 -23 -23 -17 0 14 -29 41 -43 41 -7 0 -20 -5 -29
-11z"/>
<path d="M12535 4621 c-46 -19 -60 -49 -64 -138 -2 -70 0 -87 15 -104 22 -24
39 -24 64 1 16 16 20 33 20 90 0 40 4 70 10 70 6 0 10 -40 10 -99 l0 -99 -35
-12 c-19 -6 -46 -25 -60 -41 -24 -29 -25 -35 -25 -169 0 -76 4 -150 9 -163 18
-46 76 -42 96 6 12 27 14 28 15 10 0 -20 33 -53 52 -53 5 0 17 9 28 20 19 19
20 33 20 305 0 324 -4 345 -64 370 -39 17 -61 18 -91 6z m55 -486 c0 -77 -4
-125 -10 -125 -6 0 -10 46 -10 118 0 104 4 132 17 132 2 0 3 -56 3 -125z"/>
<path d="M12932 4614 c-36 -25 -24 -82 19 -97 45 -15 79 61 43 97 -19 20 -34
20 -62 0z"/>
<path d="M13052 4614 c-22 -15 -22 -16 -22 -339 0 -323 0 -324 22 -339 29 -20
34 -20 58 4 19 19 20 33 20 310 0 187 4 290 10 290 6 0 10 -105 10 -294 0
-293 0 -295 22 -310 29 -20 34 -20 58 4 19 19 20 33 20 315 0 319 -5 356 -51
370 -18 6 -28 2 -45 -18 l-22 -26 -16 24 c-19 29 -33 31 -64 9z"/>
<path d="M13334 4620 c-12 -4 -31 -21 -43 -36 -20 -26 -21 -36 -21 -311 0
-229 3 -289 15 -312 19 -37 48 -44 79 -20 20 16 26 17 33 6 13 -22 47 -29 69
-13 17 13 19 27 19 176 0 132 -3 162 -15 170 -22 14 -67 12 -77 -2 -4 -7 -6
-71 -4 -142 2 -105 1 -128 -10 -124 -11 4 -15 53 -17 244 -1 131 0 249 3 262
12 47 25 19 25 -52 0 -79 13 -106 50 -106 37 0 53 43 47 124 -6 89 -18 113
-62 132 -38 16 -60 17 -91 4z"/>
<path d="M10213 4609 c-18 -18 -19 -649 -1 -667 17 -17 123 -15 157 3 16 8 31
22 35 30 3 9 6 76 6 149 0 103 -3 136 -16 154 -14 20 -14 24 0 44 12 17 16 49
16 134 0 147 -7 157 -111 162 -51 3 -78 0 -86 -9z m105 -172 c2 -73 0 -87 -13
-87 -12 0 -15 16 -15 91 0 68 3 90 13 87 8 -3 13 -33 15 -91z m0 -302 c-2 -76
-7 -110 -15 -113 -10 -3 -13 24 -13 111 0 62 3 117 7 121 17 17 23 -19 21
-119z"/>
<path d="M10959 4593 c-6 -16 -9 -143 -7 -335 3 -261 5 -310 18 -318 21 -13
124 -12 153 1 44 20 47 44 47 334 0 180 -4 282 -11 298 -16 34 -49 47 -125 47
-61 0 -65 -2 -75 -27z m116 -318 c0 -190 -3 -249 -12 -252 -10 -4 -13 51 -13
252 0 201 3 256 13 253 9 -4 12 -63 12 -253z"/>
<path d="M12718 4595 c-14 -31 0 -50 42 -59 26 -5 29 -9 25 -33 -3 -15 -23
-142 -45 -281 -30 -188 -37 -258 -30 -273 9 -16 21 -19 78 -19 37 0 72 4 78 8
32 21 18 72 -21 72 -13 0 -27 5 -31 11 -3 6 13 136 37 289 35 232 40 281 30
294 -10 12 -32 16 -82 16 -64 0 -70 -2 -81 -25z"/>
<path d="M10686 4484 c-14 -13 -16 -52 -16 -272 0 -141 4 -262 8 -268 12 -18
42 -24 63 -14 18 10 19 24 19 280 0 256 -1 270 -19 280 -27 14 -37 13 -55 -6z"/>
<path d="M11207 4482 c-15 -16 -17 -50 -17 -270 0 -239 1 -253 20 -272 24 -24
29 -24 58 -4 22 15 22 18 22 273 0 237 -1 259 -18 274 -24 22 -45 21 -65 -1z"/>
<path d="M12930 4480 c-19 -19 -20 -33 -20 -270 0 -239 1 -251 21 -271 21 -21
56 -19 71 5 4 6 8 127 8 268 0 220 -2 259 -16 272 -21 21 -40 20 -64 -4z"/>
<path d="M10245 3851 l-40 -6 -3 -332 -2 -332 22 -12 c13 -7 43 -9 82 -5 48 5
66 11 84 31 20 24 22 35 22 163 0 102 -4 143 -14 158 -12 17 -12 22 0 39 10
13 14 51 14 132 0 108 -1 115 -25 138 -13 14 -32 25 -42 25 -10 0 -27 2 -38 4
-11 2 -38 1 -60 -3z m70 -176 c0 -62 -4 -90 -12 -92 -10 -4 -13 19 -13 92 0
73 3 96 13 93 8 -3 12 -31 12 -93z m0 -305 c0 -82 -3 -114 -12 -117 -10 -4
-13 24 -13 117 0 93 3 121 13 118 9 -4 12 -36 12 -118z"/>
<path d="M10460 3848 l-25 -14 -3 -317 c-1 -208 1 -325 8 -337 14 -27 66 -27
80 -1 5 11 10 81 10 155 0 84 4 136 10 136 6 0 10 -52 10 -136 0 -74 5 -144
10 -155 15 -27 66 -26 81 2 7 14 10 69 7 159 -2 113 -6 141 -20 157 -17 18
-17 20 -1 36 14 13 18 40 21 121 4 111 -7 170 -36 185 -32 17 -126 22 -152 9z
m90 -183 c0 -63 -4 -105 -10 -105 -6 0 -10 42 -10 105 0 63 4 105 10 105 6 0
10 -42 10 -105z"/>
<path d="M10721 3847 c-39 -23 -50 -56 -51 -143 0 -91 9 -108 57 -102 28 3 28
4 33 82 3 51 10 81 18 84 9 3 12 -20 12 -92 l0 -96 -40 -16 c-74 -30 -80 -46
-80 -213 0 -116 3 -151 16 -169 21 -30 59 -29 80 3 l17 26 11 -23 c8 -16 20
-23 41 -23 51 0 55 21 55 310 0 273 -6 325 -38 358 -25 25 -98 32 -131 14z
m69 -478 c0 -92 -3 -120 -12 -117 -25 9 -22 238 2 238 6 0 10 -51 10 -121z"/>
<path d="M10922 3848 c-9 -9 -12 -92 -12 -338 0 -343 1 -350 45 -350 44 0 45
9 45 318 0 230 3 293 13 290 9 -4 13 -73 15 -293 1 -192 6 -293 13 -302 14
-16 51 -17 67 -1 9 9 12 96 12 330 0 305 -1 319 -20 338 -27 27 -55 25 -77 -4
l-18 -23 -10 21 c-12 24 -54 33 -73 14z"/>
<path d="M11173 3850 l-23 -9 0 -330 c0 -383 -7 -359 104 -347 48 5 66 11 84
31 22 26 22 30 22 314 0 329 1 326 -80 342 -56 10 -79 10 -107 -1z m87 -340
c0 -167 -4 -260 -10 -260 -6 0 -10 93 -10 260 0 167 4 260 10 260 6 0 10 -93
10 -260z"/>
<path d="M11521 3846 c-37 -21 -50 -55 -51 -132 0 -85 10 -116 69 -214 43 -71
45 -79 49 -164 3 -70 1 -87 -9 -84 -9 3 -12 19 -11 49 5 66 -11 99 -47 99 -45
0 -54 -19 -49 -111 3 -74 6 -83 31 -105 40 -34 105 -33 146 2 l31 26 0 111 0
112 -54 98 c-53 95 -59 118 -57 200 1 55 21 45 21 -12 0 -56 15 -74 57 -69 28
3 28 4 31 79 3 75 2 77 -28 103 -35 29 -89 34 -129 12z"/>
<path d="M11724 3850 c-12 -4 -24 -16 -28 -25 -9 -23 11 -55 34 -55 19 0 20
-8 20 -286 0 -177 4 -293 10 -305 7 -12 21 -19 40 -19 19 0 33 7 40 19 6 12
10 128 10 305 0 269 1 286 18 286 43 0 56 49 20 74 -24 17 -127 21 -164 6z"/>
<path d="M11974 3850 c-52 -21 -54 -33 -54 -343 l0 -289 29 -29 c24 -24 38
-29 76 -29 38 0 52 5 76 29 l29 29 0 292 0 292 -29 29 c-31 30 -81 38 -127 19z
m61 -343 c0 -163 -4 -258 -10 -259 -6 -2 -11 91 -13 260 -2 209 0 263 10 260
10 -4 13 -63 13 -261z"/>
<path d="M12190 3852 l-25 -8 -3 -328 c-2 -346 -1 -356 42 -356 42 0 46 16 46
167 0 89 4 143 10 143 6 0 10 -50 10 -129 0 -153 7 -181 49 -181 15 0 34 6 41
14 17 21 10 318 -7 324 -7 2 -13 10 -13 17 0 7 6 15 13 17 8 3 13 40 15 122 4
136 0 160 -31 180 -27 18 -112 28 -147 18z m80 -187 c0 -63 -4 -105 -10 -105
-6 0 -10 42 -10 105 0 63 4 105 10 105 6 0 10 -42 10 -105z"/>
<path d="M12406 3844 c-34 -33 -9 -94 38 -94 31 0 46 18 46 55 0 17 -5 36 -12
43 -17 17 -54 15 -72 -4z"/>
<path d="M12548 3831 l-33 -29 -3 -269 c-4 -298 1 -334 48 -358 62 -32 140 -9
159 46 6 18 11 69 11 114 0 67 -3 85 -18 98 -24 22 -45 21 -65 -1 -13 -14 -17
-38 -17 -100 0 -48 -4 -82 -10 -82 -6 0 -10 47 -10 120 l0 120 43 0 c70 0 77
15 77 157 0 66 -5 134 -11 152 -23 64 -115 82 -171 32z m82 -156 c0 -57 -4
-95 -10 -95 -6 0 -10 38 -10 95 0 57 4 95 10 95 6 0 10 -38 10 -95z"/>
<path d="M12799 3845 c-39 -21 -52 -62 -47 -157 3 -80 5 -87 61 -183 56 -97
57 -101 57 -177 0 -122 -27 -112 -32 12 -3 52 -4 55 -31 58 -47 6 -57 -12 -57
-100 0 -75 2 -81 29 -109 24 -24 38 -29 76 -29 38 0 52 5 76 29 28 29 29 31
29 138 l0 109 -57 99 c-52 92 -57 105 -57 164 -1 43 3 65 12 68 8 3 12 -9 12
-44 0 -68 21 -89 68 -72 20 8 22 15 22 79 0 66 -2 74 -29 101 -33 33 -87 39
-132 14z"/>
<path d="M12410 3720 c-13 -8 -15 -50 -18 -258 -3 -275 1 -302 46 -302 51 0
52 4 52 285 0 190 -3 264 -12 273 -14 14 -47 15 -68 2z"/>
<path d="M12999 3246 c-25 -53 24 -108 70 -79 20 12 27 69 10 89 -19 24 -68
18 -80 -10z"/>
<path d="M11973 375 c0 -27 2 -38 4 -22 2 15 2 37 0 50 -2 12 -4 0 -4 -28z"/>
<path d="M10483 370 c0 -25 2 -35 4 -22 2 12 2 32 0 45 -2 12 -4 2 -4 -23z"/>
<path d="M11377 403 c-2 -5 0 -21 4 -38 7 -29 7 -29 8 8 1 35 -3 46 -12 30z"/>
<path d="M12150 394 c0 -8 5 -12 10 -9 6 4 8 11 5 16 -9 14 -15 11 -15 -7z"/>
<path d="M10212 360 c0 -19 2 -27 5 -17 2 9 2 25 0 35 -3 9 -5 1 -5 -18z"/>
<path d="M10342 360 c0 -19 2 -27 5 -17 2 9 2 25 0 35 -3 9 -5 1 -5 -18z"/>
<path d="M10862 360 c0 -19 2 -27 5 -17 2 9 2 25 0 35 -3 9 -5 1 -5 -18z"/>
<path d="M10902 360 c0 -19 2 -27 5 -17 2 9 2 25 0 35 -3 9 -5 1 -5 -18z"/>
<path d="M10972 360 c0 -19 2 -27 5 -17 2 9 2 25 0 35 -3 9 -5 1 -5 -18z"/>
<path d="M12912 365 c0 -16 2 -22 5 -12 2 9 2 23 0 30 -3 6 -5 -1 -5 -18z"/>
<path d="M12952 360 c0 -19 2 -27 5 -17 2 9 2 25 0 35 -3 9 -5 1 -5 -18z"/>
<path d="M10431 364 c0 -11 3 -14 6 -6 3 7 2 16 -1 19 -3 4 -6 -2 -5 -13z"/>
<path d="M11471 364 c0 -11 3 -14 6 -6 3 7 2 16 -1 19 -3 4 -6 -2 -5 -13z"/>
<path d="M11920 361 c0 -11 4 -22 9 -25 4 -3 6 6 3 19 -5 30 -12 33 -12 6z"/>
<path d="M12521 364 c0 -11 3 -14 6 -6 3 7 2 16 -1 19 -3 4 -6 -2 -5 -13z"/>
<path d="M12711 364 c0 -11 3 -14 6 -6 3 7 2 16 -1 19 -3 4 -6 -2 -5 -13z"/>
<path d="M12236 355 c4 -8 8 -15 10 -15 2 0 4 7 4 15 0 8 -4 15 -10 15 -5 0
-7 -7 -4 -15z"/>
<path d="M10671 344 c0 -11 3 -14 6 -6 3 7 2 16 -1 19 -3 4 -6 -2 -5 -13z"/>
<path d="M11420 351 c0 -6 4 -13 10 -16 6 -3 7 1 4 9 -7 18 -14 21 -14 7z"/>
<path d="M11010 340 c0 -5 5 -10 11 -10 5 0 7 5 4 10 -3 6 -8 10 -11 10 -2 0
-4 -4 -4 -10z"/>
<path d="M10650 310 c-23 -7 -23 -8 -3 -9 12 -1 25 4 28 9 3 6 5 10 3 9 -2 -1
-14 -5 -28 -9z"/>
</g>
</svg>
