<?xml version="1.0" standalone="no"?>
<!DOCTYPE svg PUBLIC "-//W3C//DTD SVG 20010904//EN"
 "http://www.w3.org/TR/2001/REC-SVG-20010904/DTD/svg10.dtd">
<svg version="1.0" xmlns="http://www.w3.org/2000/svg"
 width="658.000000pt" height="776.000000pt" viewBox="0 0 658.000000 776.000000"
 preserveAspectRatio="xMidYMid meet">

<g transform="translate(0.000000,776.000000) scale(0.100000,-0.100000)"
fill="#000000" stroke="none">
<path d="M3220 7514 c-25 -2 -108 -8 -185 -14 -354 -27 -732 -109 -802 -173
-28 -25 -30 -70 -4 -103 15 -20 17 -31 10 -70 -19 -103 -97 -237 -173 -296
-28 -22 -56 -50 -63 -62 -9 -16 -12 -249 -13 -992 l0 -971 -82 -39 c-66 -31
-97 -39 -153 -42 -65 -3 -73 -1 -115 27 -25 17 -69 53 -99 80 l-55 48 22 51
c32 74 29 117 -10 156 l-33 33 3 101 c3 91 1 107 -21 154 -30 65 -57 94 -96
103 -22 5 -40 22 -72 71 -68 105 -141 154 -229 154 -58 0 -94 -19 -116 -61
-11 -21 -22 -29 -42 -29 -37 0 -81 -46 -89 -93 -3 -23 -14 -42 -29 -52 -34
-22 -57 -71 -52 -114 3 -24 -2 -46 -14 -66 -22 -36 -23 -67 -3 -104 18 -35 68
-79 100 -87 13 -3 29 -19 36 -36 15 -36 95 -117 141 -142 19 -11 41 -36 53
-59 11 -23 37 -55 58 -71 33 -27 48 -31 111 -34 69 -4 73 -5 96 -39 35 -51
169 -173 234 -211 30 -19 72 -38 93 -43 64 -15 164 -10 243 12 41 11 85 23 98
26 l22 5 0 -750 c0 -449 4 -761 9 -776 6 -13 26 -32 45 -41 43 -20 139 -121
165 -174 11 -20 22 -55 26 -76 11 -66 14 -71 50 -88 101 -48 359 -83 758 -103
75 -3 137 -9 137 -11 0 -3 -27 -34 -60 -71 -152 -165 -250 -414 -250 -631 0
-67 -1 -71 -27 -85 -35 -18 -66 -51 -88 -95 -17 -33 -17 -56 0 -152 9 -46 -6
-52 -75 -32 -79 23 -210 15 -280 -18 -181 -85 -252 -319 -137 -455 15 -17 24
-34 20 -38 -3 -3 -120 -6 -259 -6 -216 0 -255 -2 -268 -16 -20 -19 -21 -74 -2
-74 8 0 12 8 9 23 -3 13 2 29 10 35 10 9 424 12 1698 14 l1684 3 58 28 c31 16
57 34 57 40 0 7 3 8 10 1 15 -15 -6 -77 -37 -107 -60 -57 -16 -55 -1534 -55
-1693 -1 -1594 0 -1585 -9 4 -4 46 -10 94 -13 69 -4 86 -8 84 -20 -4 -18 25
-40 54 -40 31 0 37 -13 19 -46 -19 -37 -19 -97 0 -133 17 -34 70 -81 91 -81 8
0 14 -4 14 -10 0 -6 -35 -10 -85 -10 -84 0 -85 0 -85 -25 l0 -25 1453 2 c1444
3 1452 3 1452 23 0 19 -8 20 -292 23 -172 1 -293 6 -293 12 0 5 8 15 19 22 30
21 61 80 61 117 0 49 -37 119 -74 142 -69 42 -174 16 -216 -53 -37 -62 -19
-167 36 -203 40 -26 28 -35 -51 -35 -71 0 -97 11 -57 25 47 16 52 28 36 81
-19 64 -5 122 45 174 62 65 146 74 223 24 42 -27 68 -23 68 11 l0 24 228 3
227 3 48 28 c54 32 76 60 84 111 7 45 -14 123 -36 131 -20 8 -593 7 -641 -2
-44 -7 -74 -22 -146 -73 -32 -22 -73 -45 -93 -51 -39 -13 -1068 -26 -1098 -15
-14 6 -13 10 10 34 26 27 77 126 77 150 0 9 90 12 413 13 469 2 420 14 -93 23
l-315 5 -8 43 c-9 54 -3 70 25 68 13 -1 113 -1 223 0 248 3 180 18 -91 19
l-181 1 -26 48 c-14 26 -48 72 -75 102 -48 53 -49 55 -39 94 19 73 -18 162
-79 191 -20 9 -34 23 -34 34 0 41 54 231 85 298 52 113 107 184 216 275 l56
48 34 -43 c189 -237 437 -368 729 -383 127 -7 174 5 207 55 27 40 29 73 6 111
-18 32 -51 50 -91 50 -49 0 -58 14 -33 53 39 63 126 85 187 48 89 -55 119
-162 71 -263 -51 -107 -144 -150 -211 -97 -38 30 -32 6 6 -26 30 -25 37 -27
90 -21 50 5 59 3 68 -14 16 -29 12 -62 -12 -111 -33 -66 -32 -176 4 -244 70
-134 222 -171 376 -93 211 107 284 335 192 595 -17 48 -34 96 -37 106 -5 16
12 17 248 19 173 1 230 3 179 8 -41 4 -156 8 -256 9 -128 1 -185 5 -195 14
-16 12 -49 62 -49 72 0 3 33 5 73 5 39 0 110 3 157 7 80 7 82 8 40 14 -25 4
-103 8 -174 8 l-129 1 -49 46 c-53 50 -111 79 -175 90 -47 7 -142 -17 -184
-47 -20 -14 -44 -19 -92 -19 -59 0 -70 -3 -109 -33 -24 -18 -53 -52 -66 -74
l-23 -42 -62 18 c-99 28 -214 80 -293 133 -72 48 -174 151 -174 176 0 9 24 12
88 12 227 0 644 38 781 72 149 36 153 39 166 125 4 23 23 68 44 100 39 61 134
153 157 153 7 0 20 10 28 22 14 20 16 124 16 919 l0 896 46 7 c140 19 282 -6
363 -63 l31 -22 -16 -37 c-9 -20 -17 -65 -17 -98 -1 -73 18 -109 68 -129 l33
-14 -5 -108 c-5 -96 -3 -113 15 -149 28 -55 65 -98 107 -124 33 -21 37 -21 96
-6 33 9 62 16 64 16 1 0 6 -12 10 -27 9 -40 33 -73 58 -82 24 -9 79 3 114 26
12 8 44 16 70 17 77 2 143 63 143 131 0 20 7 28 30 37 53 18 75 93 49 168 -10
27 -9 37 5 61 23 39 9 89 -47 171 -62 91 -130 135 -240 156 -80 15 -87 18 -87
39 0 101 -100 162 -219 133 -49 -11 -51 -11 -88 18 -57 46 -169 98 -258 121
-93 25 -257 45 -297 37 l-28 -5 0 134 0 135 568 -6 c326 -3 580 -2 597 4 35
10 -422 22 -872 22 l-293 0 0 55 0 55 303 1 c445 2 516 13 132 21 -176 3 -345
5 -375 5 l-55 -2 -5 640 c-3 400 -9 646 -15 657 -5 9 -31 32 -56 52 -77 58
-167 212 -177 303 -3 31 1 54 14 78 27 52 12 83 -56 117 -103 51 -414 116
-690 143 -144 15 -689 28 -790 19z m570 -54 c227 -14 405 -36 583 -70 167 -32
317 -76 317 -91 0 -6 5 -7 10 -4 14 8 25 -24 13 -36 -9 -9 -60 6 -73 22 -3 3
-22 9 -44 13 -21 4 -46 11 -55 16 -36 19 -366 71 -576 92 -174 16 -769 17
-950 0 -274 -25 -619 -93 -707 -138 -31 -16 -48 -12 -48 11 0 31 118 70 343
114 352 69 790 95 1187 71z m216 -114 c297 -30 558 -84 642 -132 40 -24 50
-45 44 -95 -1 -4 20 -50 47 -103 l47 -96 -35 6 c-20 3 -49 12 -65 20 -16 7
-32 11 -37 8 -5 -3 -18 0 -29 6 -55 29 -463 90 -735 110 -209 15 -654 12 -850
-5 -318 -28 -525 -62 -718 -116 -60 -17 -111 -28 -113 -26 -3 3 10 36 29 73
18 38 39 92 46 119 20 81 28 94 68 110 130 55 464 111 803 135 174 12 675 4
856 -14z m79 -346 c105 -12 235 -29 290 -38 l100 -17 0 -40 c-1 -22 -7 -145
-14 -272 -15 -254 -10 -845 9 -1053 6 -63 12 -140 15 -170 2 -30 11 -113 19
-185 87 -741 80 -1068 -28 -1421 -38 -123 -108 -294 -137 -336 -11 -14 -19
-30 -19 -35 -1 -18 -103 -151 -162 -211 l-63 -64 -150 9 c-225 12 -810 9 -980
-5 -313 -27 -616 -71 -803 -118 -56 -14 -107 -22 -112 -19 -6 4 -10 654 -10
1874 l0 1868 23 21 c82 77 378 157 747 202 281 34 385 39 745 35 271 -2 378
-7 530 -25z m738 -157 c26 -9 47 -23 47 -31 0 -7 5 -10 11 -7 6 4 21 -2 33
-14 l23 -21 1 -608 c0 -334 -2 -619 -4 -635 -3 -15 -11 -27 -17 -26 -30 4
-230 -2 -226 -6 3 -2 57 -8 120 -11 63 -4 115 -8 117 -9 2 -2 4 -25 5 -52 l2
-48 -170 0 -170 0 0 35 c-1 19 -4 41 -9 48 -4 7 -2 20 6 29 7 9 8 14 2 10 -17
-10 -28 300 -19 495 4 84 9 157 12 161 3 4 6 40 8 80 4 69 8 93 35 232 16 82
39 176 49 200 5 11 14 39 20 63 7 23 15 42 19 42 4 0 8 10 8 23 5 71 19 78 97
50z m-3677 -1185 c49 -34 114 -109 114 -133 0 -12 -99 -43 -110 -34 -2 2 -3
13 -2 25 2 11 -6 31 -18 45 l-20 24 11 -27 c19 -43 -1 -78 -43 -78 -34 0 -94
30 -115 58 -27 33 -6 118 34 141 37 22 98 13 149 -21z m-242 -70 c3 -7 7 -25
10 -40 8 -34 50 -75 99 -95 43 -18 44 -21 16 -57 -27 -34 -71 -34 -116 0 -71
54 -92 127 -52 178 22 28 37 33 43 14z m449 -129 c48 -22 87 -132 87 -242 -1
-46 -8 -75 -36 -142 -5 -14 1 -10 19 10 l27 30 25 -28 c30 -33 31 -49 6 -104
-25 -54 -64 -94 -126 -126 -110 -57 -187 -57 -255 0 -42 37 -52 62 -22 64 26
2 35 4 60 12 38 14 24 27 -30 27 -62 0 -118 24 -169 72 -48 45 -66 78 -48 89
8 5 17 9 21 9 12 0 31 43 30 70 0 17 9 31 31 45 25 16 33 28 35 58 4 45 21 48
45 8 10 -17 33 -35 52 -42 38 -14 39 -16 25 -53 -5 -15 -6 -35 -1 -48 8 -22 9
-21 15 9 11 46 42 81 85 94 42 12 89 44 79 54 -3 3 -37 0 -74 -8 -78 -16 -119
-9 -146 24 -26 31 -23 41 27 73 81 51 183 70 238 45z m-518 -42 c36 -49 89
-87 121 -87 27 0 33 -30 11 -49 -65 -53 -201 25 -201 115 0 30 18 65 33 63 3
0 20 -19 36 -42z m3913 -71 c7 -4 12 -2 12 4 0 6 5 8 11 4 6 -3 29 -6 52 -6
23 1 45 -5 49 -11 6 -9 8 -9 8 1 0 13 49 17 51 5 1 -5 3 -61 4 -125 3 -132 -2
-146 -55 -151 -20 -2 -40 -6 -45 -9 -6 -3 -27 -9 -48 -13 -34 -7 -78 -40 -112
-86 -15 -19 -12 -86 5 -131 10 -26 23 -41 49 -52 62 -26 77 -27 139 -7 55 17
61 17 64 2 7 -26 1 -1741 -5 -1747 -3 -4 -21 -1 -39 6 -34 13 -127 32 -238 51
-97 15 -94 11 -57 81 44 86 64 136 72 181 4 20 11 37 17 37 5 0 6 4 3 10 -3 5
-1 28 5 50 5 22 14 57 20 78 5 20 12 73 15 117 3 44 8 100 11 125 8 65 8 163
0 255 -3 44 -8 116 -11 160 -3 44 -12 132 -20 195 -8 63 -16 143 -18 176 -3
34 -7 65 -9 70 -5 8 -17 103 -23 184 -2 19 -10 89 -18 155 -8 66 -15 127 -15
135 0 8 -5 44 -11 80 -9 61 -15 149 -12 178 1 11 17 13 69 10 37 -3 73 -8 80
-12z m-3948 -81 c26 -19 62 -38 79 -41 50 -10 39 -53 -16 -67 -27 -6 -106 41
-123 73 -11 21 -6 70 6 70 4 0 28 -16 54 -35z m4485 -264 c83 -22 202 -75 248
-111 l26 -20 -47 -44 -47 -44 -83 40 c-145 71 -311 75 -492 13 -107 -36 -154
-20 -166 56 -9 51 21 83 98 104 35 9 68 16 73 14 6 -1 17 1 25 4 35 14 61 16
170 12 72 -2 145 -11 195 -24z m532 -153 c14 -15 27 -41 30 -64 5 -39 4 -40
-33 -50 -36 -9 -33 -10 36 -11 139 -1 235 -46 310 -146 20 -25 43 -67 52 -91
15 -40 15 -48 3 -60 -8 -8 -19 -16 -25 -18 -6 -2 -2 -25 11 -58 25 -67 20
-112 -17 -128 -14 -7 -32 -12 -40 -12 -10 0 -14 -10 -13 -32 4 -63 -50 -128
-105 -128 -14 0 -28 5 -32 11 -4 7 -16 2 -33 -13 -39 -34 -67 -48 -101 -48
-27 0 -33 7 -66 75 -21 41 -55 91 -78 112 -22 21 -34 30 -27 21 25 -33 51 -92
43 -99 -4 -3 -25 -9 -47 -12 -37 -6 -42 -4 -87 44 -26 27 -52 66 -59 86 -18
55 -6 219 20 278 26 59 22 67 -10 20 -48 -71 -119 -30 -119 69 0 189 273 368
387 254z m-4244 -87 c98 -82 191 -91 328 -31 37 17 72 30 78 30 7 0 11 -29 11
-81 l0 -80 -32 -14 c-107 -44 -257 -60 -333 -35 -58 19 -151 88 -228 169 -37
39 -67 75 -67 79 0 4 26 21 58 38 l57 31 35 -29 c19 -16 61 -51 93 -77z m2167
-1642 c0 -8 4 -8 13 0 8 6 16 8 19 6 3 -3 59 -8 124 -10 172 -6 287 -16 300
-26 6 -5 13 -7 16 -4 9 10 191 -14 198 -26 5 -8 10 -8 14 0 4 6 15 7 30 1 13
-5 56 -12 95 -16 39 -3 74 -11 77 -15 3 -5 9 -7 14 -4 10 6 123 -14 134 -25 5
-5 14 -6 20 -4 7 3 25 0 40 -6 l28 -10 -59 -63 c-32 -35 -71 -89 -86 -120
l-27 -57 -33 14 c-19 7 -66 19 -105 26 -40 6 -72 16 -72 21 0 6 -4 8 -9 5 -5
-3 -53 -2 -108 4 -54 5 -123 12 -153 14 -30 2 -55 5 -55 6 0 7 -329 14 -685
15 -428 0 -526 -4 -745 -25 -60 -6 -131 -13 -157 -15 -26 -1 -50 -5 -55 -8 -6
-4 -74 -16 -128 -23 -5 0 -23 -6 -38 -12 -50 -21 -63 -15 -82 34 -10 27 -44
74 -82 114 -35 38 -60 70 -56 73 15 9 290 63 363 72 25 3 70 10 100 15 30 6
82 12 115 14 33 3 103 10 155 16 52 6 155 13 229 15 74 3 136 7 138 9 2 2 119
4 259 5 181 1 254 -2 254 -10z m-179 -460 c12 -6 26 -25 34 -42 21 -51 4 -79
-88 -138 -307 -197 -448 -440 -469 -808 -3 -50 -22 -67 -62 -57 -40 10 -49 46
-49 181 1 95 6 141 26 217 69 264 203 433 501 630 44 30 75 34 107 17z m165
-267 c81 -93 253 -194 404 -236 36 -10 108 -26 160 -35 l95 -16 3 -32 c3 -25
-2 -35 -23 -49 -22 -14 -43 -16 -143 -11 -183 8 -317 52 -472 155 -96 63 -262
240 -234 249 5 2 34 21 64 42 l55 39 23 -26 c13 -15 43 -51 68 -80z m1023 -67
c46 -16 101 -51 101 -65 0 -5 -8 -11 -17 -13 -10 -3 -4 -5 13 -6 23 -1 39 -11
63 -41 18 -22 29 -45 26 -50 -3 -6 -36 -10 -72 -10 -88 0 -77 -8 14 -11 39 -1
76 -5 81 -8 34 -22 91 -195 99 -299 12 -170 -55 -295 -198 -368 -95 -48 -195
-45 -255 8 -55 49 -78 101 -78 183 -1 80 21 137 75 201 l34 39 -37 -27 -36
-28 -17 26 c-16 25 -16 27 9 53 40 42 80 139 80 196 0 53 -27 120 -67 163 -22
23 -22 24 -2 35 61 36 123 44 184 22z m-1860 -693 c13 -38 23 -51 54 -66 75
-36 147 5 147 85 0 44 14 50 48 19 43 -41 48 -119 12 -194 -22 -46 -20 -52 10
-36 20 11 27 7 67 -36 34 -38 73 -100 73 -118 0 -1 -19 -3 -42 -5 -60 -3 -61
-11 -1 -11 58 0 68 -9 78 -67 l7 -43 -44 -1 c-143 -4 -203 -19 -77 -19 105 0
119 -5 109 -40 -17 -58 -57 -113 -102 -136 -36 -18 -846 -21 -881 -3 -31 17
-76 65 -87 95 -15 40 -12 124 7 179 25 71 102 145 178 174 52 20 73 22 155 18
105 -5 159 -21 227 -67 25 -17 47 -29 50 -26 2 2 -20 21 -51 43 -56 39 -62 48
-48 71 7 10 15 10 36 2 l28 -10 -31 42 c-34 46 -38 81 -17 132 13 32 64 81 74
71 3 -3 13 -27 21 -53z m-56 -846 c21 -8 47 -22 57 -31 15 -13 23 -14 39 -5
12 6 20 19 19 28 -3 16 37 17 566 20 486 2 567 0 563 -12 -7 -17 23 -46 45
-46 9 0 23 -3 32 -6 14 -5 13 -9 -1 -31 -10 -15 -17 -46 -17 -73 0 -59 37
-121 83 -140 17 -7 31 -16 31 -21 0 -5 -304 -9 -700 -9 -385 0 -700 3 -700 6
0 3 11 15 25 26 57 44 73 143 35 206 -38 61 -123 90 -192 63 -100 -38 -125
-188 -43 -260 19 -16 31 -32 28 -35 -10 -9 -153 -7 -153 2 0 5 15 15 33 23 34
15 34 11 21 112 -9 63 14 112 69 154 58 43 99 50 160 29z m-15 -126 c39 -37
23 -93 -30 -105 -57 -14 -94 75 -46 109 30 21 50 20 76 -4z m1777 -5 c14 -13
25 -31 25 -40 0 -20 -44 -65 -63 -65 -24 0 -67 40 -67 63 0 27 9 40 35 55 30
17 43 15 70 -13z"/>
<path d="M3748 6651 c-11 -48 -10 -133 2 -168 20 -56 101 -82 140 -43 23 23
27 79 8 113 -15 30 -78 112 -78 103 0 -4 16 -36 35 -70 52 -93 45 -136 -20
-136 -54 0 -69 28 -75 139 -4 74 -7 88 -12 62z"/>
<path d="M3180 6501 c-34 -18 -80 -73 -80 -95 0 -6 15 6 33 26 37 44 97 72
136 63 33 -7 71 -41 100 -89 26 -42 34 -46 21 -11 -43 114 -121 154 -210 106z"/>
<path d="M2564 6486 c-31 -14 -65 -53 -77 -91 -4 -12 6 -4 24 18 39 47 77 67
125 67 30 0 44 -8 78 -43 22 -23 47 -51 53 -62 11 -17 11 -15 3 10 -34 102
-114 141 -206 101z"/>
<path d="M3207 6282 c-25 -27 -48 -101 -50 -157 -2 -45 3 -58 52 -133 29 -46
51 -86 48 -89 -4 -3 -18 2 -32 11 -14 9 -37 24 -52 33 l-26 17 7 -84 c11 -143
54 -240 106 -240 27 0 67 54 85 113 72 235 -35 643 -138 529z"/>
<path d="M2608 6256 c-24 -18 -45 -72 -54 -133 -7 -55 1 -75 64 -171 19 -29
32 -55 29 -59 -4 -3 -25 6 -47 21 -22 14 -43 26 -46 26 -11 0 4 -151 21 -207
18 -61 55 -96 88 -84 12 4 32 28 45 53 71 140 48 451 -40 546 -24 25 -36 27
-60 8z"/>
<path d="M2226 5795 c3 -11 9 -50 11 -87 5 -62 4 -68 -14 -68 -32 0 -43 21
-44 85 -1 45 -3 54 -9 35 -13 -42 -11 -94 6 -118 18 -26 65 -30 84 -7 17 20 6
94 -20 143 -12 20 -18 28 -14 17z"/>
<path d="M2855 5654 c-66 -33 -106 -145 -72 -198 31 -46 105 -41 173 13 l26
20 -74 -2 -73 -2 1 37 c1 21 7 45 15 54 22 27 90 54 137 54 48 0 54 11 17 28
-36 16 -114 14 -150 -4z"/>
<path d="M3370 5400 c-14 -4 -56 -19 -94 -34 -208 -79 -400 -77 -590 8 -114
51 -184 25 -193 -70 -7 -64 17 -112 85 -176 121 -113 313 -158 551 -129 210
26 378 136 397 258 14 96 -68 172 -156 143z m-704 -55 l23 -15 -33 -70 c-18
-38 -36 -79 -39 -92 l-6 -22 -27 24 c-38 36 -54 73 -54 124 0 35 5 48 23 61
25 19 76 14 113 -10z m799 0 c29 -28 34 -99 10 -131 -15 -18 -16 -18 -53 22
-21 23 -46 58 -57 78 -17 32 -18 38 -5 46 29 18 80 11 105 -15z m-122 -62 c19
-32 47 -69 61 -82 14 -14 26 -30 26 -37 0 -12 -89 -74 -107 -74 -13 0 -77 122
-91 172 -11 41 -7 48 43 66 17 6 30 11 31 11 1 1 17 -25 37 -56z m-559 15 c57
-16 60 -20 41 -64 -8 -21 -20 -69 -26 -108 -5 -38 -12 -72 -14 -75 -3 -2 -35
11 -73 30 -55 29 -67 39 -65 58 4 35 70 171 84 171 6 0 30 -5 53 -12z m406
-25 c0 -10 20 -58 44 -108 24 -49 43 -93 41 -96 -4 -5 -73 -22 -147 -34 -41
-6 -36 -14 -58 85 -5 25 -10 71 -10 102 l0 57 38 4 c84 9 92 8 92 -10z m-170
-42 c0 -22 7 -75 15 -118 8 -43 15 -79 15 -80 0 -6 -189 -3 -204 3 -21 8 -21
61 -1 138 25 95 26 96 105 96 l70 0 0 -39z"/>
<path d="M3866 4959 c-16 -243 26 -364 136 -388 54 -12 97 5 114 44 21 52 9
103 -50 202 -28 49 -65 114 -81 145 -16 31 -31 56 -32 54 -5 -5 59 -147 89
-199 61 -104 72 -162 42 -206 -15 -20 -23 -23 -63 -18 -37 4 -52 12 -77 41
-44 50 -55 105 -63 291 l-7 160 -8 -126z"/>
<path d="M3254 4575 c4 -11 10 -50 13 -86 6 -72 -2 -88 -37 -69 -17 9 -20 21
-20 73 -1 46 -3 58 -11 45 -5 -10 -10 -39 -11 -65 0 -37 4 -50 22 -65 42 -34
90 -13 90 41 0 32 -28 122 -43 136 -7 7 -8 3 -3 -10z"/>
<path d="M2275 4463 c-3 -10 -9 -47 -12 -84 -8 -98 31 -159 104 -159 75 0 93
80 36 162 -15 22 -36 52 -45 67 -29 42 -20 15 13 -44 56 -100 54 -165 -7 -165
-58 0 -92 79 -82 191 5 53 4 59 -7 32z"/>
<path d="M3707 4257 c-3 -8 -8 -39 -12 -70 -12 -97 29 -167 99 -167 44 0 65
18 72 61 7 40 -16 91 -62 144 -26 29 -26 29 4 -26 40 -74 49 -121 27 -142 -24
-25 -62 -21 -90 8 -26 29 -42 121 -30 174 7 31 2 42 -8 18z"/>
<path d="M2925 3795 c29 -123 35 -156 35 -196 0 -51 -16 -72 -51 -67 -43 6
-62 49 -62 140 l1 83 -14 -67 c-25 -112 9 -181 87 -181 57 0 79 65 55 160 -15
56 -63 175 -51 128z"/>
<path d="M1140 370 c0 -100 3 -120 15 -120 13 0 15 20 15 120 0 100 -2 120
-15 120 -12 0 -15 -20 -15 -120z"/>
<path d="M110 470 c0 -7 17 -59 38 -117 34 -95 39 -103 61 -101 20 3 28 17 56
93 50 140 49 135 26 135 -16 0 -25 -18 -52 -97 l-32 -98 -32 95 c-21 64 -37
96 -48 98 -10 2 -17 -2 -17 -8z"/>
<path d="M332 463 c4 -21 33 -25 33 -3 0 8 -8 16 -18 18 -14 3 -18 -1 -15 -15z"/>
<path d="M574 469 c-3 -6 -2 -15 4 -21 13 -13 32 -2 32 18 0 16 -26 19 -36 3z"/>
<path d="M1624 469 c-8 -14 11 -33 25 -25 16 10 13 36 -3 36 -8 0 -18 -5 -22
-11z"/>
<path d="M670 435 c0 -16 -6 -25 -15 -25 -8 0 -15 -7 -15 -15 0 -8 7 -15 15
-15 11 0 15 -13 15 -53 0 -58 12 -77 47 -77 28 0 31 26 3 33 -16 4 -20 14 -20
51 0 39 3 46 20 46 11 0 20 7 20 15 0 8 -9 15 -20 15 -15 0 -20 7 -20 25 0 16
-6 25 -15 25 -9 0 -15 -9 -15 -25z"/>
<path d="M1727 454 c-4 -4 -7 -16 -7 -26 0 -10 -7 -18 -15 -18 -8 0 -15 -7
-15 -15 0 -8 7 -15 15 -15 11 0 15 -12 15 -46 0 -61 14 -84 50 -84 20 0 30 5
30 15 0 8 -9 15 -20 15 -17 0 -20 7 -20 50 0 43 3 50 20 50 11 0 20 7 20 15 0
8 -9 15 -19 15 -12 0 -21 8 -23 22 -3 22 -19 33 -31 22z"/>
<path d="M455 413 c-30 -8 -45 -23 -45 -47 0 -27 18 -46 43 -46 10 0 28 -5 39
-11 21 -11 21 -12 3 -25 -15 -11 -22 -11 -46 3 -32 19 -49 11 -33 -15 13 -20
75 -28 104 -12 23 12 27 52 7 69 -8 6 -28 14 -46 17 -37 8 -46 18 -28 33 10 8
22 7 45 -1 35 -14 53 -4 31 16 -18 17 -48 25 -74 19z"/>
<path d="M804 406 c-35 -15 -44 -32 -44 -80 0 -44 35 -76 82 -76 41 0 79 27
56 41 -7 5 -17 4 -22 -1 -18 -18 -65 -11 -76 10 -10 19 -8 20 55 20 58 0 65 2
65 19 0 24 -38 67 -65 75 -11 3 -34 -1 -51 -8z m62 -30 c26 -20 14 -28 -37
-24 -41 3 -42 4 -25 21 21 21 36 22 62 3z"/>
<path d="M1002 404 c-13 -9 -22 -11 -22 -5 0 6 -7 11 -15 11 -12 0 -15 -16
-15 -80 0 -73 2 -80 20 -80 16 0 19 8 22 63 3 56 5 62 26 65 12 2 22 10 22 17
0 22 -15 25 -38 9z"/>
<path d="M1250 407 c-50 -25 -62 -96 -23 -139 21 -23 95 -25 113 -3 18 21 -3
46 -22 27 -15 -15 -51 -15 -66 0 -22 22 -12 28 48 28 57 0 60 1 60 24 0 52
-62 88 -110 63z m54 -23 c33 -13 17 -34 -24 -34 -42 0 -52 12 -22 29 20 12 25
13 46 5z"/>
<path d="M1505 413 c-30 -8 -45 -23 -45 -47 0 -27 18 -46 43 -46 10 0 28 -5
39 -11 21 -11 21 -12 3 -25 -15 -11 -22 -11 -46 3 -32 19 -49 11 -33 -15 13
-20 75 -28 104 -12 23 12 27 52 7 69 -8 6 -28 14 -46 17 -37 8 -46 18 -28 33
10 8 22 7 45 -1 35 -14 53 -4 31 16 -18 17 -48 25 -74 19z"/>
<path d="M1843 396 c-34 -29 -39 -92 -9 -125 23 -26 97 -29 116 -6 18 21 -3
46 -22 27 -15 -15 -51 -15 -66 0 -22 22 -12 28 48 28 58 0 60 1 60 25 0 33
-42 75 -74 75 -14 0 -37 -11 -53 -24z m71 -12 c33 -13 17 -34 -24 -34 -42 0
-52 12 -22 29 20 12 25 13 46 5z"/>
<path d="M330 330 c0 -73 2 -80 20 -80 18 0 20 7 20 80 0 73 -2 80 -20 80 -18
0 -20 -7 -20 -80z"/>
<path d="M580 330 c0 -64 3 -80 15 -80 12 0 15 16 15 80 0 64 -3 80 -15 80
-12 0 -15 -16 -15 -80z"/>
<path d="M1630 330 c0 -64 3 -80 15 -80 12 0 15 16 15 80 0 64 -3 80 -15 80
-12 0 -15 -16 -15 -80z"/>
</g>
</svg>
