<?xml version="1.0" standalone="no"?>
<!DOCTYPE svg PUBLIC "-//W3C//DTD SVG 20010904//EN"
 "http://www.w3.org/TR/2001/REC-SVG-20010904/DTD/svg10.dtd">
<svg version="1.0" xmlns="http://www.w3.org/2000/svg"
 width="214.000000pt" height="196.000000pt" viewBox="0 0 214.000000 196.000000"
 preserveAspectRatio="xMidYMid meet">

<g transform="translate(0.000000,196.000000) scale(0.100000,-0.100000)"
fill="#000000" stroke="none">
<path d="M1502 1683 c5 -25 28 -28 28 -4 0 12 -6 21 -16 21 -9 0 -14 -7 -12
-17z"/>
<path d="M1624 1681 c-52 -31 -103 -117 -55 -91 11 5 47 10 80 10 48 0 65 4
81 20 11 11 20 25 20 30 0 20 -41 50 -67 50 -16 0 -42 -9 -59 -19z"/>
<path d="M1340 1634 c-56 -20 -100 -42 -135 -65 -40 -28 -40 -28 -95 -13 -105
28 -223 44 -324 44 -115 0 -169 -12 -201 -44 -42 -42 -55 -225 -28 -398 5 -34
4 -37 -23 -41 l-29 -4 31 -2 c32 -1 44 -15 44 -52 0 -10 4 -19 8 -19 4 0 19
-22 33 -49 13 -27 36 -57 52 -66 37 -22 34 -31 -17 -44 -71 -18 -98 -47 -103
-112 -4 -48 -1 -59 29 -103 63 -92 69 -108 54 -131 -23 -35 -93 -67 -160 -72
-65 -6 -79 1 -89 42 -4 19 -5 18 -6 -2 -2 -42 26 -56 101 -50 79 7 144 38 167
79 14 24 14 30 -2 60 -10 18 -32 53 -50 76 -26 35 -32 53 -32 92 0 64 28 95
101 111 51 12 54 11 101 -19 51 -32 114 -62 134 -62 6 0 -25 18 -68 40 -131
65 -218 164 -252 285 -18 63 -32 234 -25 303 l7 63 48 -49 c86 -88 315 -188
516 -226 163 -31 275 -31 395 -1 20 5 27 3 31 -12 3 -15 6 -13 16 11 12 31 7
31 172 10 40 -5 49 -3 62 16 22 32 9 58 -56 108 -66 50 -65 62 4 98 59 30 64
55 17 80 -23 12 -70 19 -155 23 -67 3 -124 9 -128 13 -4 3 -1 16 5 28 18 34
-8 53 -77 57 -32 1 -65 0 -73 -3z m108 -44 c2 -21 -5 -30 -38 -49 -47 -26 -54
-15 -8 14 44 28 45 42 6 54 l-33 10 35 -2 c29 -2 35 -6 38 -27z m-400 -29 c50
-13 92 -27 92 -32 0 -6 -21 -19 -47 -31 -42 -18 -60 -20 -173 -16 -149 6 -233
-3 -271 -31 -25 -19 -28 -19 -42 -3 -35 41 -40 63 -20 90 32 43 74 52 228 48
101 -2 166 -9 233 -25z m718 -96 c-11 -8 -24 -15 -30 -15 -5 0 -1 7 10 15 10
8 24 14 29 14 6 0 1 -6 -9 -14z m-795 -46 c46 -12 88 -25 93 -30 5 -4 -20 -1
-55 7 -35 8 -98 21 -139 29 -68 12 -71 13 -29 14 25 1 83 -8 130 -20z m-101
-86 c52 -22 105 -43 118 -47 12 -4 22 -11 22 -16 0 -10 -113 28 -190 63 -62
29 -117 66 -124 83 -3 9 12 3 37 -14 23 -16 85 -47 137 -69z m230 15 c10 -6 7
-7 -10 -2 -14 3 -32 11 -40 16 -10 6 -7 7 10 2 14 -3 32 -11 40 -16z m620 -99
l55 -20 -45 7 c-25 4 -78 8 -117 7 -40 0 -73 2 -73 3 0 7 66 22 95 23 17 0 55
-9 85 -20z m-633 5 c-3 -3 -12 -4 -19 -1 -8 3 -5 6 6 6 11 1 17 -2 13 -5z
m403 -28 c0 -2 -11 -6 -25 -8 -14 -3 -25 -1 -25 3 0 5 11 9 25 9 14 0 25 -2
25 -4z"/>
<path d="M1765 1561 c-6 -11 9 -23 19 -14 9 9 7 23 -3 23 -6 0 -12 -4 -16 -9z"/>
<path d="M1814 1559 c-3 -6 -2 -15 4 -21 13 -13 32 -2 32 18 0 16 -26 19 -36
3z"/>
<path d="M1855 1433 c-55 -7 -125 -34 -125 -49 0 -8 8 -14 18 -14 10 0 56 -18
101 -41 91 -46 125 -47 141 -3 23 61 -49 118 -135 107z"/>
<path d="M155 1360 c-3 -6 1 -7 9 -4 11 4 19 -2 25 -17 6 -14 10 -18 10 -8 2
28 -31 50 -44 29z"/>
<path d="M275 1350 c5 -8 8 -24 7 -36 -3 -21 23 -52 35 -40 4 3 -2 13 -13 21
-15 11 -16 17 -6 23 9 6 7 13 -9 28 -14 11 -19 13 -14 4z"/>
<path d="M142 1318 c-8 -10 -5 -16 14 -25 22 -10 23 -10 12 11 -15 29 -14 28
-26 14z"/>
<path d="M240 1300 c0 -11 -4 -20 -10 -20 -5 0 -10 -5 -10 -11 0 -8 4 -8 14 0
17 14 28 51 15 51 -5 0 -9 -9 -9 -20z"/>
<path d="M345 1312 c4 -8 11 -26 15 -40 7 -22 8 -23 9 -6 1 11 -6 29 -15 40
-8 10 -12 13 -9 6z"/>
<path d="M591 1315 c-6 -26 2 -107 15 -151 12 -44 13 -45 7 -9 -3 22 -9 69
-13 105 -4 36 -8 61 -9 55z"/>
<path d="M1840 1300 c0 -5 5 -10 10 -10 6 0 10 5 10 10 0 6 -4 10 -10 10 -5 0
-10 -4 -10 -10z"/>
<path d="M130 1273 c0 -7 12 -25 28 -41 15 -15 20 -19 11 -7 -9 11 -21 29 -27
40 -6 11 -12 14 -12 8z"/>
<path d="M1910 1255 c0 -9 5 -15 11 -13 6 2 11 8 11 13 0 5 -5 11 -11 13 -6 2
-11 -4 -11 -13z"/>
<path d="M782 1185 c-34 -28 -56 -75 -49 -102 3 -13 5 -10 6 8 1 36 41 92 74
103 21 8 31 6 47 -9 27 -24 25 -33 -5 -27 -22 4 -25 1 -25 -23 0 -27 -1 -27
-19 -11 -17 16 -19 14 -39 -31 l-20 -47 29 -13 c24 -10 29 -18 29 -46 0 -21 7
-40 18 -48 15 -13 16 -12 4 3 -17 22 -12 73 8 73 20 0 49 70 49 121 1 72 -51
96 -107 49z"/>
<path d="M906 1183 c10 -40 14 -41 14 -5 0 18 -5 32 -10 32 -6 0 -8 -11 -4
-27z"/>
<path d="M356 1174 c-5 -14 -4 -15 9 -4 17 14 19 20 6 20 -5 0 -12 -7 -15 -16z"/>
<path d="M1608 1183 c7 -3 16 -2 19 1 4 3 -2 6 -13 5 -11 0 -14 -3 -6 -6z"/>
<path d="M230 1170 c20 -13 33 -13 25 0 -3 6 -14 10 -23 10 -15 0 -15 -2 -2
-10z"/>
<path d="M1691 1141 c16 -22 20 -37 15 -58 l-7 -28 16 23 c16 22 15 25 -10 57
-14 19 -28 35 -31 35 -2 0 5 -13 17 -29z"/>
<path d="M1025 1151 c-43 -18 -86 -94 -84 -148 1 -21 3 -17 10 15 17 87 73
141 127 121 32 -12 30 -41 -3 -33 -22 5 -25 3 -25 -21 0 -24 -2 -26 -16 -14
-18 15 -28 3 -51 -59 -12 -31 -11 -33 22 -46 19 -8 41 -28 50 -45 19 -37 28
-40 20 -8 -4 15 2 39 15 64 41 80 35 164 -13 177 -26 7 -27 7 -52 -3z"/>
<path d="M1134 1124 c9 -28 12 -31 14 -14 4 26 -4 50 -16 50 -5 0 -4 -16 2
-36z"/>
<path d="M444 1136 c11 -9 29 -16 40 -15 17 1 16 2 -6 9 -14 4 -32 11 -40 15
-7 3 -4 -1 6 -9z"/>
<path d="M1512 1099 c-37 -68 -92 -149 -129 -190 l-38 -42 50 7 c28 4 70 13
95 19 l45 11 -35 6 c-23 4 -38 1 -43 -7 -4 -7 -22 -13 -40 -13 l-32 1 23 18
c12 11 22 24 22 29 0 16 32 37 54 35 15 -1 16 0 4 3 -23 7 -23 4 12 75 18 34
40 64 53 69 l22 9 -23 0 c-16 1 -28 -9 -40 -30z"/>
<path d="M1590 1113 c52 -19 63 -66 30 -120 -12 -21 -14 -30 -6 -27 18 7 36
49 36 84 0 34 -31 70 -57 69 -14 0 -15 -2 -3 -6z"/>
<path d="M404 1086 c11 -9 24 -16 30 -16 12 0 7 5 -24 19 -24 11 -24 11 -6 -3z"/>
<path d="M1780 1079 c0 -16 -5 -20 -20 -16 -11 3 -20 1 -20 -4 0 -16 48 -10
54 7 9 23 7 34 -4 34 -5 0 -10 -10 -10 -21z"/>
<path d="M1876 1063 c-6 -14 -5 -15 5 -6 7 7 10 15 7 18 -3 3 -9 -2 -12 -12z"/>
<path d="M1819 1058 c-1 -7 0 -17 1 -23 17 -69 18 -70 17 -18 -1 29 -5 53 -9
53 -5 0 -9 -6 -9 -12z"/>
<path d="M488 1053 c7 -3 16 -2 19 1 4 3 -2 6 -13 5 -11 0 -14 -3 -6 -6z"/>
<path d="M1894 1024 c-18 -15 -18 -15 2 -5 15 7 24 7 33 -2 10 -9 11 -8 6 6
-9 21 -16 21 -41 1z"/>
<path d="M1677 1009 c-9 -11 -12 -29 -9 -38 5 -12 8 -10 10 9 2 14 9 28 15 32
6 4 9 10 5 13 -3 4 -13 -4 -21 -16z"/>
<path d="M1904 978 l-19 -23 23 19 c21 18 27 26 19 26 -2 0 -12 -10 -23 -22z"/>
<path d="M1535 959 c18 -5 33 -5 39 1 7 7 -4 10 -29 9 -40 -1 -40 -1 -10 -10z"/>
<path d="M1680 940 c0 -5 5 -10 11 -10 5 0 7 5 4 10 -3 6 -8 10 -11 10 -2 0
-4 -4 -4 -10z"/>
<path d="M540 908 c-44 -30 -74 -90 -74 -147 0 -57 33 -151 53 -151 12 0 12 2
-1 18 -39 45 -50 158 -21 219 9 20 32 45 50 55 18 11 33 22 33 24 0 7 -7 4
-40 -18z"/>
<path d="M986 905 c4 -9 -5 -17 -28 -24 -33 -11 -33 -11 10 -7 33 3 42 1 42
-12 0 -8 3 -13 6 -9 10 10 -5 54 -20 60 -10 4 -13 1 -10 -8z"/>
<path d="M1628 913 c-10 -2 -18 -9 -18 -14 0 -15 -74 -56 -130 -73 -31 -9 -91
-16 -139 -16 -49 0 -103 -6 -126 -15 -22 -8 -59 -14 -82 -15 -23 0 -45 -4 -48
-10 -7 -11 65 -4 125 11 19 5 68 9 108 9 106 0 200 24 270 70 33 21 63 43 66
49 7 11 3 12 -26 4z"/>
<path d="M916 744 c-3 -26 -5 -61 -5 -78 1 -17 5 -2 10 34 5 42 14 69 26 77
16 12 15 13 -4 13 -17 0 -21 -8 -27 -46z"/>
<path d="M978 771 c9 -6 11 -22 6 -58 -12 -94 45 -151 177 -179 43 -9 79 -22
87 -32 40 -52 -62 -192 -141 -192 -29 0 -57 32 -57 66 0 12 11 37 23 56 22 32
22 34 5 35 -10 1 -16 -3 -12 -8 3 -6 -2 -19 -11 -29 -15 -16 -17 -30 -11 -76
4 -31 9 -60 11 -65 12 -18 124 -31 220 -26 100 5 159 21 152 41 -6 19 -69 35
-139 35 -63 1 -91 12 -68 26 17 10 50 82 50 108 0 38 -33 64 -92 72 -137 19
-204 88 -178 184 7 29 17 41 33 44 12 2 2 5 -23 5 -27 1 -40 -2 -32 -7z"/>
<path d="M921 614 c0 -11 3 -14 6 -6 3 7 2 16 -1 19 -3 4 -6 -2 -5 -13z"/>
<path d="M930 581 c0 -17 95 -111 111 -111 7 0 -7 14 -30 30 -23 17 -50 45
-61 63 -11 18 -20 26 -20 18z"/>
<path d="M381 544 c0 -11 3 -14 6 -6 3 7 2 16 -1 19 -3 4 -6 -2 -5 -13z"/>
<path d="M449 321 c-23 -18 -23 -21 -7 -37 24 -25 111 -31 143 -10 51 34 20
66 -63 66 -34 0 -57 -6 -73 -19z"/>
</g>
</svg>
