<?xml version="1.0" standalone="no"?>
<!DOCTYPE svg PUBLIC "-//W3C//DTD SVG 20010904//EN"
 "http://www.w3.org/TR/2001/REC-SVG-20010904/DTD/svg10.dtd">
<svg version="1.0" xmlns="http://www.w3.org/2000/svg"
 width="220.000000pt" height="198.000000pt" viewBox="0 0 220.000000 198.000000"
 preserveAspectRatio="xMidYMid meet">

<g transform="translate(0.000000,198.000000) scale(0.100000,-0.100000)"
fill="#000000" stroke="none">
<path d="M1167 1623 c-14 -13 -7 -69 12 -100 17 -26 18 -37 9 -66 -11 -37 3
-97 23 -97 5 0 2 -11 -7 -25 -14 -21 -14 -28 -3 -41 7 -9 23 -20 35 -24 19 -8
21 -14 16 -62 -6 -72 -35 -136 -66 -148 -55 -21 -123 -23 -177 -5 -72 23 -105
44 -224 140 -137 110 -197 147 -250 153 -43 4 -45 3 -113 -64 -38 -38 -74 -79
-81 -90 -21 -43 -24 -127 -6 -194 20 -71 20 -84 10 -147 -6 -36 -11 -42 -34
-45 -29 -3 -41 -39 -21 -63 10 -12 2 -26 -44 -76 -120 -130 -137 -236 -47
-292 25 -16 24 -16 -51 -17 -45 0 -78 -4 -78 -10 0 -6 141 -11 398 -12 541 -4
563 -3 591 11 18 10 125 14 430 17 223 3 448 6 499 8 99 3 141 16 53 16 -48 0
-51 1 -41 19 34 64 -12 124 -111 145 -25 6 -26 7 -21 79 4 69 3 75 -19 91 -26
18 -89 22 -105 6 -7 -7 -20 5 -41 39 -73 116 -226 145 -357 66 l-56 -33 -18
42 c-11 23 -34 59 -52 79 -18 21 -30 40 -28 43 3 3 25 15 49 27 52 26 71 68
88 192 9 64 16 81 36 97 18 14 24 26 20 39 -4 10 -2 19 4 19 5 0 24 12 41 27
23 19 31 32 27 50 -2 12 2 28 9 34 18 15 18 43 -1 59 -8 7 -15 18 -15 26 0 40
-104 43 -146 3 -22 -21 -24 -21 -30 -3 -18 56 -28 76 -45 84 -20 12 -53 13
-62 3z m67 -22 c9 -10 20 -35 23 -55 4 -25 11 -36 23 -36 13 0 19 -10 22 -35
2 -19 -1 -40 -6 -45 -16 -16 14 -37 63 -43 29 -4 40 -2 30 4 -7 5 -29 9 -46 9
-26 0 -33 4 -33 20 0 40 109 38 134 -3 15 -25 -22 -55 -77 -64 -35 -5 -38 -7
-19 -14 13 -5 22 -17 22 -28 0 -41 -118 -51 -155 -14 -18 18 -12 31 23 44 l27
11 -32 13 c-38 16 -50 50 -34 95 8 26 7 38 -9 68 -20 37 -26 73 -13 85 12 13
40 7 57 -12z m187 -51 c31 -17 22 -29 -23 -33 l-43 -4 46 -1 c52 -2 79 -23 60
-46 -9 -10 -29 -12 -79 -9 -37 3 -69 8 -72 10 -3 3 6 13 19 24 l23 19 -22 0
c-28 0 -22 21 11 37 30 16 54 16 80 3z m-796 -251 c28 -17 86 -60 130 -95 134
-110 150 -119 262 -163 59 -24 127 -59 151 -78 69 -56 114 -147 132 -268 6
-37 8 -42 9 -18 3 74 169 138 251 96 97 -50 125 -200 51 -275 l-28 -28 -182 2
-182 3 35 50 c20 28 38 66 41 85 l6 35 -15 -38 c-35 -92 -134 -201 -214 -234
-70 -29 -201 -31 -274 -3 -88 33 -176 139 -162 195 5 19 1 32 -14 48 -10 12
-32 51 -48 85 -15 35 -65 114 -110 175 -87 117 -114 181 -114 265 0 71 18 94
93 122 16 5 25 15 22 20 -8 13 12 39 40 51 28 12 62 3 120 -32z m697 -44 c6
-7 -10 -132 -23 -172 -16 -50 -47 -82 -90 -93 -35 -10 -44 -8 -76 11 l-37 23
48 12 c80 21 112 63 123 164 5 53 8 60 28 60 12 0 24 -2 27 -5z m-906 -440
c-2 -16 -2 -24 1 -17 2 6 10 12 17 12 13 0 56 -53 56 -70 0 -14 -53 -13 -69 3
-12 10 -13 8 -6 -8 19 -50 18 -55 -7 -55 -54 0 -138 84 -111 111 10 10 18 10
38 1 25 -12 25 -11 25 37 0 60 7 67 38 39 18 -18 22 -30 18 -53z m1193 29 c38
-22 38 -29 6 -50 -21 -14 -31 -15 -51 -5 -49 22 -118 14 -190 -24 -37 -19 -68
-35 -69 -35 -2 0 -5 11 -8 25 -3 20 3 32 31 55 20 16 54 36 77 45 53 20 162
14 204 -11z m86 -86 c17 -33 18 -39 5 -65 -25 -47 -33 -44 -63 18 -28 58 -28
61 -10 75 27 21 46 13 68 -28z m-1154 -90 l29 -63 -32 -28 c-42 -35 -176 -111
-223 -127 -116 -38 -119 53 -5 170 43 44 55 51 76 46 30 -8 54 8 54 35 0 12 9
19 28 22 15 2 31 5 35 6 4 0 21 -27 38 -61z m-207 27 c18 -14 16 -18 -41 -78
-66 -71 -88 -114 -79 -152 18 -71 174 -22 334 105 54 42 67 47 77 30 13 -22
-9 -52 -77 -105 -172 -135 -333 -162 -383 -65 -20 38 -19 59 5 115 17 41 123
166 139 165 3 0 15 -7 25 -15z m1380 -64 c4 -5 24 -12 46 -16 37 -6 40 -9 40
-38 0 -43 -35 -174 -51 -193 -10 -12 -23 -14 -54 -9 -22 3 -78 7 -125 8 l-85
2 -3 38 -3 37 80 0 80 0 10 -32 c7 -25 8 -15 4 40 -4 48 -2 72 5 72 6 0 14 -4
17 -10 9 -14 45 -32 45 -23 0 4 -14 17 -30 28 -16 11 -30 28 -30 38 0 22 6 22
41 -4 38 -27 38 -9 -1 19 -18 14 -27 28 -24 37 7 17 30 20 38 6z m186 -100 c0
-5 -7 -14 -15 -21 -8 -7 -17 -27 -21 -46 -9 -47 -26 -43 -19 4 11 63 16 72 36
72 10 0 19 -4 19 -9z m-1250 -54 c19 -23 54 -59 78 -79 l43 -38 -223 1 c-127
0 -212 4 -197 9 47 14 163 79 204 115 22 19 45 34 50 34 6 0 26 -19 45 -42z
m990 15 c0 -13 -12 -22 -22 -16 -10 6 -1 24 13 24 5 0 9 -4 9 -8z m-175 -72
l0 -35 -168 -5 c-92 -3 -167 -3 -167 0 0 3 18 22 40 43 l40 38 128 -3 127 -3
0 -35z"/>
<path d="M686 1134 c-16 -42 9 -124 38 -124 30 0 35 55 6 63 -21 5 -28 41 -10
52 6 4 8 11 5 16 -10 14 -32 11 -39 -7z"/>
<path d="M582 1118 c-23 -23 -5 -111 25 -123 19 -7 28 1 38 33 4 16 2 22 -8
22 -25 0 -42 29 -29 50 17 27 -3 41 -26 18z"/>
<path d="M550 978 c0 -14 -3 -35 -6 -45 -6 -14 -4 -16 6 -6 10 9 20 8 46 -4
26 -13 39 -14 58 -5 27 12 63 59 53 69 -4 3 -12 -6 -18 -21 -24 -51 -95 -49
-121 4 -17 34 -18 34 -18 8z"/>
<path d="M871 897 c-52 -27 -97 -79 -106 -122 -4 -26 -3 -24 14 11 50 107 178
148 286 92 38 -20 57 -42 84 -95 51 -101 -2 -222 -118 -270 -90 -38 -207 14
-253 111 -15 33 -18 35 -13 12 10 -48 56 -103 107 -127 63 -30 149 -24 207 14
116 77 135 232 40 326 -72 73 -165 90 -248 48z"/>
<path d="M889 840 l-24 -20 30 15 c54 27 129 14 177 -32 15 -15 28 -22 28 -17
0 18 -46 54 -81 64 -55 16 -104 12 -130 -10z"/>
<path d="M1110 741 c0 -6 5 -13 10 -16 6 -3 10 1 10 9 0 9 -4 16 -10 16 -5 0
-10 -4 -10 -9z"/>
<path d="M752 700 c0 -19 2 -27 5 -17 2 9 2 25 0 35 -3 9 -5 1 -5 -18z"/>
<path d="M730 471 c25 -36 112 -80 164 -84 59 -5 51 10 -9 16 -43 4 -67 14
-105 42 -28 20 -50 41 -50 46 0 5 -5 9 -11 9 -6 0 -1 -13 11 -29z"/>
</g>
</svg>
