<?xml version="1.0" standalone="no"?>
<!DOCTYPE svg PUBLIC "-//W3C//DTD SVG 20010904//EN"
 "http://www.w3.org/TR/2001/REC-SVG-20010904/DTD/svg10.dtd">
<svg version="1.0" xmlns="http://www.w3.org/2000/svg"
 width="206.000000pt" height="166.000000pt" viewBox="0 0 206.000000 166.000000"
 preserveAspectRatio="xMidYMid meet">

<g transform="translate(0.000000,166.000000) scale(0.100000,-0.100000)"
fill="#000000" stroke="none">
<path d="M1013 1350 c-33 -13 -28 -22 4 -9 30 11 97 3 88 -10 -2 -5 3 -15 12
-22 12 -10 14 -10 9 -1 -4 6 -3 12 1 12 13 0 34 -40 27 -51 -4 -7 -12 -5 -22
4 -24 21 -61 30 -110 28 -30 -1 -49 5 -63 18 -25 23 -71 33 -102 22 -12 -4
-42 -11 -67 -15 -33 -5 -56 -17 -87 -46 -24 -22 -43 -45 -43 -52 0 -8 4 -6 11
4 5 9 15 15 22 12 7 -2 21 3 32 11 19 16 19 16 -2 6 -38 -19 -39 -12 -3 17 19
15 50 30 70 34 101 19 118 20 141 7 l24 -13 -35 -8 c-130 -28 -166 -39 -180
-56 -25 -32 -56 -43 -99 -36 -96 15 -132 -25 -137 -154 -1 -55 0 -74 5 -52 9
41 24 72 45 89 22 19 84 16 106 -4 19 -17 18 -18 -12 -56 -20 -25 -40 -39 -54
-39 -13 0 -31 -8 -41 -19 -10 -10 -30 -21 -44 -25 -15 -3 -30 -14 -33 -23 -6
-15 -5 -16 5 -5 7 6 26 12 41 12 18 0 28 5 28 15 0 15 38 41 47 31 3 -2 -7
-30 -22 -61 -31 -62 -36 -63 -110 -17 -22 14 -34 18 -27 10 10 -13 9 -18 -3
-28 -9 -7 -17 -11 -18 -9 -2 2 -25 28 -52 57 -35 38 -45 56 -37 64 8 8 22 2
51 -21 25 -20 39 -26 35 -16 -4 9 1 24 11 35 20 22 40 27 29 8 -4 -8 -3 -10 2
-5 5 5 8 11 6 13 -2 3 4 17 14 32 15 24 12 23 -22 -8 -21 -19 -43 -41 -47 -48
-7 -11 -14 -9 -33 9 -20 19 -28 21 -42 12 -9 -6 -16 -18 -16 -27 1 -9 -5 -16
-13 -16 -8 0 -11 -5 -8 -10 4 -6 15 -8 24 -5 10 3 25 -3 36 -15 16 -18 17 -21
1 -44 -23 -36 -21 -112 4 -133 25 -21 26 -60 3 -86 -17 -19 -17 -20 0 -14 19
7 21 3 7 -22 -7 -14 -2 -28 21 -59 34 -47 50 -55 84 -42 28 11 35 35 59 190
21 132 69 238 153 329 93 104 214 147 384 139 112 -5 204 -39 320 -119 94 -65
131 -100 180 -173 44 -66 49 -106 18 -137 -31 -31 -171 -96 -279 -129 -222
-69 -615 -140 -771 -140 -75 0 -91 3 -122 24 -20 14 -34 19 -31 12 2 -7 19
-21 37 -31 52 -32 207 -25 481 21 l39 7 -6 -53 c-7 -60 -27 -87 -71 -99 -35
-9 -71 1 -102 30 -12 11 -36 22 -55 25 -28 5 -38 1 -59 -21 -22 -24 -25 -35
-25 -104 l0 -78 -82 -6 c-84 -6 -147 -29 -141 -50 10 -30 80 -50 177 -50 112
-1 176 21 176 60 0 11 3 25 8 29 4 4 7 14 7 23 -1 10 -7 5 -16 -11 -22 -41
-62 -48 -89 -15 -47 54 -40 188 11 207 28 11 50 3 97 -36 77 -64 184 7 186
124 1 25 5 32 20 32 11 0 22 -8 24 -17 4 -14 5 -13 6 4 1 18 13 24 92 42 103
24 122 25 152 10 21 -10 21 -9 3 5 -18 15 -18 16 8 26 21 7 32 7 46 -3 43 -30
100 -128 100 -171 l0 -24 29 29 c33 33 74 38 109 13 30 -21 29 -68 -3 -100
-44 -44 -134 -70 -150 -43 -4 6 -13 8 -21 5 -22 -8 -29 14 -34 112 -5 85 -8
94 -34 120 l-29 27 24 -33 c20 -28 25 -50 29 -128 7 -114 17 -130 89 -128 84
3 150 49 166 116 14 58 -79 103 -131 63 -27 -21 -31 -19 -44 20 -6 19 -29 58
-51 85 -21 27 -39 51 -39 54 0 2 11 7 26 10 14 4 72 27 130 52 107 47 154 86
154 126 0 28 -67 149 -92 166 -11 8 -17 20 -14 28 3 8 0 11 -8 8 -17 -6 -40
22 -30 37 4 8 3 9 -5 5 -15 -9 -81 31 -81 50 0 8 9 14 20 14 11 0 20 -7 20
-15 0 -8 10 -19 23 -25 19 -9 20 -9 6 2 -8 7 -18 21 -22 31 -3 9 -15 17 -24
17 -21 0 -55 35 -63 64 -3 11 -12 22 -20 24 -12 4 -13 2 -2 -9 6 -7 12 -20 12
-29 0 -8 9 -21 20 -28 19 -12 28 -42 12 -42 -15 0 -52 32 -52 45 0 8 -9 21
-21 29 -12 8 -18 19 -15 24 4 6 -9 16 -29 23 -19 7 -37 21 -40 30 -3 9 -17 20
-30 23 -13 3 -29 15 -35 27 -25 46 -96 70 -147 49z m114 -94 c40 -47 32 -53
-64 -48 -64 2 -108 -2 -161 -16 -69 -18 -73 -18 -88 -1 -9 10 -30 21 -47 25
l-31 6 23 19 c13 11 37 19 55 19 17 1 44 7 60 13 19 8 68 12 130 11 95 -2 101
-3 123 -28z m93 -21 c6 -16 17 -25 31 -25 12 0 23 -8 26 -20 3 -11 11 -20 18
-20 7 0 16 -7 19 -16 5 -13 2 -15 -11 -9 -10 4 -44 17 -75 29 -66 25 -63 23
-72 59 -6 25 -4 27 24 27 23 0 33 -6 40 -25z m-423 -47 c19 -15 16 -23 -11
-36 -13 -6 -40 -25 -60 -43 -33 -29 -38 -30 -54 -16 -9 8 -27 18 -40 22 -28 8
-89 -11 -101 -33 -5 -9 -13 -13 -17 -9 -12 12 20 92 35 89 7 -1 10 2 6 7 -14
23 64 41 95 21 12 -7 12 -12 2 -22 -6 -6 -12 -17 -12 -22 0 -6 7 0 16 13 32
45 104 60 141 29z m-395 -315 c10 -9 18 -22 18 -29 0 -11 -56 -74 -66 -74 -10
0 -3 82 8 100 15 24 17 24 40 3z m82 -11 c-1 -6 -2 -35 -2 -63 -2 -49 -3 -51
-27 -45 -14 4 -35 2 -46 -5 -11 -6 -23 -8 -26 -5 -11 11 8 55 27 61 12 4 20
15 20 29 0 12 6 28 12 34 15 15 43 11 42 -6z m56 -22 c0 -11 -41 -31 -49 -24
-2 2 -1 10 2 19 7 17 47 21 47 5z m-14 -62 c-4 -18 -9 -62 -12 -98 -6 -67 -21
-130 -31 -130 -4 0 -15 7 -25 17 -22 20 -24 69 -3 81 12 6 14 14 6 33 -11 29
2 59 25 59 11 0 13 6 9 20 -7 21 9 50 27 50 6 0 8 -13 4 -32z m-79 -83 c1 -25
-3 -45 -8 -45 -16 0 -10 -72 8 -92 13 -15 13 -18 2 -18 -35 0 -86 88 -61 104
5 3 7 19 4 36 -5 33 11 60 37 60 12 0 16 -11 18 -45z"/>
<path d="M855 1255 c-16 -8 -23 -14 -15 -14 8 0 26 6 40 14 32 18 15 18 -25 0z"/>
<path d="M938 1263 c7 -3 16 -2 19 1 4 3 -2 6 -13 5 -11 0 -14 -3 -6 -6z"/>
<path d="M1648 1283 c6 -2 18 -2 25 0 6 3 1 5 -13 5 -14 0 -19 -2 -12 -5z"/>
<path d="M1632 1250 c0 -14 2 -19 5 -12 2 6 2 18 0 25 -3 6 -5 1 -5 -13z"/>
<path d="M1736 1262 c-3 -5 8 -6 25 -4 16 2 29 6 29 8 0 8 -49 4 -54 -4z"/>
<path d="M1746 1214 c-27 -24 -27 -26 -11 -44 9 -10 22 -17 29 -14 7 3 25 0
40 -6 15 -5 25 -6 21 -1 -3 5 4 13 15 16 24 8 24 46 0 52 -12 4 -13 3 -1 -5
29 -21 4 -42 -49 -42 -57 0 -70 21 -22 38 15 6 21 11 14 11 -7 1 -10 6 -7 11
10 15 2 12 -29 -16z"/>
<path d="M1690 1219 c0 -5 5 -7 10 -4 6 3 10 8 10 11 0 2 -4 4 -10 4 -5 0 -10
-5 -10 -11z"/>
<path d="M1641 1204 c0 -11 3 -14 6 -6 3 7 2 16 -1 19 -3 4 -6 -2 -5 -13z"/>
<path d="M289 1174 c-13 -16 -12 -16 9 -3 20 12 24 12 33 -1 9 -13 10 -13 6 0
-5 22 -32 24 -48 4z"/>
<path d="M930 1169 c-16 -5 -4 -6 35 -2 33 3 62 7 64 9 8 8 -74 2 -99 -7z"/>
<path d="M190 1166 c0 -2 11 -6 25 -8 13 -3 22 -1 19 3 -5 9 -44 13 -44 5z"/>
<path d="M189 1137 c12 -15 11 -17 -5 -18 -11 0 -3 -5 16 -12 49 -17 43 -31
-14 -35 -57 -4 -81 12 -52 34 11 8 15 14 10 14 -14 0 -34 -22 -34 -36 0 -13
49 -31 89 -32 21 -1 50 21 51 38 0 3 -17 18 -38 35 -20 16 -31 21 -23 12z"/>
<path d="M1615 1130 c-3 -6 1 -7 9 -4 18 7 21 14 7 14 -6 0 -13 -4 -16 -10z"/>
<path d="M1150 1126 c0 -2 7 -7 16 -10 8 -3 12 -2 9 4 -6 10 -25 14 -25 6z"/>
<path d="M1835 1120 c-5 -8 -20 -9 -41 -5 -26 4 -41 1 -61 -14 -14 -12 -32
-21 -39 -21 -8 0 -14 -4 -14 -10 0 -5 -5 -10 -12 -10 -6 0 -8 3 -5 6 10 10
-12 44 -28 44 -17 0 -75 -49 -75 -63 0 -5 14 5 32 22 17 17 38 31 45 31 21 0
15 -25 -13 -51 -14 -13 -35 -37 -46 -54 -13 -20 -7 -16 19 13 27 29 47 42 65
42 14 0 28 3 30 8 2 4 18 17 35 30 26 18 41 21 72 16 25 -4 41 -2 46 6 4 6 5
14 2 16 -3 3 -8 0 -12 -6z"/>
<path d="M321 1093 c7 -12 15 -20 18 -17 3 2 -3 12 -13 22 -17 16 -18 16 -5
-5z"/>
<path d="M849 1083 c-13 -16 -12 -17 4 -4 9 7 17 15 17 17 0 8 -8 3 -21 -13z"/>
<path d="M1108 1089 c-28 -16 -38 -73 -24 -130 16 -60 19 -64 44 -50 12 6 30
11 41 11 19 0 21 6 20 53 -1 28 -3 41 -6 27 -8 -54 -14 -70 -24 -70 -6 0 -9
10 -8 23 2 12 0 28 -5 36 -5 8 -4 16 4 21 10 6 9 15 -4 40 -21 42 -20 43 7 30
21 -11 21 -10 3 4 -23 18 -25 19 -48 5z"/>
<path d="M615 1080 c27 -12 43 -12 25 0 -8 5 -22 9 -30 9 -10 0 -8 -3 5 -9z"/>
<path d="M872 1052 c-21 -14 -30 -66 -21 -117 5 -27 11 -50 14 -53 2 -3 23 -5
45 -6 44 -1 51 7 49 62 -1 20 -3 28 -6 17 -2 -11 -6 -30 -9 -42 -2 -13 -8 -23
-13 -23 -12 0 -19 79 -8 83 5 1 2 19 -6 39 -11 27 -12 38 -4 42 7 2 3 5 -8 5
-11 0 -26 -3 -33 -7z"/>
<path d="M615 1040 c-3 -5 -1 -10 4 -10 6 0 11 5 11 10 0 6 -2 10 -4 10 -3 0
-8 -4 -11 -10z"/>
<path d="M930 1045 c0 -5 5 -17 10 -25 5 -8 10 -10 10 -5 0 6 -5 17 -10 25 -5
8 -10 11 -10 5z"/>
<path d="M330 1036 c0 -2 7 -7 16 -10 8 -3 12 -2 9 4 -6 10 -25 14 -25 6z"/>
<path d="M133 1020 c3 -10 17 -15 43 -15 21 0 51 -8 66 -18 15 -11 33 -17 40
-14 9 4 8 6 -3 6 -9 1 -26 10 -39 21 -18 16 -31 19 -58 14 -24 -5 -37 -2 -44
7 -8 12 -9 11 -5 -1z"/>
<path d="M1430 1017 c0 -2 15 -16 33 -33 l32 -29 -29 33 c-28 30 -36 37 -36
29z"/>
<path d="M1031 888 l-14 -23 22 20 c19 16 24 17 32 5 9 -13 10 -13 6 0 -6 24
-31 23 -46 -2z"/>
<path d="M576 844 c-9 -26 -14 -49 -12 -51 2 -2 11 17 20 43 9 26 14 49 12 51
-2 2 -11 -17 -20 -43z"/>
<path d="M1164 872 c8 -13 -59 -72 -81 -72 -13 0 -14 -3 -5 -12 21 -21 13 -28
-33 -28 -52 0 -61 17 -12 23 26 3 24 4 -13 6 -25 1 -65 10 -89 22 -31 13 -48
16 -55 9 -7 -7 -5 -10 5 -10 30 0 106 -104 101 -140 -1 -10 0 -11 4 -2 4 9 16
3 40 -18 40 -34 79 -39 94 -11 5 11 10 47 10 81 0 67 20 116 53 126 22 7 17
28 -8 32 -9 2 -15 0 -11 -6z m-83 -174 c12 -23 3 -58 -16 -58 -22 0 -76 51
-73 68 4 20 48 32 66 19 7 -6 18 -19 23 -29z"/>
<path d="M1050 860 c-9 -6 -10 -10 -3 -10 6 0 15 5 18 10 8 12 4 12 -15 0z"/>
<path d="M328 675 c-4 -16 -3 -36 2 -44 12 -22 19 2 11 39 l-7 35 -6 -30z"/>
<path d="M339 592 c12 -22 41 -48 41 -36 -1 11 -36 54 -44 54 -4 0 -2 -8 3
-18z"/>
<path d="M1001 465 c-1 -16 -12 -50 -24 -75 -28 -58 -71 -80 -154 -80 -53 0
-63 -3 -63 -17 0 -14 2 -15 9 -4 6 9 18 11 38 7 43 -10 119 12 152 43 31 29
55 97 48 134 -3 17 -5 15 -6 -8z"/>
<path d="M1398 188 c-49 -17 -28 -40 49 -52 53 -8 143 11 143 29 0 29 -133 45
-192 23z"/>
</g>
</svg>
