<?xml version="1.0" standalone="no"?>
<!DOCTYPE svg PUBLIC "-//W3C//DTD SVG 20010904//EN"
 "http://www.w3.org/TR/2001/REC-SVG-20010904/DTD/svg10.dtd">
<svg version="1.0" xmlns="http://www.w3.org/2000/svg"
 width="212.000000pt" height="164.000000pt" viewBox="0 0 212.000000 164.000000"
 preserveAspectRatio="xMidYMid meet">

<g transform="translate(0.000000,164.000000) scale(0.100000,-0.100000)"
fill="#000000" stroke="none">
<path d="M972 1369 c-65 -12 -142 -51 -189 -95 -24 -21 -67 -79 -96 -129 -40
-68 -63 -96 -93 -112 -21 -13 -46 -20 -54 -17 -8 3 -11 2 -7 -2 16 -16 -15
-31 -56 -27 -33 4 -48 0 -70 -17 -15 -12 -27 -29 -26 -38 0 -13 3 -11 9 5 10
26 40 43 72 43 42 0 48 -12 28 -53 -16 -32 -16 -39 -4 -51 8 -8 14 -19 14 -24
0 -14 42 -48 90 -72 25 -12 86 -61 135 -109 53 -50 109 -94 135 -106 25 -10
47 -20 49 -22 3 -2 -6 -14 -19 -28 -39 -41 -73 -32 -152 41 -49 46 -87 56
-130 33 -34 -18 -58 -86 -58 -165 l0 -71 -64 -7 c-193 -20 -156 -81 49 -81
113 0 175 16 175 45 0 10 2 27 5 37 4 12 2 11 -6 -3 -21 -41 -88 -57 -124 -30
-16 11 -20 29 -23 89 -5 88 9 139 45 167 44 34 76 26 143 -35 72 -66 105 -72
152 -25 21 21 36 29 49 25 23 -8 24 -17 4 -54 -31 -61 -136 -79 -218 -37 -46
23 -62 21 -32 -4 8 -7 15 -10 15 -6 0 4 13 0 30 -9 42 -22 128 -19 167 5 18
10 40 35 50 55 l19 36 84 3 c47 1 103 8 125 15 39 12 46 11 203 -52 89 -36
176 -77 194 -92 46 -39 74 -47 119 -35 40 11 79 56 79 90 -1 8 -7 0 -16 -19
-20 -46 -41 -60 -92 -61 -35 0 -51 7 -82 32 -24 20 -97 56 -189 93 -83 33
-151 63 -151 66 0 3 16 13 36 23 36 16 38 16 116 -10 44 -14 81 -24 84 -22 2
3 -22 13 -54 22 -110 35 -106 28 -53 83 25 27 66 86 91 132 24 46 51 86 60 89
8 3 27 14 42 24 14 10 42 18 62 18 34 0 121 28 113 36 -2 3 -20 -3 -40 -11
-39 -16 -97 -20 -97 -7 0 16 34 38 75 50 22 6 49 18 60 27 13 10 5 8 -25 -5
-61 -27 -78 -26 -73 4 7 37 -41 104 -90 127 -23 10 -50 19 -60 19 -10 0 -47
27 -82 60 -36 33 -86 74 -112 91 -96 60 -222 82 -341 58z m280 -46 c40 -19 95
-58 140 -100 60 -55 86 -72 138 -88 76 -25 103 -54 103 -115 0 -51 -25 -87
-81 -118 -34 -19 -50 -39 -83 -103 -59 -112 -114 -171 -207 -216 -76 -38 -76
-38 -201 -38 -122 0 -128 1 -193 33 -48 23 -88 54 -140 108 -41 43 -95 87
-123 101 -94 48 -119 90 -91 156 11 26 30 45 71 68 62 35 65 39 133 154 84
143 187 197 367 192 89 -2 108 -6 167 -34z"/>
<path d="M835 1189 c-11 -17 1 -21 15 -4 8 9 8 15 2 15 -6 0 -14 -5 -17 -11z"/>
<path d="M1233 1183 c9 -9 19 -14 23 -11 10 10 -6 28 -24 28 -15 0 -15 -1 1
-17z"/>
<path d="M1150 1156 c-10 -13 -7 -13 20 -3 29 11 34 10 51 -12 10 -13 19 -19
19 -14 0 17 -35 43 -57 43 -11 0 -26 -6 -33 -14z"/>
<path d="M1125 1113 c-3 -8 -5 -41 -5 -74 0 -74 17 -94 80 -95 25 0 52 -3 60
-5 8 -3 12 -4 8 -2 -5 3 -9 32 -10 66 l-2 62 -3 -52 c-5 -71 -23 -68 -23 3 0
55 -1 56 -25 50 -29 -7 -31 1 -10 31 15 21 14 23 -7 27 -37 7 -57 4 -63 -11z"/>
<path d="M760 1105 c0 -8 4 -15 9 -15 5 0 14 7 21 15 10 13 9 15 -9 15 -12 0
-21 -6 -21 -15z"/>
<path d="M911 1067 c-14 -6 -27 -19 -29 -27 -4 -12 -1 -11 15 3 11 10 36 17
57 17 22 0 35 4 31 10 -8 14 -45 12 -74 -3z"/>
<path d="M730 1044 c0 -8 5 -12 10 -9 6 3 10 10 10 16 0 5 -4 9 -10 9 -5 0
-10 -7 -10 -16z"/>
<path d="M670 1035 c-7 -9 -10 -18 -7 -21 10 -11 37 5 37 21 0 19 -14 19 -30
0z"/>
<path d="M923 1024 c-17 -9 -34 -22 -37 -30 -3 -9 5 -6 24 7 23 17 38 21 71
16 23 -3 38 -2 33 3 -18 18 -60 20 -91 4z"/>
<path d="M625 980 c-3 -5 1 -10 9 -10 9 0 16 5 16 10 0 6 -4 10 -9 10 -6 0
-13 -4 -16 -10z"/>
<path d="M1530 975 c0 -9 6 -12 15 -9 8 4 15 10 15 15 0 5 -7 9 -15 9 -8 0
-15 -7 -15 -15z"/>
<path d="M1450 970 c0 -5 5 -10 10 -10 6 0 10 5 10 10 0 6 -4 10 -10 10 -5 0
-10 -4 -10 -10z"/>
<path d="M1560 940 c0 -5 5 -10 10 -10 6 0 10 5 10 10 0 6 -4 10 -10 10 -5 0
-10 -4 -10 -10z"/>
<path d="M1493 933 c-14 -5 -18 -43 -5 -43 14 0 43 36 35 43 -7 8 -12 8 -30 0z"/>
<path d="M1129 913 c-13 -16 -12 -17 4 -4 9 7 17 15 17 17 0 8 -8 3 -21 -13z"/>
<path d="M1427 899 c-9 -6 -17 -14 -17 -19 0 -17 27 -11 34 6 8 22 5 25 -17
13z"/>
<path d="M921 871 c-7 -5 -23 -7 -35 -5 -20 4 -20 4 2 -7 13 -7 26 -28 33 -53
13 -50 51 -101 93 -127 37 -23 121 -25 170 -5 44 18 47 26 34 68 -6 20 -8 52
-4 72 6 30 11 36 31 36 14 0 25 3 25 8 0 11 -51 6 -85 -8 -69 -29 -196 -20
-235 15 -9 8 -21 11 -29 6z m229 -65 c0 -7 -12 -16 -27 -19 -40 -7 -93 3 -93
19 0 10 16 14 60 14 44 0 60 -4 60 -14z m-40 -76 c0 20 52 6 67 -17 14 -21 14
-23 -12 -33 -53 -20 -152 -5 -143 23 7 21 50 37 70 26 12 -7 18 -6 18 1z"/>
<path d="M1460 859 c0 -5 5 -7 10 -4 6 3 10 8 10 11 0 2 -4 4 -10 4 -5 0 -10
-5 -10 -11z"/>
<path d="M1408 823 c7 -3 16 -2 19 1 4 3 -2 6 -13 5 -11 0 -14 -3 -6 -6z"/>
<path d="M1380 769 c0 -5 5 -7 10 -4 6 3 10 8 10 11 0 2 -4 4 -10 4 -5 0 -10
-5 -10 -11z"/>
<path d="M770 666 c0 -2 8 -10 18 -17 15 -13 16 -12 3 4 -13 16 -21 21 -21 13z"/>
<path d="M1128 643 c6 -2 18 -2 25 0 6 3 1 5 -13 5 -14 0 -19 -2 -12 -5z"/>
<path d="M1812 1208 c-7 -7 -12 -21 -11 -32 1 -18 2 -17 8 4 4 15 14 24 24 24
9 -1 14 2 11 7 -7 12 -18 11 -32 -3z"/>
<path d="M1914 1174 c-18 -14 -18 -14 6 -3 31 14 36 19 24 19 -6 0 -19 -7 -30
-16z"/>
<path d="M1935 1138 c-16 -11 -21 -17 -10 -13 89 33 91 34 65 34 -14 0 -38
-10 -55 -21z"/>
<path d="M1980 1116 c0 -2 9 -6 20 -9 11 -3 20 -1 20 4 0 5 -9 9 -20 9 -11 0
-20 -2 -20 -4z"/>
<path d="M1866 1091 c-4 -5 3 -7 14 -4 23 6 26 13 6 13 -8 0 -17 -4 -20 -9z"/>
<path d="M1930 1089 c0 -5 5 -7 10 -4 6 3 10 8 10 11 0 2 -4 4 -10 4 -5 0 -10
-5 -10 -11z"/>
<path d="M1955 1055 c-32 -20 -66 -35 -74 -34 -9 1 -25 -2 -35 -6 -14 -6 -24
-2 -38 14 -10 13 -18 19 -18 14 0 -6 8 -17 18 -26 24 -22 92 -10 143 24 20 13
45 29 55 36 45 28 3 10 -51 -22z"/>
<path d="M448 1033 c12 -2 30 -2 40 0 9 3 -1 5 -23 4 -22 0 -30 -2 -17 -4z"/>
<path d="M371 1004 c-17 -14 -31 -30 -31 -34 0 -5 13 5 30 21 22 23 36 29 52
24 18 -5 20 -4 8 4 -21 15 -25 14 -59 -15z"/>
<path d="M333 894 c1 -60 1 -61 21 -42 11 10 28 18 38 18 15 0 16 3 6 13 -10
12 -15 10 -29 -7 -20 -24 -25 -16 -32 44 -2 19 -4 8 -4 -26z"/>
<path d="M415 850 c-3 -6 1 -7 9 -4 18 7 21 14 7 14 -6 0 -13 -4 -16 -10z"/>
<path d="M463 839 c14 -8 16 -18 12 -47 -5 -27 -4 -33 4 -22 9 12 11 12 16 -2
12 -29 1 -53 -23 -52 -15 0 -19 -3 -13 -9 17 -17 -7 -39 -30 -27 -15 8 -17 7
-13 -5 10 -25 -42 -19 -60 7 -22 31 -30 82 -17 107 7 12 8 21 2 21 -16 0 -23
-58 -11 -95 6 -19 23 -43 36 -54 23 -18 27 -19 62 -4 20 8 47 25 59 37 23 22
31 70 13 81 -5 3 -10 16 -10 29 0 23 -17 46 -34 46 -6 0 -3 -5 7 -11z"/>
<path d="M1664 624 c-18 -15 -18 -15 3 -5 32 16 74 13 97 -6 21 -18 21 -18 2
5 -23 26 -73 30 -102 6z"/>
<path d="M1793 515 c0 -27 2 -38 4 -22 2 15 2 37 0 50 -2 12 -4 0 -4 -28z"/>
<path d="M1548 533 c7 -3 16 -2 19 1 4 3 -2 6 -13 5 -11 0 -14 -3 -6 -6z"/>
<path d="M1595 520 c27 -12 43 -12 25 0 -8 5 -22 9 -30 9 -10 0 -8 -3 5 -9z"/>
<path d="M1600 290 c-24 -15 38 -33 97 -27 62 6 82 15 62 28 -19 12 -140 11
-159 -1z"/>
</g>
</svg>
