<?xml version="1.0" standalone="no"?>
<!DOCTYPE svg PUBLIC "-//W3C//DTD SVG 20010904//EN"
 "http://www.w3.org/TR/2001/REC-SVG-20010904/DTD/svg10.dtd">
<svg version="1.0" xmlns="http://www.w3.org/2000/svg"
 width="168.000000pt" height="236.000000pt" viewBox="0 0 168.000000 236.000000"
 preserveAspectRatio="xMidYMid meet">

<g transform="translate(0.000000,236.000000) scale(0.100000,-0.100000)"
fill="#000000" stroke="none">
<path d="M505 2205 c-54 -17 -33 -18 30 -1 28 8 41 14 30 14 -11 0 -38 -5 -60
-13z"/>
<path d="M430 2180 c-8 -5 -10 -10 -5 -10 6 0 17 5 25 10 8 5 11 10 5 10 -5 0
-17 -5 -25 -10z"/>
<path d="M563 2153 c-13 -2 -23 -9 -23 -14 0 -5 -5 -9 -11 -9 -5 0 -7 5 -3 11
4 7 -3 6 -17 -2 -21 -11 -22 -14 -6 -17 10 -2 33 3 52 12 44 21 50 20 70 -10
14 -21 14 -28 3 -41 -11 -14 -11 -15 2 -11 22 7 24 34 3 62 -18 25 -27 27 -70
19z"/>
<path d="M429 2118 c10 -14 16 -15 31 -5 11 6 17 13 15 16 -3 2 -11 -1 -18 -7
-10 -9 -17 -8 -27 1 -12 10 -12 9 -1 -5z"/>
<path d="M444 2055 c1 -12 9 -21 21 -22 14 -1 15 0 3 3 -9 3 -19 13 -21 22 -3
12 -4 11 -3 -3z"/>
<path d="M482 1900 c0 -19 2 -27 5 -17 2 9 2 25 0 35 -3 9 -5 1 -5 -18z"/>
<path d="M585 1891 c-48 -14 -61 -22 -63 -40 -2 -13 6 -91 18 -173 15 -102 20
-168 16 -206 -4 -32 -10 -78 -13 -103 -3 -34 6 -86 36 -200 22 -85 58 -226 81
-314 84 -328 88 -335 168 -335 47 0 201 38 240 59 62 33 65 64 21 235 -17 67
-33 122 -34 124 -1 1 -33 -9 -71 -23 -65 -25 -235 -68 -241 -61 -6 5 -113 404
-113 418 0 8 31 20 83 32 45 10 114 31 154 48 l72 29 -20 47 c-11 26 -38 65
-59 87 -34 35 -90 138 -90 165 0 18 19 10 25 -11 4 -11 9 -19 11 -16 2 2 -4
24 -15 48 -14 31 -20 38 -20 22 -1 -17 -10 -23 -49 -32 -78 -16 -152 10 -152
55 0 23 50 72 90 88 40 16 44 29 17 64 -12 15 -18 15 -92 -7z m67 -221 l43 -9
-44 3 c-24 3 -49 10 -55 17 -8 9 -8 10 1 5 7 -4 32 -11 55 -16z m-61 -233 c-7
-23 -16 -60 -21 -82 l-9 -40 4 45 c2 25 7 72 11 105 6 52 8 57 17 37 8 -17 7
-35 -2 -65z m23 -282 c5 -19 4 -26 -2 -20 -5 6 -12 26 -16 45 -7 41 8 21 18
-25z m475 -400 l0 -20 -8 20 c-4 11 -11 34 -14 50 l-6 30 14 -30 c8 -16 14
-39 14 -50z m-240 -221 c10 -9 -45 -3 -59 6 -11 7 -5 8 20 4 19 -4 37 -8 39
-10z"/>
<path d="M492 1815 c0 -16 2 -22 5 -12 2 9 2 23 0 30 -3 6 -5 -1 -5 -18z"/>
<path d="M750 1785 c0 -5 5 -17 10 -25 5 -8 10 -10 10 -5 0 6 -5 17 -10 25 -5
8 -10 11 -10 5z"/>
<path d="M502 1750 c0 -14 2 -19 5 -12 2 6 2 18 0 25 -3 6 -5 1 -5 -13z"/>
<path d="M512 1690 c0 -19 2 -27 5 -17 2 9 2 25 0 35 -3 9 -5 1 -5 -18z"/>
<path d="M523 1555 c0 -49 -3 -125 -8 -167 -6 -60 -4 -92 10 -148 10 -39 19
-69 22 -67 2 3 -3 32 -11 65 -19 71 -20 145 -5 221 8 39 9 75 2 121 l-10 65 0
-90z"/>
<path d="M810 1637 c0 -16 39 -83 60 -102 33 -29 80 -105 80 -130 0 -12 4 -25
9 -30 5 -6 11 -17 14 -25 2 -8 3 -2 1 14 -7 48 -49 131 -92 178 -21 24 -46 57
-55 73 -9 17 -16 26 -17 22z"/>
<path d="M1201 1281 c-8 -6 -9 -11 -3 -15 6 -3 14 -1 17 5 9 14 2 20 -14 10z"/>
<path d="M1276 1271 c-3 -5 1 -11 9 -14 9 -4 12 -1 8 9 -6 16 -10 17 -17 5z"/>
<path d="M1229 1253 c-13 -16 -12 -17 4 -4 9 7 17 15 17 17 0 8 -8 3 -21 -13z"/>
<path d="M850 1245 c0 -8 5 -15 10 -15 6 0 10 7 10 15 0 8 -4 15 -10 15 -5 0
-10 -7 -10 -15z"/>
<path d="M897 1223 c-14 -13 -6 -33 22 -62 27 -27 29 -28 34 -10 10 39 -33 95
-56 72z"/>
<path d="M670 1200 c0 -11 5 -20 10 -20 6 0 10 9 10 20 0 11 -4 20 -10 20 -5
0 -10 -9 -10 -20z"/>
<path d="M720 1175 c-15 -18 -6 -46 26 -76 25 -24 26 -24 40 -4 13 17 13 21
-1 31 -8 6 -13 18 -9 27 3 10 -2 20 -15 26 -25 14 -26 14 -41 -4z"/>
<path d="M1260 1179 c0 -5 5 -7 10 -4 6 3 10 8 10 11 0 2 -4 4 -10 4 -5 0 -10
-5 -10 -11z"/>
<path d="M1250 1149 c0 -5 5 -7 10 -4 6 3 10 8 10 11 0 2 -4 4 -10 4 -5 0 -10
-5 -10 -11z"/>
<path d="M317 1113 c-4 -3 -7 -21 -7 -40 0 -33 -14 -45 -23 -20 -4 9 -6 9 -6
0 -1 -6 4 -15 9 -18 6 -3 10 -15 10 -25 0 -10 4 -21 8 -24 5 -3 6 8 4 25 -2
16 0 29 5 29 6 0 14 80 7 80 0 0 -4 -3 -7 -7z"/>
<path d="M350 1078 c0 -23 3 -38 6 -35 10 9 11 77 2 77 -5 0 -8 -19 -8 -42z"/>
<path d="M420 1089 c0 -5 12 -9 26 -9 33 0 29 -32 -5 -40 -17 -4 -28 -17 -37
-45 -12 -36 -12 -38 1 -21 8 11 15 26 15 33 0 8 14 19 31 25 39 13 37 48 -3
59 -16 4 -28 3 -28 -2z"/>
<path d="M1169 1083 c-13 -16 -12 -17 4 -4 9 7 17 15 17 17 0 8 -8 3 -21 -13z"/>
<path d="M968 1073 c-9 -10 -13 -24 -11 -30 3 -7 -8 -18 -23 -23 -32 -13 -75
-10 -74 5 2 9 -25 23 -48 24 -17 1 9 -50 40 -79 25 -23 38 -26 38 -6 0 21 52
28 67 9 19 -24 32 -6 26 36 -3 21 0 48 6 60 14 25 0 28 -21 4z"/>
<path d="M1130 1060 c-9 -6 -10 -10 -3 -10 6 0 15 5 18 10 8 12 4 12 -15 0z"/>
<path d="M1050 1040 c0 -5 5 -10 10 -10 6 0 10 5 10 10 0 6 -4 10 -10 10 -5 0
-10 -4 -10 -10z"/>
<path d="M1145 1015 c-16 -8 -23 -14 -15 -14 8 0 26 6 40 14 32 18 15 18 -25
0z"/>
<path d="M1068 975 c2 -19 8 -37 12 -40 11 -7 5 54 -7 66 -5 5 -7 -4 -5 -26z"/>
<path d="M337 939 c27 -46 63 -79 87 -79 17 0 18 2 6 9 -8 6 -17 8 -21 6 -9
-6 -54 43 -47 51 6 6 -27 44 -38 44 -3 0 3 -14 13 -31z"/>
<path d="M600 951 c0 -5 -8 -12 -17 -14 -14 -4 -12 -5 5 -6 13 -1 22 5 22 14
0 8 -2 15 -5 15 -3 0 -5 -4 -5 -9z"/>
<path d="M602 895 c-11 -12 -10 -15 3 -15 8 0 15 7 15 15 0 18 -2 18 -18 0z"/>
<path d="M508 863 c6 -2 18 -2 25 0 6 3 1 5 -13 5 -14 0 -19 -2 -12 -5z"/>
<path d="M1146 630 c-5 -31 -14 -45 -39 -60 -50 -32 -185 -70 -265 -77 -87 -7
-102 3 -128 83 -9 30 -19 52 -22 50 -8 -9 28 -100 50 -123 12 -13 30 -23 40
-23 12 0 18 -7 18 -25 0 -40 -21 -73 -57 -90 -39 -19 -61 -14 -116 26 -57 42
-97 36 -125 -18 -15 -27 -15 -110 -1 -152 8 -23 8 -35 -1 -46 -17 -20 14 -33
98 -41 82 -8 172 2 198 21 30 21 6 35 -80 47 l-76 11 0 39 0 38 55 0 c98 0
158 42 170 119 13 77 15 81 39 81 13 0 59 11 101 25 91 30 115 25 165 -32 17
-18 30 -28 30 -22 0 7 -20 32 -44 55 -38 36 -43 44 -30 55 33 28 146 -108 148
-178 1 -18 1 -33 2 -33 0 0 11 15 24 33 13 17 17 26 8 19 -14 -11 -19 -6 -41
42 -14 30 -45 76 -68 101 -36 39 -43 53 -40 81 4 47 -5 43 -13 -6z m-286 -182
c-1 -47 -30 -99 -69 -125 -27 -18 -48 -23 -100 -23 l-66 0 3 -43 c3 -33 -1
-47 -17 -61 -26 -24 -68 -24 -86 0 -18 25 -29 95 -21 137 14 76 56 89 126 38
48 -35 85 -39 131 -15 31 15 59 66 59 104 0 13 7 20 20 20 16 0 20 -7 20 -32z"/>
<path d="M1202 410 c0 -19 2 -27 5 -17 2 9 2 25 0 35 -3 9 -5 1 -5 -18z"/>
<path d="M1356 421 c-4 -5 3 -7 13 -4 27 7 60 -13 67 -41 17 -68 -113 -144
-190 -112 -28 12 -35 21 -39 48 l-4 33 -1 -32 c-3 -43 30 -73 78 -73 76 0 170
70 170 127 0 40 -76 83 -94 54z"/>
<path d="M1232 191 c-76 -20 -58 -42 43 -55 51 -7 152 7 168 23 26 26 -138 50
-211 32z"/>
</g>
</svg>
