<svg xmlns="http://www.w3.org/2000/svg" width="294" height="294" viewBox="0 0 294 294" fill="none">
  <!-- Chip 1: Single bold tortilla chip, sketch-style -->
  <!-- Main chip triangle (slightly rounded, hand-drawn) -->
  <path d="M 147 42 C 152 40 158 44 162 52 C 178 82 210 138 236 188 C 242 200 238 212 228 216 C 222 218 215 215 208 210 C 186 196 162 185 147 182 C 132 185 108 196 86 210 C 79 215 72 218 66 216 C 56 212 52 200 58 188 C 84 138 116 82 132 52 C 136 44 142 40 147 42 Z" fill="#EED03A"/>
  <!-- Chip texture - parallel diagonal lines -->
  <path d="M 110 90 C 125 88 142 88 158 90" stroke="#C9A820" stroke-width="2" stroke-linecap="round" fill="none"/>
  <path d="M 97 112 C 115 108 142 107 162 110" stroke="#C9A820" stroke-width="2" stroke-linecap="round" fill="none"/>
  <path d="M 87 135 C 108 130 142 128 168 131" stroke="#C9A820" stroke-width="2" stroke-linecap="round" fill="none"/>
  <path d="M 79 158 C 104 152 142 150 176 154" stroke="#C9A820" stroke-width="2" stroke-linecap="round" fill="none"/>
  <path d="M 73 180 C 100 174 142 172 186 176" stroke="#C9A820" stroke-width="2" stroke-linecap="round" fill="none"/>
  <!-- Chip edge sketch (slight double-edge for hand-drawn feel) -->
  <path d="M 147 42 C 152 40 158 44 162 52 C 178 82 210 138 236 188 C 242 200 238 212 228 216" stroke="#C9A820" stroke-width="2.5" stroke-linecap="round" fill="none"/>
  <path d="M 147 42 C 142 40 136 44 132 52 C 116 82 84 138 58 188 C 52 200 56 212 66 216" stroke="#C9A820" stroke-width="2.5" stroke-linecap="round" fill="none"/>
  <!-- Bottom edge -->
  <path d="M 66 216 C 86 210 115 205 147 204 C 179 205 208 210 228 216" stroke="#C9A820" stroke-width="2.5" stroke-linecap="round" fill="none"/>
  <!-- Salt specks -->
  <rect x="118" y="102" width="5" height="3" rx="1" fill="white" opacity="0.7" transform="rotate(-15 118 102)"/>
  <rect x="155" y="118" width="4" height="3" rx="1" fill="white" opacity="0.7" transform="rotate(10 155 118)"/>
  <rect x="100" y="145" width="5" height="3" rx="1" fill="white" opacity="0.7" transform="rotate(-5 100 145)"/>
  <rect x="168" y="148" width="4" height="3" rx="1" fill="white" opacity="0.7" transform="rotate(20 168 148)"/>
  <rect x="132" y="170" width="5" height="3" rx="1" fill="white" opacity="0.7" transform="rotate(-10 132 170)"/>
  <rect x="165" y="172" width="4" height="3" rx="1" fill="white" opacity="0.7" transform="rotate(8 165 172)"/>
  <!-- Highlight streak -->
  <path d="M 130 65 C 125 88 118 115 112 140" stroke="white" stroke-width="6" stroke-linecap="round" fill="none" opacity="0.35"/>
</svg>
