<?xml version="1.0" standalone="no"?>
<!DOCTYPE svg PUBLIC "-//W3C//DTD SVG 20010904//EN"
 "http://www.w3.org/TR/2001/REC-SVG-20010904/DTD/svg10.dtd">
<svg version="1.0" xmlns="http://www.w3.org/2000/svg"
 width="1178.000000pt" height="1163.000000pt" viewBox="0 0 1178.000000 1163.000000"
 preserveAspectRatio="xMidYMid meet">

<g transform="translate(0.000000,1163.000000) scale(0.100000,-0.100000)"
fill="#000000" stroke="none">
<path d="M5858 9334 c-5 -4 -8 -33 -8 -65 l0 -58 37 25 c24 16 48 24 68 22 30
-3 30 -3 30 -63 -1 -33 -5 -115 -9 -182 l-9 -123 52 0 51 0 0 158 c0 196 2
202 47 202 26 0 42 -8 63 -30 15 -16 31 -30 34 -30 3 0 6 29 6 64 0 53 -3 66
-17 70 -32 9 -338 18 -345 10z"/>
<path d="M5585 9317 c-3 -7 4 -48 15 -91 25 -97 26 -146 5 -146 -19 0 -82 65
-143 147 -50 69 -67 78 -118 68 -33 -6 -34 -7 -34 -52 0 -50 27 -333 35 -370
4 -19 12 -23 43 -23 64 0 68 7 49 94 -34 154 -12 189 60 99 122 -150 168 -182
207 -143 26 26 25 87 -5 261 -28 164 -30 169 -74 169 -20 0 -38 -6 -40 -13z"/>
<path d="M6381 9243 c-5 -26 -25 -121 -42 -211 -36 -182 -36 -182 34 -182 20
0 37 2 37 4 0 2 11 71 25 152 13 82 25 178 27 214 l3 65 -37 3 c-36 3 -36 3
-47 -45z"/>
<path d="M6635 9168 c-59 -158 -115 -330 -110 -339 3 -4 24 -14 46 -21 47 -13
55 -7 65 52 10 60 36 139 49 150 21 17 41 -22 66 -127 27 -115 52 -157 95
-161 41 -4 53 16 98 159 59 193 69 240 54 254 -18 17 -66 27 -73 15 -3 -5 -12
-44 -20 -87 -17 -98 -30 -133 -50 -133 -21 0 -40 48 -67 171 -24 108 -35 123
-95 135 -30 6 -30 5 -58 -68z"/>
<path d="M4923 9186 c-47 -16 -52 -25 -63 -107 -14 -107 -13 -379 1 -379 7 0
29 5 50 12 l39 11 -3 55 c-2 53 -1 56 31 75 20 12 53 20 85 21 50 1 52 0 72
-36 11 -21 25 -38 30 -38 28 0 85 22 85 33 -1 28 -253 349 -284 360 -6 2 -25
-1 -43 -7z m99 -189 l32 -50 -23 -18 c-13 -11 -36 -19 -51 -19 -23 0 -29 5
-34 31 -8 42 -8 124 1 132 10 10 38 -19 75 -76z"/>
<path d="M4459 8994 c-111 -34 -182 -145 -159 -249 30 -135 127 -219 234 -202
52 8 123 46 174 93 l47 43 -30 55 c-16 31 -33 56 -37 56 -4 0 -13 -21 -20 -47
-26 -93 -138 -143 -208 -93 -63 45 -91 170 -50 222 35 45 112 60 173 34 23
-11 22 7 -3 62 -22 48 -39 52 -121 26z"/>
<path d="M7270 8944 c-80 -63 -270 -235 -280 -254 -8 -15 -4 -22 26 -39 47
-28 56 -27 77 9 10 16 29 33 42 36 28 7 104 -28 136 -62 22 -23 21 -29 -6 -95
-4 -12 4 -23 30 -39 19 -12 41 -20 49 -17 22 9 66 265 66 387 0 73 -1 75 -31
93 -42 24 -57 21 -109 -19z m52 -123 c-5 -57 -26 -115 -43 -119 -18 -3 -79 34
-79 48 0 17 102 121 114 117 6 -2 10 -22 8 -46z"/>
<path d="M2985 7699 c-214 -7 -265 -14 -281 -41 -14 -22 -32 -447 -45 -1042
l-13 -569 26 -22 c23 -19 43 -24 133 -30 123 -9 220 0 254 22 21 14 23 20 18
81 -3 37 -16 121 -30 187 -48 229 -46 335 10 356 13 5 63 9 111 9 48 0 132 7
187 15 359 51 606 214 685 450 27 83 29 210 4 276 -70 182 -276 286 -609 309
-77 5 -160 9 -185 8 -25 -1 -144 -5 -265 -9z m568 -299 c157 -49 204 -165 123
-304 -68 -116 -238 -190 -463 -203 -137 -7 -168 2 -183 56 -13 47 -13 355 0
402 20 71 53 79 290 74 135 -2 177 -7 233 -25z"/>
<path d="M4400 7691 c-69 -3 -135 -12 -146 -18 -18 -10 -23 -25 -28 -80 -18
-211 -46 -1039 -46 -1390 0 -146 2 -165 19 -182 17 -17 46 -19 426 -26 439 -8
958 1 989 17 18 10 18 19 12 162 -10 221 -26 389 -38 403 -6 7 -23 13 -38 13
-24 0 -34 -9 -60 -54 -104 -182 -240 -247 -520 -249 -194 -1 -283 22 -365 95
-50 43 -75 98 -82 176 -10 127 32 203 135 243 50 20 74 23 197 22 160 -1 250
-18 332 -64 59 -33 88 -37 97 -13 12 33 6 269 -7 288 -17 23 -24 23 -269 7
-368 -23 -478 18 -478 178 0 63 1 65 44 107 78 74 225 104 428 85 220 -21 328
-71 424 -196 28 -37 63 -46 83 -21 9 11 10 66 6 208 -8 227 -15 264 -53 280
-31 12 -855 20 -1062 9z"/>
<path d="M5865 7690 c-98 -7 -120 -13 -130 -38 -3 -9 -9 -116 -12 -237 -5
-194 -4 -222 10 -233 24 -20 53 -6 93 46 70 92 185 156 303 168 78 9 113 -10
137 -71 18 -48 14 -172 -27 -950 -5 -99 -9 -217 -9 -262 0 -114 2 -115 208
-117 138 -1 161 1 186 18 l29 18 -7 182 c-4 99 -11 242 -16 316 -17 258 -34
755 -26 784 4 16 21 42 37 59 29 29 33 30 97 24 128 -11 235 -69 305 -166 39
-54 69 -70 94 -49 14 11 15 38 9 238 -8 281 4 262 -174 271 -155 9 -982 8
-1107 -1z"/>
<path d="M7352 7688 c-25 -5 -48 -18 -56 -31 -17 -26 -33 -453 -42 -1159 -5
-388 -4 -456 8 -472 12 -15 36 -21 121 -29 141 -13 223 -2 250 35 20 27 20 32
8 575 -18 834 -27 1032 -47 1055 -33 36 -144 48 -242 26z"/>
<path d="M7893 7691 c-78 -5 -106 -10 -120 -23 -15 -15 -18 -48 -25 -225 -8
-221 -5 -258 18 -267 21 -8 60 13 75 41 35 64 151 141 256 168 108 28 156 16
190 -48 19 -37 20 -132 3 -442 -5 -104 -17 -338 -26 -520 l-16 -329 25 -22
c21 -18 43 -23 141 -29 137 -8 206 -1 241 27 26 20 26 22 20 122 -6 108 -28
540 -45 903 -12 236 -7 286 30 323 29 29 65 34 142 22 118 -18 185 -63 295
-196 26 -32 48 -33 66 -3 10 17 12 69 7 239 -4 189 -7 220 -23 235 -14 14 -43
19 -145 24 -151 9 -963 8 -1109 0z"/>
<path d="M2021 6270 c-2 -43 -50 -210 -77 -264 -54 -109 -132 -160 -318 -206
l-109 -27 108 -26 c238 -58 314 -131 370 -354 13 -54 26 -107 27 -118 2 -11
14 25 27 80 59 253 134 329 387 392 l109 27 -60 13 c-286 60 -366 131 -426
378 -12 50 -25 99 -30 110 -7 18 -8 18 -8 -5z"/>
<path d="M9758 6270 c-3 -8 -15 -55 -27 -105 -49 -204 -124 -293 -285 -342
-28 -9 -84 -23 -125 -32 l-74 -17 106 -26 c191 -47 270 -98 325 -210 29 -62
72 -207 72 -248 0 -11 5 -20 10 -20 6 0 10 10 10 23 0 12 11 62 24 111 61 220
130 284 372 343 l108 26 -110 27 c-139 35 -191 57 -248 111 -67 61 -109 162
-149 354 -3 15 -5 16 -9 5z"/>
<path d="M6585 5620 c-354 -54 -591 -286 -677 -664 -28 -121 -30 -343 -4 -465
82 -385 360 -581 826 -581 243 0 547 59 601 117 23 23 24 31 21 146 -4 238
-13 324 -33 343 -29 26 -60 10 -94 -47 -104 -177 -281 -258 -540 -247 -100 5
-120 9 -184 38 -200 92 -286 320 -235 621 31 185 128 335 258 399 80 40 150
50 258 39 172 -17 277 -83 375 -236 34 -54 67 -69 91 -40 10 12 31 241 33 366
2 57 -1 67 -23 86 -30 26 -209 87 -323 110 -97 20 -268 27 -350 15z"/>
<path d="M8115 5614 c-300 -57 -518 -263 -609 -576 -73 -251 -54 -576 44 -767
121 -237 368 -361 720 -361 482 0 752 211 809 633 55 402 -99 801 -372 966
-169 102 -396 142 -592 105z m275 -320 c146 -43 251 -174 301 -374 19 -73 21
-103 16 -229 -5 -155 -17 -202 -71 -295 -75 -128 -251 -195 -439 -169 -171 24
-282 120 -333 288 -26 85 -26 332 0 425 77 280 291 424 526 354z"/>
<path d="M2824 5613 c-132 -5 -127 4 -136 -252 -4 -113 -5 -216 -3 -228 3 -12
14 -27 25 -33 22 -12 16 -17 119 94 79 84 235 141 336 122 26 -5 41 -16 55
-39 25 -40 26 -163 5 -562 -8 -154 -19 -385 -26 -514 -14 -297 -28 -275 177
-279 172 -5 209 1 229 32 16 25 17 0 -15 596 -23 426 -30 646 -20 685 5 23 21
50 37 64 25 22 33 23 105 18 127 -8 235 -69 298 -167 26 -41 37 -50 61 -50 17
0 32 7 37 18 5 9 6 115 3 234 -6 209 -7 218 -29 240 l-22 23 -573 1 c-314 0
-613 -1 -663 -3z"/>
<path d="M4853 5611 c-18 -5 -40 -15 -50 -22 -38 -32 -247 -508 -366 -834
-122 -336 -247 -736 -247 -790 0 -37 56 -47 233 -43 127 3 150 6 161 20 7 10
16 57 19 105 12 183 40 240 139 284 49 22 66 23 243 24 215 0 268 -11 329 -68
39 -37 55 -98 65 -244 4 -54 11 -97 19 -105 17 -17 325 -24 366 -8 27 10 28
13 23 53 -12 85 -174 591 -280 872 -138 367 -301 726 -339 746 -26 14 -269 22
-315 10z m174 -447 c23 -35 104 -284 139 -427 27 -111 27 -116 10 -142 -27
-41 -73 -55 -184 -55 -82 0 -105 4 -142 23 -41 20 -45 26 -48 62 -5 53 29 190
103 425 43 135 83 172 122 114z"/>
<path d="M4097 3118 c-89 -98 -197 -234 -197 -247 0 -11 58 -61 70 -61 5 0 35
37 68 83 71 97 112 139 112 114 0 -9 -9 -51 -21 -92 -31 -116 -17 -167 42
-152 13 3 59 29 102 58 43 28 81 49 84 45 7 -7 -41 -88 -94 -158 -23 -31 -43
-63 -43 -71 0 -18 65 -61 79 -52 12 7 145 217 192 302 32 59 33 62 16 81 -10
10 -33 27 -51 37 l-34 18 -88 -66 c-91 -68 -124 -81 -124 -49 0 9 14 63 31
119 32 102 32 103 13 124 -17 19 -65 49 -78 49 -2 0 -38 -37 -79 -82z"/>
<path d="M7495 3110 c-66 -49 -121 -94 -123 -100 -6 -16 229 -360 245 -360 8
0 127 85 220 158 48 38 80 69 76 76 -19 31 -88 104 -95 100 -4 -3 -8 -21 -8
-41 0 -64 -92 -153 -159 -153 -32 0 -71 39 -71 71 0 26 54 75 105 94 25 10 45
21 45 25 0 10 -45 50 -57 50 -6 0 -17 -8 -24 -17 -28 -33 -93 -73 -120 -73
-22 0 -30 6 -35 25 -14 56 84 135 168 135 26 0 48 3 48 6 0 11 -75 94 -85 94
-5 -1 -64 -41 -130 -90z"/>
<path d="M7213 2920 c-18 -11 -33 -23 -33 -26 0 -4 10 -21 23 -38 44 -59 87
-136 87 -156 0 -32 -30 -24 -121 31 -46 28 -99 60 -117 71 -32 20 -34 20 -73
3 -22 -10 -39 -25 -39 -34 0 -18 153 -355 171 -377 9 -11 17 -11 47 2 20 8 39
20 43 26 4 6 -15 47 -42 92 -71 118 -63 155 23 103 176 -106 199 -115 235 -92
36 24 29 66 -33 189 -63 125 -122 226 -132 226 -4 0 -22 -9 -39 -20z"/>
<path d="M4549 2696 c-49 -102 -89 -189 -89 -194 0 -15 34 -33 188 -102 135
-60 145 -63 157 -47 18 24 48 118 40 125 -3 3 -19 -2 -34 -11 -36 -21 -66 -21
-122 -2 -85 30 -120 90 -83 143 26 37 99 23 158 -32 15 -15 29 -26 31 -24 1 2
10 18 19 36 l17 32 -48 21 c-98 42 -113 52 -119 75 -14 54 49 71 121 33 50
-27 85 -58 96 -86 13 -35 24 -28 47 30 l20 52 -21 15 c-32 23 -250 120 -270
120 -14 0 -40 -45 -108 -184z"/>
<path d="M6747 2718 c-17 -13 -15 -24 43 -208 34 -107 67 -200 73 -207 9 -8
20 -8 47 1 54 17 51 30 -64 331 -28 75 -38 90 -57 93 -13 2 -32 -3 -42 -10z"/>
<path d="M5077 2693 c-13 -12 -7 -93 8 -131 9 -20 25 -46 36 -58 l20 -21 -58
-29 c-62 -31 -108 -86 -119 -143 -6 -27 -3 -32 20 -41 43 -16 74 -12 81 10 3
10 26 46 51 80 71 97 103 79 112 -66 5 -82 5 -83 35 -94 65 -22 77 -12 77 71
0 57 -16 101 -53 145 l-27 32 31 13 c46 19 87 56 109 100 26 51 25 55 -11 68
-53 18 -63 14 -92 -43 -31 -59 -66 -90 -91 -80 -20 8 -36 65 -36 127 0 42 -3
49 -26 57 -29 12 -58 13 -67 3z"/>
<path d="M6404 2629 c-34 -10 -32 -4 -74 -194 -14 -62 -34 -264 -27 -271 3 -4
27 -3 52 0 l45 7 0 48 c0 68 21 84 108 85 l67 1 20 -43 c19 -43 21 -44 59 -39
55 8 61 18 37 66 -37 72 -143 244 -184 299 -40 53 -49 57 -103 41z m84 -168
c17 -32 32 -66 32 -74 0 -21 -34 -39 -68 -35 -22 2 -28 9 -30 33 -6 48 8 135
21 135 7 0 27 -26 45 -59z"/>
<path d="M5547 2587 c-13 -36 -59 -409 -51 -416 14 -14 68 -22 82 -13 13 9 58
402 48 428 -7 18 -72 19 -79 1z"/>
<path d="M5897 2576 c-59 -16 -111 -64 -134 -125 -24 -61 -23 -163 2 -214 37
-78 141 -116 263 -97 97 16 102 20 102 90 0 68 -11 81 -35 44 -25 -39 -98 -67
-150 -60 -71 11 -105 57 -105 143 0 145 133 202 230 98 l25 -27 6 24 c4 13 7
40 8 61 1 34 -3 39 -31 51 -52 21 -128 26 -181 12z"/>
</g>
</svg>
