<svg xmlns="http://www.w3.org/2000/svg" width="294" height="294" viewBox="0 0 294 294" fill="none">
  <!-- Taco 1: Classic side-view sketch taco -->
  <!-- Shell outer -->
  <path d="M 55 180 C 48 160 42 130 45 105 C 48 80 58 62 70 55 C 82 48 95 52 100 58 C 105 52 118 46 132 52 C 146 58 158 75 161 100 C 164 125 158 158 150 180 Z" fill="#EED03A"/>
  <!-- Shell texture lines -->
  <path d="M 68 170 C 63 148 60 120 64 98 C 68 76 78 64 88 62" stroke="#C9A820" stroke-width="2.5" stroke-linecap="round" fill="none"/>
  <path d="M 137 168 C 142 146 144 118 141 96 C 138 74 128 62 118 60" stroke="#C9A820" stroke-width="2.5" stroke-linecap="round" fill="none"/>
  <!-- Shell fold line -->
  <path d="M 100 58 C 100 80 100 120 100 160" stroke="#C9A820" stroke-width="2" stroke-linecap="round" fill="none" stroke-dasharray="4 4"/>
  <!-- Meat filling (red) -->
  <path d="M 72 95 C 78 82 90 76 100 78 C 110 76 122 82 128 95 C 122 100 110 102 100 101 C 90 102 78 100 72 95 Z" fill="#FC3845"/>
  <!-- Lettuce (wavy green shape) -->
  <path d="M 65 108 C 70 98 76 93 82 94 C 86 88 92 84 98 86 C 102 84 106 85 110 89 C 116 85 122 86 127 94 C 133 92 138 97 138 105 C 132 112 120 116 105 117 C 90 118 75 115 65 108 Z" fill="#5A8A3C"/>
  <!-- Cheese dots -->
  <circle cx="90" cy="90" r="5" fill="#F5C842"/>
  <circle cx="108" cy="88" r="4" fill="#F5C842"/>
  <circle cx="118" cy="93" r="5" fill="#F5C842"/>
  <!-- Tomato bits -->
  <circle cx="82" cy="105" r="4" fill="#FF4444"/>
  <circle cx="115" cy="104" r="4" fill="#FF4444"/>
  <!-- Shell rim highlight -->
  <path d="M 56 178 C 75 182 115 185 150 178" stroke="#F0B800" stroke-width="3" stroke-linecap="round" fill="none"/>
  <!-- Hand-drawn wobble on shell edge -->
  <path d="M 55 180 C 53 185 58 188 65 186 C 80 183 100 182 120 183 C 135 184 148 186 150 180" stroke="#C9A820" stroke-width="2" stroke-linecap="round" fill="none"/>
</svg>
