<svg xmlns="http://www.w3.org/2000/svg" width="218" height="204" viewBox="0 0 218 204" fill="none"><path fill-rule="evenodd" clip-rule="evenodd" d="M113.434 17.219C119.543 8.67958 128.195 -3.87022 137.381 1.1481C139.434 2.53497 141.742 3.85396 144.236 4.85358L143.915 4.66992C145.626 4.77632 146.202 4.89213 147.402 6.23722C145.262 18.1503 143.731 24.9281 140.373 33.2963C152.092 23.7979 157.794 9.56175 164.783 13.7703C178.052 21.5685 175.505 27.7849 168.221 36.0988C169.93 37.3082 172.118 39.1981 174.452 41.6368C175.284 40.5818 176.049 39.2752 177.158 38.1461C181.717 31.123 194.518 44.5824 192.551 48.7086C191.53 51.186 190.261 53.7541 188.477 56.435C195.663 55.0793 199.399 56.5559 200.354 68.4753C201.31 80.3946 176.426 70.9947 171.811 87.1697C173.657 87.7791 175.045 88.8048 176.359 89.5562C188.683 80.1902 196.173 69.5919 204.124 85.7426C205.807 88.8941 202.985 94.0815 199.006 99.0144C212.172 94.9351 217.621 95.4151 217.967 116.634C218.079 120.205 214.96 121.038 211.751 121.626C212.346 127.003 210.882 134.032 204.762 136.23C192.836 140.786 180.946 142.321 168.426 141.5C168.035 142.167 167.848 142.487 167.661 142.806C168.144 144.612 169.155 147.38 170.905 150.783C171.919 152.447 171.406 154.789 169.721 155.802C168.036 156.816 165.609 156.067 164.596 154.403L164.321 153.374C161.834 148.233 162.137 146.216 160.641 142.746C149.076 139.196 143.21 141.326 132.59 136.127C131.737 136.085 131.021 135.443 130.282 134.808C127.975 133.489 125.6 131.918 122.831 129.89C104.648 116.202 85.08 69.1529 96.0253 50.4546C93.1157 47.9001 90.0487 44.8488 88.0917 43.7302C79.4166 56.2861 83.5531 51.8501 69.476 66.1425C63.7893 72.0949 20.2564 110.004 13.9493 112.521L6.94971 113.558C14.9576 154.018 17.2519 168.911 53.777 192.619C55.0913 193.37 59.5253 196.35 61.8793 196.824C77.3682 185.78 74.9875 184.187 95.0007 176.368C115.703 168.072 129.549 160.235 152.03 152.296C153.393 151.099 155.285 150.863 156.673 151.889C157.412 152.525 157.94 153.486 158.148 154.263C158.102 155.108 158.032 155.96 157.477 156.941C156.114 158.138 155.673 158.525 153.848 159.012C133.816 164.631 116.301 175.408 96.5649 183.152C64.977 195.728 71.4915 212.801 49.8247 198.672C11.9791 174.19 8.09576 157.516 6.51986e-06 115.708C29.4341 88.765 -7.18804 121.228 19.6926 100.479C26.6265 95.0264 34.6284 86.2511 43.253 79.8081C58.0933 68.3739 61.8182 63.5088 74.6051 50.6876C79.6469 45.4709 81.3856 39.4705 84.1855 37.351C86.5213 35.6249 89.8683 36.6663 93.2359 38.8045C96.1794 28.8815 105.137 13.2126 111.598 16.46C112.269 16.844 112.845 16.9598 113.51 17.321L113.434 17.219ZM162.595 136.345C163.919 131.851 164.989 124.364 165.688 118.641C158.821 124.345 151.285 128.562 142.762 132.235C144.929 133.028 147.289 133.524 149.389 134.066C156.152 135.297 160.218 135.877 162.572 136.351L162.595 136.345ZM133.874 128.239C156.334 119.204 160.147 115.687 174.051 97.5948C172.923 96.5241 170.797 94.8629 169.415 93.86C156.006 104.349 142.897 116.986 127.393 123.895C129.513 125.533 131.567 126.92 133.874 128.239ZM121.624 119.066C122.155 118.924 122.663 118.789 123.262 118.898C127.61 116.366 134.798 110.845 142.009 105.319C131.152 106.552 119.955 105.402 109.61 101.233C112.766 107.861 116.918 113.954 121.641 119.037L121.624 119.066ZM105.539 91.2719C115.566 86.9286 119.594 80.0474 124.731 72.0371C118.175 71.5832 112.096 72.9128 101.473 76.0435L102.022 78.1014C102.94 82.5594 104.113 86.9496 105.539 91.2719ZM100.854 68.4436L104.109 67.0108C123.536 61.2595 134.498 67.7388 151.241 71.8656C152.26 70.4912 152.493 67.0977 152.197 64.972C145.944 62.5019 133.154 55.3843 117.265 56.5898C116.734 56.7317 115.971 56.9352 115.373 56.8256C110.984 57.1648 106.548 58.3493 101.745 60.1954C101.328 62.8053 100.905 65.3923 100.883 68.4602L100.854 68.4436ZM102.707 46.0981C110.152 39.4069 112.26 35.8065 116.056 25.9253C114.42 24.9903 111.902 23.9968 109.729 23.1809C106.582 27.0588 100.451 38.6661 99.3361 42.8341C100.718 43.8369 101.918 45.182 102.724 46.0691L102.707 46.0981ZM107.945 51.0684C110.301 50.4391 112.448 50.1354 114.6 49.8546C131.841 38.0487 118.366 47.1831 129.669 40.2945C129.856 39.9752 129.782 39.7008 129.993 39.3752C133.929 30.0199 136.718 18.497 140.859 11.022C138.088 10.0964 135.459 8.59375 132.757 6.8167C129.522 9.34628 123.07 16.6052 119.856 20.2316C123.829 22.5023 125.275 24.8596 122.87 30.4989C121.668 33.3186 119.561 36.9189 116.09 41.7161C112.686 46.7648 111.142 48.304 107.974 51.0851L107.945 51.0684ZM132.324 73.3164C129.686 77.0586 127.578 80.6588 125.336 83.7561C127.302 83.7946 129.074 84.1297 130.786 84.2361C137.207 84.1869 142.105 83.712 146.42 83.0984C146.607 82.7791 146.42 83.0985 147.851 82.153L148.823 81.6239C150.508 80.6106 151.944 79.6881 153.375 78.7427C152.335 79.0203 151.229 79.0464 149.771 78.8721C149.45 78.6885 148.845 78.556 148.27 78.4402C141.509 76.1059 136.564 74.3643 132.365 73.2811L132.324 73.3164ZM156.479 76.8359C171.016 67.4177 173.191 64.069 185.013 47.6351C183.953 46.8159 182.498 45.5386 181.371 44.4679C175.725 52.6139 167.542 58.6697 159.501 64.1483C160.279 68.0805 159.235 73.6258 156.462 76.8649L156.479 76.8359ZM154.908 58.4424C160.619 54.7127 164.894 51.9055 168.917 48.0632C169.104 47.7438 169.308 47.3954 169.749 47.0081C168.04 45.7988 165.367 43.2055 163.06 41.8865C162.806 41.9543 162.596 42.2798 162.342 42.3477C157.831 47.4225 155.172 50.0679 152.124 52.2781C150.693 53.2235 149.19 53.8946 147.499 54.885C149.993 55.8846 152.301 57.2036 154.885 58.4486L154.908 58.4424ZM138.334 51.7964L140.991 50.254C145.937 47.8308 149.359 44.9818 152.199 41.9942C155.367 39.2131 157.428 36.4581 159.831 34.9836C162.213 32.4122 165.637 28.4603 166.907 25.8922C165.639 24.2956 163.722 22.3088 162.177 20.7862C149.038 37.5717 142.798 40.3404 128.194 49.507L127.73 49.9004C131.146 50.0904 134.68 50.8124 138.304 51.7797L138.334 51.7964ZM152.846 65.3621C153.518 65.7461 154.414 66.0456 155.2 65.8359C154.669 65.9778 153.766 65.6554 152.846 65.3621ZM113.778 94.8773C116.55 95.8029 119.298 96.7346 121.93 97.1343C128.489 98.714 134.791 99.2358 141.581 98.5251C145.625 98.0084 149.874 97.1433 154.841 95.8169C156.458 94.5521 158.33 93.2194 160.021 92.229C159.679 90.9485 159.331 89.6452 158.735 88.4326C155.339 89.3395 151.294 89.8562 147.232 90.4019C138.086 91.7419 127.874 92.2399 119.863 90.5088C120.117 90.4409 120.462 90.6184 120.716 90.5506C120.185 90.6924 120.117 90.4409 119.863 90.5088C118.059 92.093 116.164 93.4318 113.761 94.9063L113.778 94.8773ZM181.257 94.2742C182.961 98.5225 179.146 103.142 174.589 109.062C186.814 103.593 187.205 102.925 197.223 88.0753C196.694 87.1143 195.561 86.0207 194.688 84.8821C191.058 86.9537 185.487 91.2093 181.257 94.2742ZM172.941 117.537C172.895 118.382 172.638 119.553 172.592 120.398C179.591 119.362 194.025 116.879 202.392 115.772C203.177 115.562 204.03 115.604 204.538 115.468L205.578 115.191C207.403 114.703 209.114 114.81 210.685 114.39C210.182 111.487 209.354 107.274 208.851 104.371C204.529 104.962 196.698 107.053 192.081 108.58L188.431 109.555C185.631 111.674 183.325 113.417 181.544 114.162C179.074 115.385 175.745 116.543 172.948 117.56L172.941 117.537ZM171.77 127.795C171.534 130.063 171.051 132.421 170.493 134.505C180.907 134.762 195.278 133.153 203.666 128.978C203.441 126.001 203.928 124.768 204.231 122.752C184.068 126.765 193.214 125.425 171.753 127.824L171.77 127.795ZM164.433 84.6571C165.55 79.3862 170.148 75.6597 175.603 73.1008C181.267 70.2163 188.103 68.6603 192.883 67.6533C192.722 66.0306 192.307 64.4757 191.644 63.0116C188.435 63.5991 184.066 65.0351 181.202 65.8001L180.67 65.942C179.517 66.8134 178.402 67.9196 177.316 69.0425C172.417 73.6821 166.89 78.1955 161.778 82.0348C162.704 82.351 163.487 83.2442 164.433 84.6571Z" fill="#FC3845"></path></svg>