<svg xmlns="http://www.w3.org/2000/svg" width="72" height="126" viewBox="0 0 72 126" fill="none"><path d="M71.9997 112.017C71.9997 113.399 71.9997 114.782 71.9997 116.164C71.9464 118.928 70.6137 120.974 68.268 122.356C67.1752 122.994 66.0556 123.606 64.8828 124.004C61.2843 125.227 57.5526 125.918 53.7408 125.998C48.6497 126.077 44.7313 124.084 42.2257 119.486C34.8955 106.09 27.9384 92.5353 22.6873 78.1564C16.4233 60.9866 9.43965 44.0827 1.4164 27.6572C-0.102958 24.5209 -0.502814 21.4909 0.723332 18.1952C1.94948 14.8729 2.56255 11.4177 2.64252 7.82958C2.72249 4.64016 4.08194 2.88597 7.25392 2.22151C13.5446 0.919164 19.8619 -0.542661 26.3924 0.201538C27.7785 0.361009 29.1379 0.65337 30.4707 0.945734C33.9092 1.66335 36.4149 3.63018 37.9076 6.79302C38.7605 8.60036 39.6402 10.4343 40.4132 12.2948C48.6497 32.0958 55.2334 52.4815 61.3109 73.0267C61.9506 75.2061 62.6437 77.359 63.2301 79.5384C63.8699 81.8508 64.6429 84.0834 66.109 86.0502C66.9086 87.1399 67.415 88.4954 67.9215 89.7712C70.3738 96.15 72.0263 105.134 71.9997 111.964V112.017ZM63.2835 115.18C64.8295 114.914 65.6024 113.904 65.6557 112.576C65.709 110.715 65.8157 108.748 65.3892 106.967C63.8699 100.854 62.1372 94.7945 60.4846 88.7346C53.6341 63.9368 45.6109 39.5378 35.4286 15.8563C34.8688 14.5274 34.5223 13.039 33.3761 11.7898C30.4707 16.5473 27.6719 21.1454 24.7931 25.8498C25.0063 26.4611 25.2462 27.1788 25.5394 27.8698C32.4165 43.9764 39.3469 60.0564 46.1973 76.1895C51.715 89.1599 56.6462 102.396 63.31 115.18H63.2835ZM58.4322 115.738C57.6059 113.904 56.8061 112.097 55.9798 110.263C53.6075 104.974 51.1553 99.7381 48.8895 94.3958C46.304 88.2562 43.9583 81.9837 41.426 75.8174C35.3752 61.1461 29.2979 46.5013 23.1672 31.8566C22.714 30.7669 22.5807 29.3848 21.8344 29.0658C18.076 30.0492 14.8773 30.8997 11.5454 31.7768C12.0518 33.026 12.505 34.1955 12.9848 35.3649C18.0227 47.9897 23.0072 60.6411 28.0983 73.2393C31.217 80.9471 34.2558 88.6815 37.8009 96.2032C40.4664 101.891 43.6918 107.34 47.077 112.655C49.9025 117.094 52.9145 117.705 58.4322 115.712V115.738ZM29.2446 7.4309C22.4208 6.47407 16.29 8.06878 10.3726 10.3545C8.25789 17.5485 7.67147 22.2972 8.61329 24.6006C10.9856 24.6538 13.4913 24.7335 15.9969 24.7335C17.4363 24.7335 18.7424 24.2285 19.7286 23.1388C23.3271 19.0989 26.2858 14.6071 28.5782 9.69007C28.8714 9.02561 29.0313 8.30799 29.2979 7.4309H29.2446Z" fill="#EED03A"></path></svg>