<svg xmlns="http://www.w3.org/2000/svg" width="294" height="294" viewBox="0 0 294 294" fill="none"><g clip-path="url(#clip0_206_162)"><path fill-rule="evenodd" clip-rule="evenodd" d="M242.28 95.869C243.677 103.332 243.11 99.6103 243.348 106.871C243.477 107.799 242.757 108.578 241.832 108.709C240.624 108.79 239.849 108.068 240.003 107.19C239.79 99.9338 240.078 103.287 239.119 96.8061C238.681 95.8237 239.144 94.9993 240.119 94.5842C241.043 94.4534 242.151 94.9407 242.28 95.869ZM210.781 236.152C207.743 256.955 184.199 254.637 168.16 247.029C155.942 251.812 149.749 256.426 131.612 257.454C124.922 258.092 109.699 240.692 96.126 224.168C95.7387 224.713 95.097 224.893 94.2221 224.74C73.8146 219.962 67.0995 217.266 50.6439 203.566C42.741 197.358 26.6844 172.914 37.689 166.427C35.9643 164.313 34.4683 162.559 33.2856 160.833C-0.470331 182.562 41.3231 220.869 62.9438 232.492C99.8574 252.497 149.743 275.364 192.831 270.295C216.317 267.808 218.182 255.509 214.152 235.837C213.227 235.968 212.015 236.075 210.807 236.157L210.781 236.152ZM172.971 245.156C185.814 250.419 204.855 252.852 207.486 236.187C205.066 236.375 202.392 236.199 199.743 236.027C198.997 236.802 198.098 236.937 197.173 237.068C188.222 240.32 186.039 240.816 175.88 244.148C174.901 244.589 173.976 244.72 173.001 245.135L172.971 245.156ZM51.6368 144.82C51.5619 146.911 51.716 146.033 51.4078 147.79C51.2537 148.669 50.2247 149.394 49.3498 149.24C48.4749 149.087 47.7541 148.055 47.9082 147.176L48.2662 145.135C48.1373 144.206 48.8575 143.427 49.7822 143.296C50.707 143.165 51.4821 143.887 51.6111 144.816L51.6368 144.82ZM50.572 156.034C50.4179 156.912 50.1847 156.578 50.3182 157.481C50.4472 158.409 49.727 159.188 48.8022 159.319C47.8775 159.45 47.1023 158.728 46.9733 157.8C46.9206 156.992 46.9622 156.2 47.0982 155.425C47.2523 154.546 48.2812 153.821 49.1561 153.974C50.031 154.128 50.7518 155.16 50.5977 156.038L50.572 156.034ZM63.7888 152.359C63.4806 154.116 63.4308 154.4 62.8395 156.108C62.6854 156.986 61.7108 157.401 60.8359 157.248C59.961 157.094 59.2402 156.062 59.7031 155.238C59.9071 154.075 60.2944 153.53 60.2152 152.318C60.3693 151.439 61.1153 150.664 62.0143 150.529C62.939 150.398 63.6598 151.43 63.7933 152.333L63.7888 152.359ZM59.4537 165.13C59.8914 166.112 59.6869 165.463 60.0748 166.73C60.2037 167.658 59.4835 168.438 58.5588 168.568C57.351 168.65 56.5758 167.928 56.7299 167.049C56.5511 166.405 56.4967 166.715 56.342 165.782C56.1873 164.85 56.6502 164.025 57.5749 163.894C58.554 163.453 59.3247 164.201 59.4537 165.13ZM67.6196 174.979L67.4655 175.857C67.5945 176.786 66.8743 177.565 65.9496 177.696C65.0248 177.827 64.2496 177.105 64.1207 176.176L63.9917 175.248C64.1458 174.37 64.5829 173.541 65.7907 173.459C66.7155 173.329 67.4907 174.051 67.6196 174.979ZM75.0753 169.974C76.0293 171.339 76.4671 172.322 76.1589 174.079C76.0048 174.958 75.0302 175.373 74.1553 175.219C73.2804 175.066 72.5596 174.034 72.7137 173.155C72.7636 172.871 72.5349 172.511 72.5847 172.227C71.8141 171.479 71.9636 170.626 72.4008 169.797C73.0969 169.307 74.3047 169.226 75.0753 169.974ZM79.4885 182.467C79.9761 183.166 80.2592 183.215 80.7754 183.599C81.6005 184.037 81.6796 185.249 80.9594 186.028C80.5721 186.573 79.5975 186.988 78.8223 186.266C77.9973 185.828 77.7142 185.779 77.2266 185.081C76.456 184.333 76.3225 183.43 77.0427 182.651C77.7629 181.872 78.6378 182.025 79.4628 182.463L79.4885 182.467ZM142.466 204.034L143.058 204.138C144.216 204.341 144.654 205.323 144.5 206.202C144.346 207.08 143.6 207.855 142.442 207.652L141.85 207.548C140.975 207.395 140.563 206.417 140.717 205.538C140.871 204.66 141.617 203.885 142.466 204.034ZM159.266 205.489C159.216 205.773 159.445 206.133 159.987 206.521L159.704 206.471C160.862 206.674 161.299 207.656 160.837 208.481C160.682 209.359 159.653 210.085 158.833 209.621C157.442 209.084 156.954 208.386 156 207.02C155.513 206.322 156.025 205.213 157 204.798C157.696 204.308 158.8 204.821 159.266 205.489ZM177.109 216.422L177.829 217.454C178.317 218.152 178.113 219.315 177.421 219.78C176.676 220.555 175.518 220.352 175.106 219.374L174.102 218.292C173.614 217.594 173.818 216.431 174.51 215.966C175.489 215.525 176.364 215.679 177.134 216.427L177.109 216.422ZM184.723 215.653L185.265 216.041C186.09 216.479 186.219 217.407 185.782 218.236C185.345 219.065 184.37 219.48 183.545 219.043L183.003 218.655C182.178 218.217 181.766 217.239 182.203 216.41C182.64 215.581 183.898 215.216 184.723 215.653ZM191.638 208.742C192.408 209.49 192.463 209.18 192.359 209.774C193.517 209.977 193.954 210.96 193.8 211.838C193.646 212.717 192.671 213.132 191.797 212.978C189.918 211.743 190.688 212.491 189.376 211.355C188.834 210.967 188.472 209.705 189.192 208.926C189.579 208.381 190.837 208.015 191.612 208.737L191.638 208.742ZM206.838 205.708C208.075 207.123 207.325 206.406 208.512 208.106C209 208.804 208.487 209.912 207.821 210.382C206.842 210.823 205.739 210.309 205.61 209.381C204.839 208.633 205.068 208.993 204.373 207.966C203.602 207.218 203.752 206.365 204.498 205.59C205.194 205.1 206.093 204.964 206.863 205.712L206.838 205.708ZM196.612 219.55C197.487 219.703 197.949 220.397 197.799 221.25C197.595 222.412 196.899 222.903 196.05 222.754C193.734 222.348 192.68 221.55 193.088 219.225C193.242 218.346 194.271 217.621 195.146 217.774C196.021 217.928 196.483 218.621 196.642 219.528L196.612 219.55ZM203.557 215.946C204.998 216.199 204.714 216.15 205.768 216.947C206.593 217.385 206.955 218.647 206.235 219.426C205.798 220.255 204.873 220.386 204.048 219.948C203.765 219.899 203.278 219.2 202.995 219.151C202.12 218.997 201.349 218.25 201.499 217.397C201.702 216.234 202.682 215.793 203.557 215.946ZM212.229 221.09L213.387 221.293C214.262 221.447 214.724 222.14 214.52 223.303C214.366 224.182 213.675 224.646 212.825 224.497L211.667 224.294C210.51 224.091 210.022 223.393 210.172 222.54C210.375 221.378 211.072 220.887 212.229 221.09ZM220.431 215.31C221.048 215.223 221.596 214.919 222.076 214.4C223.055 213.959 223.876 214.422 224.342 215.09C225.113 215.838 224.626 216.951 223.934 217.416C223.026 218.056 222.049 218.488 221.001 218.713C219.794 218.794 219.018 218.072 218.889 217.144C218.76 216.216 219.481 215.436 220.405 215.305L220.431 215.31ZM216.927 209.581L216.798 208.653C216.669 207.725 217.389 206.945 218.314 206.815C219.522 206.733 220.297 207.455 220.143 208.334L220.222 209.546C220.351 210.475 219.631 211.254 218.423 211.335C217.548 211.182 216.777 210.434 216.927 209.581ZM213.459 186.705C213.072 187.25 212.43 187.43 211.555 187.277C210.73 186.839 210.318 185.861 210.755 185.032C211.292 183.635 212.554 183.244 214.021 183.501C214.896 183.654 215.667 184.402 215.463 185.565C215.309 186.443 214.334 186.859 213.459 186.705ZM206.01 174.584C205.546 174.911 205.17 175.343 204.881 175.878C204.185 176.369 203.286 176.504 202.461 176.066C201.69 175.318 201.611 174.106 202.277 173.637C202.714 172.808 202.764 172.523 203.743 172.083C204.489 171.308 205.338 171.457 206.109 172.204C206.597 172.903 206.73 173.805 205.984 174.58L206.01 174.584ZM190.319 178.758L189.622 179.248C188.876 180.023 187.719 179.82 186.948 179.072C186.46 178.374 186.327 177.472 187.073 176.697C188.102 175.972 187.023 176.981 187.769 176.206C188.515 175.432 189.723 175.35 190.189 176.018C190.96 176.766 190.756 177.929 190.319 178.758ZM202.162 186.242C201.521 188.234 200.825 188.724 198.792 188.368C197.634 188.165 197.146 187.467 197.35 186.304C197.454 185.709 198.146 185.245 198.762 185.06C199.199 184.231 199.841 184.05 200.716 184.204C201.59 184.357 202.311 185.389 202.157 186.268L202.162 186.242ZM59.8452 118.585C60.6159 119.332 60.8491 119.666 60.9781 120.595C61.107 121.523 60.337 122.586 59.4621 122.433C58.5373 122.564 57.7621 121.842 57.6332 120.914L57.3501 120.864C56.8625 120.166 56.7834 118.953 57.475 118.489C58.2209 117.714 59.3788 117.917 59.8407 118.61L59.8452 118.585ZM71.0473 128.061C71.6833 128.971 72.225 129.865 72.6723 130.743C73.1599 131.441 72.9559 132.604 71.9813 133.019C71.2853 133.51 70.1273 133.307 69.7153 132.329C68.9945 131.297 69.2775 131.346 68.5825 130.319C67.8118 129.571 68.0158 128.408 68.7073 127.943C69.3988 127.479 70.6112 127.372 71.0731 128.065L71.0473 128.061ZM81.0076 131.006C81.6785 132.322 81.9117 132.656 82.3495 133.639C82.7873 134.621 82.2745 135.73 81.3498 135.861C80.6537 136.351 79.5501 135.838 79.0837 135.17C78.646 134.188 78.6958 133.904 78.0008 132.876C77.5132 132.178 78.0259 131.069 78.6917 130.6C79.3878 130.109 80.5457 130.312 81.0076 131.006ZM77.3593 138.197C77.3094 138.482 78.9051 139.667 78.9051 139.667C79.7302 140.105 79.8093 141.317 79.3721 142.146C78.9848 142.691 77.7272 143.056 76.952 142.334L75.0732 141.099C74.5856 140.401 74.1691 139.449 74.8893 138.67C75.3264 137.841 76.5342 137.76 77.3593 138.197ZM89.1783 145.97C89.8991 147.002 89.3571 146.614 90.3111 147.98C90.7489 148.963 90.2362 150.071 89.3114 150.202C88.3867 150.333 87.2786 149.846 87.1496 148.917C86.9164 148.584 86.8666 148.868 86.3789 148.17C85.8913 147.472 85.7578 146.569 86.5038 145.794C87.1999 145.304 88.4077 145.223 89.1783 145.97ZM40.2387 168.978C31.1374 173.082 46.5941 195.957 52.597 200.898C68.0442 213.543 74.431 216.447 92.5226 220.819L93.6307 221.306C90.7188 217.493 87.4982 213.625 84.8195 210.145C84.1778 210.326 83.2743 210.487 82.3994 210.333C71.6983 209.948 44.4908 197.665 46.3465 175.137C44.03 172.919 41.9679 171.066 40.2432 168.952L40.2387 168.978ZM49.6411 178.431C50.6586 193.047 67.1891 204.656 78.8201 206.696C80.2611 206.949 81.4448 207.156 82.6526 207.075C78.1948 201.792 74.7954 197.28 72.4789 195.062C71.6538 194.625 70.933 193.593 70.521 192.615C61.7936 187.781 54.7904 183.25 50.6707 179.518L49.6668 178.436L49.6411 178.431ZM205.588 40.423C166.805 29.4128 107.077 11.3995 76.2785 38.4945C66.4068 46.9916 61.689 60.2814 63.6563 72.9591C65.4941 82.8971 71.0852 92.0017 81.717 98.0749C97.4975 107.155 115.997 109.201 135.922 120.207C151.265 128.305 221.862 154.218 237.241 148.498C241.769 146.575 245.468 144.24 248.296 141.726C270.321 120.338 245.627 73.3089 231.15 55.1344C225.25 47.7869 217.373 44.9137 208.421 43.0241C207.263 42.821 205.95 41.6852 205.588 40.423ZM220.921 38.291C227.099 40.5731 232.735 44.2785 237.398 50.2103C253.833 70.8325 276.057 116.523 258.435 141.986C263.843 145.332 271.979 151.873 272.55 157.087C274.034 174.182 258.363 171.433 251.39 170.21C253.198 178.652 252.954 190.329 244.419 194.532C242.132 195.623 239.249 196.635 236.446 197.342C239.776 205.731 236.419 221.39 231.767 227.5C229.456 230.397 226.086 232.523 221.971 233.906C229.713 258.118 218.876 275.448 193.536 278.223C148.932 283.319 98.121 260.583 59.583 239.707C30.8805 224.152 -11.384 180.062 29.4449 153.847C25.9863 144.53 30.1473 136.23 42.1468 122.406C32.7889 105.742 40.3196 98.6457 52.9993 91.2271C36.0901 83.4404 43.691 69.1379 55.4462 66.991C55.4818 51.3617 63.5955 35.9505 77.9156 27.6476C117.819 3.08176 176.94 24.5578 217.806 35.6403C219.247 35.893 220.276 36.9792 220.921 38.291ZM253.191 147.992C249.954 151.02 245.631 153.592 240.461 155.695C235.988 157.307 229.094 157.297 220.625 156.131C217.384 155.856 214.193 155.296 210.744 154.398C212.856 155.967 215.405 158.519 217.647 162.828C221.075 168.836 224.047 184.407 235.594 178.308C241.866 174.906 239.7 168.506 242.116 165.015C243.736 162.582 247.539 161.464 257.112 163.143C263.16 164.497 263.598 163.668 264.567 158.138C263.534 155.559 257.46 150.872 253.161 148.013L253.191 147.992ZM204.699 153.019C176.831 146.32 142.959 132.868 130.961 126.262C114.848 117.417 98.8139 114.924 84.1421 108.143C84.8922 110.671 85.1009 114.623 83.6939 120.983C90.7559 133.648 104.228 97.8143 107.968 132.751C108.306 134.302 108.439 138.534 109.315 140.499C120.974 147.365 137.463 116.562 140.12 149.204C142.28 172.73 159.566 121.956 176.632 154.409C181.348 163.36 176.179 165.464 189.326 165.665C192.592 164.134 198.214 154.305 204.725 153.023L204.699 153.019ZM78.3306 105.285L78.0475 105.236C73.1819 102.278 69.5241 99.2394 66.2536 95.6559C63.7884 101.243 58.8818 106.989 66.8298 107.797C69.7375 108.307 74.3652 105.815 78.3518 105.316L78.3306 105.285ZM59.3755 85.4199C57.9047 81.8591 56.7169 78.3478 56.1753 74.6303C51.1597 75.8549 46.845 81.704 59.3755 85.4199ZM244.376 179.502C235.721 193.007 219.737 186.901 215.171 177.097C200.963 145.438 206.364 169.239 191.602 173.256C165.159 180.658 173.79 138.249 155.334 156.374C151.427 159.897 148.29 162.357 145.437 163.349C140.318 165.168 137.152 162.801 135.089 159.136C131.894 153.462 131.447 144.061 131.163 142.2C126.253 144.641 122.729 147.646 117.38 149.105C115.143 149.911 113.006 150.149 111.515 150.181C108.841 150.005 106.908 149.08 105.621 147.948C101.009 143.544 100.9 133.882 99.4748 126.733C97.2627 129.062 95.235 130.491 90.6022 131.197C73.7523 133.356 76.3084 118.782 76.9499 113.46C72.2431 114.739 69.1063 117.199 62.9287 114.917C53.0726 111.377 53.6546 104.58 56.2498 98.403C45.1955 105.174 39.9508 109.369 55.7408 128.679C56.4616 129.711 57.2368 130.433 57.9576 131.465C76.0383 152.989 100.825 163.649 126.078 174.976C145.254 183.453 190.056 194.321 220.669 192.178C228.566 191.459 235.381 190.257 240.629 187.555C243.562 186.258 244.407 183.103 244.427 179.511L244.376 179.502ZM228.39 198.966C195.798 203.771 145.206 191.889 122.711 181.924C93.7798 169.338 64.6694 156.109 46.2964 129.447C34.5255 143.63 32.9397 149.346 42.9043 160.735C46.1748 164.319 50.7866 168.724 56.4522 173.926C65.2094 182.067 91.2579 195.666 120.393 207.088C133.828 212.454 148.216 217.375 161.622 221.244C178.789 225.747 194.431 228.81 206.394 228.803C216.633 228.495 223.91 226.175 226.967 220.691C229.637 215.752 231.039 204.278 228.619 199.326L228.385 198.992L228.39 198.966ZM182.142 233.846C152.525 228.652 115.978 215.024 88.3086 202.047C102.89 219.627 118.834 241.389 131.478 249.599C158.666 244.752 150.048 244.439 173.245 236.787C177.386 235.409 180.239 234.418 182.142 233.846ZM111.001 50.5773C109.922 51.5867 108.843 52.5961 108.073 53.6597C107.919 54.5383 107.173 55.3131 106.324 55.1642C105.475 55.0153 104.678 54.263 104.828 53.4102C105.573 50.824 107.781 48.5209 110.072 47.4045C110.997 47.2736 111.822 47.7113 112.234 48.6892C112.363 49.6175 111.643 50.3968 111.001 50.5773ZM144.695 44.4736C142.637 45.924 143.666 45.1988 141.917 46.7033C141.171 47.4781 140.322 47.3292 139.552 46.5814C138.726 46.1437 138.93 44.9808 139.676 44.206C141.834 42.1871 140.755 43.1966 143.146 41.5116C144.125 41.0707 145.229 41.5839 145.412 42.202C145.85 43.1844 145.646 44.3473 144.721 44.4781L144.695 44.4736ZM154.624 66.352C153.004 68.7847 153.779 67.6953 152.158 70.1281C151.721 70.957 150.796 71.0879 149.971 70.6502C149.146 70.2125 148.734 69.2346 149.455 68.4552C151.125 65.7382 150.3 67.1119 151.92 64.6792C152.358 63.8502 153.332 63.4351 154.157 63.8728C154.928 64.6206 155.344 65.5727 154.624 66.352ZM179.2 47.5151C179.667 49.9942 179.18 51.1075 178.767 53.459C178.613 54.3377 177.584 55.0628 176.709 54.9094C175.835 54.7559 175.114 53.7239 175.268 52.8453C175.472 51.6824 176.113 49.6906 175.701 48.7127C175.572 47.7844 176.009 46.9555 176.984 46.5404C177.68 46.0498 178.783 46.563 179.195 47.5409L179.2 47.5151ZM191.907 72.3046C191.937 75.6128 192.582 76.9246 192.841 80.5924C192.686 81.471 191.712 81.8861 190.837 81.7327C189.962 81.5792 189.191 80.8314 189.341 79.9787C189.028 76.6209 188.566 75.9273 188.407 71.6909C188.561 70.8122 189.307 70.0374 190.465 70.2405C191.34 70.394 192.111 71.1417 191.907 72.3046ZM198.312 93.858C198.496 96.2875 198.441 94.7863 198.521 97.8101C198.367 98.6888 197.392 99.1038 196.517 98.9504C195.642 98.7969 194.921 97.7649 195.384 96.9404C195.046 95.3895 195.205 96.2964 194.917 94.4613C194.838 93.2488 195.275 92.4198 196.2 92.289C197.125 92.1582 198.183 92.9297 198.312 93.858ZM215.039 71.8333C218.513 72.4425 220.063 79.0273 220.476 81.8165C220.605 82.7448 219.885 83.5241 218.96 83.6549C218.085 83.5015 217.314 82.7537 217.181 81.8513C216.793 80.5846 215.476 76.1452 214.472 75.0635C213.597 74.91 213.135 74.2164 212.976 73.3095C213.13 72.4308 213.876 71.656 215.034 71.8591L215.039 71.8333Z" fill="#FC3845"></path></g><defs><clipPath id="clip0_206_162"><rect width="253.255" height="253.255" fill="white" transform="translate(43.7481) rotate(9.94734)"></rect></clipPath></defs></svg>