<svg xmlns="http://www.w3.org/2000/svg" width="104" height="149" viewBox="0 0 104 149" fill="none"><path fill-rule="evenodd" clip-rule="evenodd" d="M60.5664 98.5343C64.589 105.236 71.5801 107.119 79.1376 104.347C79.3639 104.04 79.57 103.728 79.7193 103.279C81.5777 99.2455 79.3928 93.07 72.0212 91.2091L71.7991 91.1454C70.8501 92.2281 69.0652 93.5629 66.8388 95.1535C65.122 96.2674 63.7287 97.2228 62.2992 97.7964C61.7056 98.1179 61.035 98.2972 60.5865 98.5401L60.5664 98.5343ZM4.50712 2.1575C5.74647 6.58731 12.208 14.6109 16.1098 19.6724C18.9457 18.1363 22.5481 17.3223 26.3415 18.2781C27.5446 18.0111 28.5276 18.0306 29.9037 18.8072C42.8126 24.8437 44.4874 34.7074 40.3714 42.038C51.7903 40.0007 65.756 52.2718 61.1265 66.119C61.7881 65.5766 62.617 65.3116 63.4577 65.7928C69.0755 67.2823 70.3559 72.8272 68.5864 77.7495C66.8169 82.6718 72.2896 84.2399 73.3443 86.8799C73.4213 87.0221 73.6504 87.0987 73.8087 87.013C84.6494 88.8847 87.8551 102.268 81.3641 108.426C80.2568 109.595 79.0787 110.601 77.8173 111.485C80.2007 116.231 82.5099 121.219 86.3068 125.016C109.097 115.498 107.191 148.642 89.755 148.453C79.5565 148.491 77.9817 133.489 85.8543 131.299C87.3608 130.867 89.0853 130.87 91.1452 131.46C96.4729 133.107 96.2869 137.74 90.8503 140.869C89.8083 141.433 88.4351 141.04 87.8817 140.018C87.3284 138.997 87.749 137.632 88.9362 136.989C89.3847 136.746 89.9782 136.424 90.3497 136.039C89.9664 135.678 89.1347 135.56 88.2287 135.682C86.0426 135.93 83.8995 137.643 85.7976 141.147C93.6846 154.637 109.294 120.492 87.9106 129.048C86.8686 129.612 85.8786 129.58 84.8928 129.177C80.1066 127.806 76.3345 119.078 73.8712 113.806C58.664 121.291 49.6086 103.533 54.4854 96.1584C54.0091 95.2791 53.4558 94.2575 52.8934 92.8729C52.6671 93.1795 52.461 93.4918 52.1576 93.6561C44.4302 101.438 36.6641 89.5883 40.094 78.8494C23.9785 77.1923 19.5523 60.1387 24.3271 51.8826C21.9118 52.0536 19.4236 51.7121 16.8223 50.8466C3.78906 45.9979 4.5364 30.3065 12.4221 22.4393C7.73784 16.2796 1.76441 9.88154 0.000152534 2.34088C0.117434 1.14005 1.07962 0.0502237 2.20152 0.0111812C3.48171 -0.113598 4.56056 0.807281 4.52033 2.15035L4.50712 2.1575ZM18.0169 23.5398C17.8066 24.2224 17.5122 24.7498 17.0638 24.9927C16.6153 25.2356 16.0897 25.3363 15.7155 25.3384C14.318 26.664 13.1587 28.4292 12.2986 30.4004C16.0302 34.8015 23.7608 38.7425 29.4563 37.1627C33.4232 35.9506 36.2099 35.3945 37.9343 35.397C38.1363 31.1398 35.3786 26.3951 28.0313 22.8152C27.4127 22.3976 27.1225 22.5548 26.597 22.6555C25.7813 22.9133 25.0947 22.7166 24.4761 22.299C22.2101 22.0212 19.9489 22.4766 18.0099 23.5269L18.0169 23.5398ZM11.6746 32.461C10.2203 37.9652 11.8998 44.2472 18.3744 46.5939C20.9626 47.4666 23.3869 47.6587 25.8632 47.254C28.8721 46.7615 31.7851 45.3676 33.9254 43.2717C34.7293 42.2676 35.5332 41.2635 36.2761 40.4932C36.8578 39.4254 37.4396 38.3577 37.702 37.0783C35.7351 37.0063 30.0486 38.9492 30.0486 38.9492C25.7784 40.3256 20.7631 38.8777 16.5456 36.4457C14.7801 35.3281 13.0888 33.9696 11.6948 32.4668L11.6746 32.461ZM32.0504 50.141C31.1535 50.6269 30.2565 51.1127 29.8983 51.4907C30.0434 51.4121 29.9664 51.2699 29.9664 51.2699C29.9664 51.2699 29.8983 51.4907 29.6789 51.8102C28.4544 54.1795 23.0054 59.7735 31.6525 70.7611C32.3509 71.704 33.3527 72.4827 34.4226 73.0405C31.3005 68.6939 29.9243 62.2476 34.4923 57.5154C35.4413 56.4327 36.7097 55.5616 38.2002 54.7543L38.9389 54.3542C38.5585 54.3763 38.4133 54.4549 38.1842 54.3783C37.2844 54.481 36.4465 54.3829 36.0633 54.0219C33.8465 52.764 32.6066 51.5457 32.0442 50.1611L32.0504 50.141ZM38.0708 74.0748C39.36 74.3131 40.7242 74.3435 42.0815 74.361C42.3078 74.0544 42.3689 73.8207 42.6591 73.6635C43.3859 72.5171 44.4932 71.3487 45.5192 70.4083C48.04 68.2903 51.3883 66.6606 55.4392 65.6037L55.7425 65.4394C56.114 65.0542 56.5624 64.8113 56.9269 64.4132C57.2052 63.5098 57.2545 62.5298 57.3107 61.5627C56.7018 58.2967 55.4368 56.3393 53.6075 55.0723C49.9522 54.025 45.5063 53.9746 43.4132 54.7404C43.1911 54.6768 43.0327 54.7625 42.8877 54.8411C41.236 55.3511 39.8136 55.9376 38.7035 56.7228C37.5163 57.3659 36.5513 58.0725 35.8155 58.8558C31.1184 64.0426 34.4572 70.9311 38.084 74.0677L38.0708 74.0748ZM55.5243 53.6661C52.5195 48.1187 45.94 44.5075 36.833 48.6711C36.7649 48.8919 36.5456 49.2114 36.4776 49.4322C36.1061 49.8174 35.5126 50.1389 34.987 50.2396C35.7625 51.3248 36.6873 51.9612 37.6801 52.3768C38.5889 52.6371 39.4206 52.7553 40.3335 52.6454C44.9378 52.6101 50.5965 49.545 54.9217 53.6246C55.1438 53.6882 55.3022 53.6025 55.5313 53.679L55.5243 53.6661ZM60.2663 68.0901C60.1983 68.311 60.1241 68.5519 59.8339 68.709C59.3333 69.5488 58.3593 69.8924 57.4436 69.6191C55.4115 70.1511 53.4767 70.8312 51.757 71.562C51.7689 72.3082 52.023 73.1239 52.125 74.0052C58.907 70.1477 63.0996 71.8405 64.8277 74.6844C65.5107 72.0398 64.1417 71.2761 62.07 69.9397C61.8478 69.876 61.6055 69.8066 61.3834 69.7429C60.7648 69.3254 60.4496 68.7435 60.2857 68.0629L60.2663 68.0901ZM58.7084 93.687C58.9306 93.7506 59.0146 93.9058 59.25 93.9623C63.8916 92.2007 65.0788 91.5577 68.4465 87.4756C66.415 84.7961 64.9529 83.5142 64.0962 82.657C63.1472 83.7397 61.4214 84.4905 59.2324 84.3549C59.3255 84.8732 59.3373 85.6194 58.9818 86.3806C58.3508 88.4283 57.4789 89.6532 56.591 90.5021C56.9832 91.2263 57.6046 92.027 58.2419 93.2037C58.4641 93.2674 58.6252 93.5648 58.7023 93.707L58.7084 93.687ZM50.034 72.696C49.4404 73.0175 48.9239 73.4812 48.5595 73.8793C41.3208 80.0748 42.9365 90.5225 47.7907 91.673C48.5294 91.2729 49.2042 90.7234 49.7137 90.2467C46.309 87.1738 44.6378 80.1513 50.0306 75.5243C50.1757 75.4457 50.3339 75.36 50.5471 75.0606C50.2999 74.2579 50.059 73.435 50.034 72.696ZM51.0431 89.1419C52.735 87.2889 53.2487 86.442 55.2641 88.7455C56.5165 87.4985 57.5217 85.4488 57.2676 84.6331L57.1225 84.7117C56.597 84.8124 56.0686 84.5299 55.9756 84.0117C56.0436 83.7908 55.9596 83.6357 56.1859 83.3291C54.1913 82.1349 52.321 79.7528 51.2025 76.9635L51.1254 76.8212C48.0111 79.2608 46.6783 83.1939 50.6641 88.4107L51.0563 89.1348L51.0431 89.1419ZM63.2769 80.0735C63.4872 79.391 63.7656 78.4876 64.1863 77.1224C63.7224 73.7778 57.3847 73.4475 52.8291 75.7144C54.7641 80.7041 59.6427 85.8052 63.2089 80.2944C63.3056 80.242 63.3283 80.1684 63.2769 80.0735ZM58.3934 98.7747L58.1713 98.7111C56.0838 102.668 61.1632 115.605 72.5576 109.617C72.768 108.934 73.2845 108.471 73.8781 108.149C74.3266 107.906 74.6938 107.891 75.0132 108.103C75.3846 107.718 75.6748 107.561 76.0392 107.163C68.9024 108.57 62.2577 105.563 58.3934 98.7747Z" fill="#FC3845"></path></svg>