<svg xmlns="http://www.w3.org/2000/svg" width="56" height="79" viewBox="0 0 56 79" fill="none"><path fill-rule="evenodd" clip-rule="evenodd" d="M4.00188 7.42988C4.05185 7.65439 4.20702 7.84524 4.25699 8.06975C4.43824 8.37772 4.62926 8.68351 4.70313 9.01539C7.72519 9.61302 9.61868 8.73051 11.204 7.56828C12.7059 6.53731 13.8378 5.36333 15.0482 5.09389C15.2323 4.35626 15.2754 3.53732 15.1537 2.9907C13.9434 3.26013 6.29621 5.31073 3.83692 7.24122C3.85285 7.3128 3.90532 7.37968 3.99428 7.44183L4.00188 7.42988ZM32.1412 20.0266C32.0663 22.8196 31.8936 25.1734 31.5636 27.3265C32.8717 27.4963 34.3584 29.4807 37.3364 34.0222C37.8899 34.9439 38.5986 36.0565 39.4743 37.3676C39.8522 35.4291 40.0652 33.763 39.7958 32.5527L39.6003 31.6742C36.4842 26.0058 33.6808 21.1899 32.151 20.0244L32.1412 20.0266ZM40.9841 34.2551C41.1268 35.9547 40.9257 37.6284 40.6627 39.07C44.5305 45.032 49.4123 53.432 47.9094 57.5878C44.6167 67.2338 32.2189 69.7579 23.3193 69.772C19.2921 69.8591 12.4625 53.2154 11.2338 50.8253C9.29639 47.3226 3.22254 41.8516 10.2298 40.0561C21.1523 37.1638 21.4018 34.0963 29.8977 27.5744L30.1221 27.5245C30.5335 25.2303 30.8829 22.6118 30.8742 19.4891C26.9832 18.6239 25.6161 23.4359 21.1113 16.6834C19.5045 24.5607 13.0833 30.508 7.06848 35.197C6.78658 35.4953 6.40472 35.3447 6.22347 35.0367C6.04222 34.7288 6.07573 34.373 6.49108 34.1678C6.96382 33.7143 7.44632 33.2586 8.06228 32.8961C13.5186 28.3212 19.1567 22.4457 19.9729 15.2054L20.0564 15.0741C19.7102 14.5775 19.479 14.045 19.1165 13.429C18.6964 12.6005 16.9785 10.0837 15.8402 8.6057C15.8561 8.67728 15.8283 8.72104 15.7567 8.73697C15.4249 8.81085 15.2101 8.85866 14.8543 8.82516C12.4881 10.1612 9.11209 11.6094 6.19236 12.0237C15.6776 32.8195 1.60655 27.2745 3.44487 41.7919C3.97816 46.7648 8.7506 52.6484 11.0745 57.3354C19.0475 74.4213 15.8926 78.4736 33.5599 73.6188C40.9825 71.6182 55.5179 65.7189 51.513 55.5051C50.6661 53.2656 45.7468 43.1324 40.9917 34.2432L40.9841 34.2551ZM2.76149 11.7527C1.53681 11.4516 0.651433 10.6037 0.117281 9.21664C-1.52355 3.91654 14.5542 -2.32605 17.3559 0.871579C18.4225 2.02743 18.4722 4.32145 17.8459 6.20246C18.8865 7.24118 20.2321 9.14427 21.8809 12.3629C27.5424 23.2529 28.1881 12.1166 35.1473 18.4354C37.9087 20.9454 52.7888 50.3753 54.3847 54.4151C58.4397 64.8534 47.5708 72.1288 38.9685 75.0887C22.6758 80.9181 17.1637 81.1001 10.4109 63.7427C7.7369 56.931 0.993452 47.4395 0.396055 42.1325C-1.69468 25.4686 13.259 33.3682 2.77126 11.7505L2.76149 11.7527ZM30.5336 31.4898C27.4699 41.6585 20.8377 43.0221 20.2601 50.322C19.603 59.8422 27.4322 63.3038 32.8946 54.5682C34.3276 52.1695 36.9125 46.6151 38.5278 41.3995C35.705 37.0489 32.7436 33.0878 31.3002 30.7455C31.0183 31.0438 30.8274 31.199 30.5434 31.4876L30.5336 31.4898ZM39.5751 43.0207C38.4904 45.9258 36.9806 49.0382 34.9213 53.3179C30.7671 62.2233 20.5679 64.7293 19.02 52.5753C17.9747 44.2434 24.4949 42.3309 28.2479 33.7402C23.1138 38.2434 16.0153 42.7125 10.8321 43.8663C10.7486 43.9976 10.6576 44.1408 10.5502 44.1647C11.9102 46.6383 15.1836 52.5072 15.6037 53.3358C16.5101 55.3366 21.1482 64.7128 23.4462 66.7522C30.9399 66.1291 42.0887 65.266 45.1378 56.5964C45.9742 54.0949 42.9894 48.51 39.5751 43.0207ZM16.1108 12.9507C16.1626 15.2545 13.452 18.1732 12.0718 19.7508C11.7899 20.0492 11.458 20.123 11.1694 19.839C10.8808 19.5549 10.9143 19.1991 11.0812 18.9366C11.9052 17.9438 14.864 14.6215 14.7691 13.1367C14.8026 12.7809 14.9793 12.5162 15.4186 12.4184C15.7504 12.3445 16.0391 12.6286 16.1129 12.9605L16.1108 12.9507Z" fill="#FC3845"></path></svg>