<svg xmlns="http://www.w3.org/2000/svg" width="65" height="70" viewBox="0 0 65 70" fill="none"><path fill-rule="evenodd" clip-rule="evenodd" d="M21.7523 7.69529C22.532 4.41904 23.5808 -0.356243 26.9167 0.0210375C27.6945 0.184098 28.5396 0.296213 29.4014 0.290831L29.2838 0.275219C29.8049 0.0994532 29.9898 0.0641188 30.5094 0.318089C31.3174 4.1152 31.684 6.31355 31.7005 9.20562C34.0298 4.96487 33.9982 0.0462473 36.5838 0.449154C41.4692 1.15719 41.466 3.31192 40.3104 6.66347C40.9644 6.81555 41.8431 7.11172 42.8317 7.5531C42.951 7.13898 43.0198 6.6583 43.2124 6.1886C43.7154 3.55049 49.1477 5.99644 49.0636 7.46015C49.0604 8.31962 48.9946 9.23608 48.7898 10.2484C50.7597 8.975 52.0479 8.96089 53.7759 12.3848C55.504 15.8087 46.9753 16.0323 47.5647 21.395C48.1866 21.3524 48.723 21.4888 49.2044 21.5527C51.7293 17.278 52.6695 13.2231 56.9877 17.0559C57.8693 17.7879 57.6598 19.6703 57.0759 21.6174C60.4916 18.8106 62.168 18.2929 64.8417 24.5526C65.3077 25.5994 64.4824 26.2247 63.6006 26.788C64.4287 28.3128 64.8457 30.5778 63.2945 31.972C60.3052 34.77 56.9599 36.6664 53.1424 37.9396C53.1073 38.1853 53.0904 38.3028 53.0736 38.4203C53.4357 38.8983 54.0714 39.5976 55.0035 40.3961C55.5062 40.7676 55.6376 41.5251 55.2601 42.0302C54.8826 42.5352 54.0711 42.6071 53.5684 42.2357L53.3621 41.9634C52.0006 40.7378 51.8463 40.1024 50.9815 39.2529C47.1168 39.6001 45.6328 40.9434 41.8491 40.6863C41.5908 40.7772 41.3005 40.6734 41.004 40.5742C40.159 40.462 39.2635 40.2834 38.1954 40.0165C31.137 38.1548 19.6249 26.5537 20.6097 19.6746C19.4361 19.2686 18.1556 18.7341 17.4389 18.639C16.384 23.4189 17.0749 21.6003 14.6263 27.5504C13.6587 30.0072 5.32414 46.54 3.75611 48.0518L1.80302 49.2076C9.08366 60.2528 11.5696 64.3977 25.2891 67.0125C25.7705 67.0763 27.4484 67.4241 28.2048 67.2796C31.4664 62.123 30.5663 61.9383 35.5623 57.1915C40.705 52.2192 43.8671 48.2141 49.5813 43.1326C49.8412 42.6119 50.3745 42.3126 50.9109 42.4491C51.2074 42.5483 51.4809 42.7696 51.6367 42.9753C51.7253 43.232 51.8078 43.4933 51.7619 43.8518C51.5021 44.3725 51.4181 44.5409 50.9351 44.9068C45.6672 49.0026 41.7714 54.3253 36.8488 59.0166C28.9919 66.5785 32.9952 70.8594 24.8488 69.2888C10.6433 66.6041 7.46974 62.1231 -0.000345745 50.6882C5.47611 39.1205 -1.46607 53.1985 4.00253 43.7796C5.40102 41.3201 6.71404 37.7446 8.49462 34.7862C11.5163 29.5923 12.033 27.6962 14.2768 22.3393C15.1419 20.1792 14.9312 18.1866 15.5059 17.2179C15.9904 16.4223 17.1105 16.326 18.3697 16.5529C18.0415 13.2494 18.803 7.5108 21.1151 7.69238C21.3611 7.72502 21.546 7.68969 21.7875 7.71628L21.7523 7.69529ZM50.7861 37.1154C50.6349 35.6204 50.0453 33.2673 49.5595 31.4831C48.2114 34.0091 46.4844 36.1746 44.3983 38.2979C45.1379 38.2708 45.899 38.1323 46.5882 38.0387C48.746 37.5849 50.0235 37.2646 50.78 37.12L50.7861 37.1154ZM41.2748 38.1882C46.85 32.7835 47.5561 31.2772 49.4929 24.2196C49.0284 24.0383 48.1956 23.8026 47.6638 23.6722C44.9524 28.4119 42.5909 33.7532 38.8236 37.6834C39.6519 37.9131 40.4297 38.0761 41.2748 38.1882ZM36.5254 36.9486C36.666 36.8421 36.8004 36.7402 36.9915 36.7002C37.9757 35.4212 39.4415 32.9108 40.9133 30.3958C37.8385 32.0778 34.3741 33.093 30.7967 33.1082C32.5371 34.6942 34.5083 36.0007 36.5269 36.9379L36.5254 36.9486ZM28.3809 30.6434C30.8323 28.1386 31.1947 25.607 31.7497 22.6057C29.7477 23.2653 28.1033 24.3969 25.328 26.6138L25.7406 27.1583C26.5534 28.3709 27.4335 29.5326 28.3809 30.6434ZM24.2234 24.4318L25.0165 23.6118C30.0889 19.5499 34.1292 20.1459 39.6016 19.3426C39.7377 18.811 39.3955 17.7751 39.0502 17.1796C36.8939 17.2037 32.2331 16.6398 27.6607 18.923C27.5201 19.0295 27.3184 19.1824 27.1273 19.2223C25.865 19.8549 24.6913 20.7441 23.4885 21.8743C23.681 22.6999 23.8689 23.5194 24.234 24.4332L24.2234 24.4318ZM22.0662 17.5712C23.4663 14.6821 23.6559 13.3575 23.5859 9.9631C22.9869 9.88363 22.1189 9.89364 21.3747 9.91463C20.91 11.4476 20.4955 15.6376 20.6695 17.0104C21.2013 17.1408 21.7209 17.3948 22.0678 17.5605L22.0662 17.5712ZM24.2239 18.4126C24.8474 17.9402 25.448 17.59 26.0532 17.2457C29.7427 11.6507 26.848 15.9961 29.3697 12.5809C29.3866 12.4634 29.3316 12.3908 29.3545 12.2686C29.3899 9.01337 28.8218 5.25354 29.146 2.53185C28.2108 2.5928 27.2481 2.46507 26.2303 2.26474C25.5762 3.40792 24.5398 6.34534 24.0247 7.81174C25.4795 8.00475 26.1946 8.52956 26.1639 10.4956C26.1485 11.4786 25.9589 12.8032 25.5094 14.6484C25.1104 16.5601 24.8383 17.2043 24.2346 18.414L24.2239 18.4126ZM34.1596 22.0656C33.8294 23.4966 33.6398 24.8212 33.3493 26.0126C33.9377 25.7859 34.5047 25.6706 35.0258 25.4949C36.9269 24.7022 38.3237 23.9677 39.531 23.2626C39.5478 23.1451 39.531 23.2626 39.8412 22.8085L40.0659 22.5335C40.4434 22.0285 40.7582 21.5805 41.0685 21.1264C40.7934 21.3348 40.4679 21.4766 40.014 21.6015C39.8964 21.5858 39.7008 21.6198 39.5159 21.6551C37.2251 21.7811 35.5457 21.8631 34.1673 22.0503L34.1596 22.0656ZM41.7593 20.184C44.9352 15.6256 45.1753 14.3676 46.6949 8.05475C46.2807 7.93994 45.6939 7.73691 45.2294 7.55555C44.5399 10.6587 42.8434 13.4487 41.1194 16.05C41.8268 17.1235 42.1889 18.8967 41.7578 20.1947L41.7593 20.184ZM39.0641 14.912C40.3082 13.1123 41.2375 11.7608 41.9666 10.1323C41.9834 10.0148 42.0017 9.88659 42.0858 9.71815C41.4318 9.56607 40.3239 9.11976 39.4788 9.00764C39.4116 9.05858 39.3886 9.1807 39.3214 9.23165C38.5969 11.2852 38.1276 12.3931 37.4903 13.4188C37.18 13.8729 36.8148 14.2543 36.4327 14.7533C37.2945 14.7479 38.1396 14.8601 39.058 14.9166L39.0641 14.912ZM33.3366 14.9467L33.9388 14.1667C35.1141 12.8477 35.785 11.587 36.2665 10.3556C36.8702 9.14591 37.1485 8.07803 37.6834 7.34898C38.0793 6.29671 38.6173 4.70819 38.6831 3.79172C38.1132 3.4712 37.3033 3.1134 36.6599 2.84845C34.7919 9.4253 33.2743 11.0036 30.048 15.4954L29.9578 15.6685C30.9954 15.3109 32.1324 15.0971 33.3259 14.9452L33.3366 14.9467ZM39.2901 17.2168C39.5361 17.2495 39.8387 17.2298 40.0465 17.0723C39.9059 17.1788 39.5988 17.1925 39.2901 17.2168ZM31.2645 30.7157C32.1997 30.6548 33.1289 30.5985 33.9587 30.3983C36.0981 30.0727 38.0328 29.464 39.963 28.4303C41.1015 27.7867 42.2584 27.015 43.5727 26.0193C43.8998 25.4477 44.2941 24.8252 44.6762 24.3262C44.4195 23.9873 44.1582 23.6425 43.8343 23.3546C42.9356 24.0354 41.7971 24.6789 40.657 25.3331C38.1034 26.8393 35.131 28.2246 32.5422 28.6811C32.6095 28.6302 32.7333 28.6412 32.8005 28.5902C32.6599 28.6967 32.6095 28.6302 32.5422 28.6811C32.1983 29.3702 31.7979 29.9974 31.263 30.7264L31.2645 30.7157ZM51.2306 22.3603C52.2513 23.4155 51.6781 25.2497 51.0422 27.56C54.0101 24.4543 54.0453 24.2086 55.221 18.5848C54.9475 18.3635 54.4783 18.1761 54.081 17.9438C53.2542 18.9988 52.1156 20.9375 51.2306 22.3603ZM51.5798 30.2763C51.6684 30.5329 51.7341 30.9117 51.8227 31.1684C53.7758 30.0125 57.7615 27.5262 60.1119 26.1836C60.3197 26.0261 60.578 25.9352 60.7125 25.8333L60.9876 25.6249C61.4705 25.2591 61.9916 25.0833 62.4073 24.7684C61.9062 23.9672 61.1498 22.8165 60.6487 22.0152C59.4368 22.7143 57.3645 24.2844 56.1785 25.2971L55.2127 26.0289C54.638 26.9975 54.1642 27.7946 53.7255 28.2316C53.1402 28.8941 52.292 29.6415 51.5844 30.2823L51.5798 30.2763ZM52.475 33.4645C52.6797 34.1665 52.8218 34.9255 52.9088 35.6119C56.0325 34.4263 60.1052 32.2074 62.0905 29.951C61.6627 29.0942 61.6582 28.6691 61.5039 28.0336C56.0022 31.6685 58.5559 30.1623 52.4735 33.4752L52.475 33.4645ZM45.0692 21.5429C44.7622 19.8422 45.6762 18.1784 46.9859 16.7576C48.3186 15.2146 50.1602 13.9242 51.4576 13.046C51.2132 12.5836 50.9015 12.1721 50.5271 11.8177C49.6453 12.381 48.522 13.3368 47.764 13.911L47.6234 14.0176C47.3865 14.4161 47.1893 14.8797 47.0029 15.3448C46.1102 17.3162 45.0159 19.3262 43.9628 21.0859C44.2761 21.0676 44.6169 21.2379 45.0692 21.5429Z" fill="#FC3845"></path></svg>