<svg xmlns="http://www.w3.org/2000/svg" width="90" height="73" viewBox="0 0 90 73" fill="none"><path fill-rule="evenodd" clip-rule="evenodd" d="M58.6586 19.8097C64.309 20.7357 72.4068 31.7106 74.6263 35.8764C74.7814 36.1675 74.7119 36.3955 74.4208 36.5506C74.2009 36.6678 73.9793 36.5948 73.8243 36.3037C73.5899 35.8639 73.2086 35.3196 72.7794 34.7011C70.0047 30.3661 63.607 22.2392 59.1635 20.9442C59.013 20.8334 58.7885 20.7703 58.6082 20.775C58.3091 20.7434 58.1242 20.5678 58.1493 20.2721C58.1033 20.0142 58.3564 19.788 58.6522 19.8131L58.6586 19.8097ZM80.2904 45.8059C79.4025 44.3108 78.7028 42.9976 78.079 41.8268C72.1462 44.4231 71.1239 43.5642 66.3176 45.0952L66.0977 45.2123C65.7688 45.2963 65.8067 45.3674 65.4317 45.1935L65.2305 44.6446C65.4125 44.4562 65.3712 44.3786 65.5548 44.3804C69.9926 42.6721 71.7555 43.5183 77.6551 41.0312C75.3516 36.5364 74.5059 33.8892 72.3888 27.983C69.3102 23.4361 65.2895 16.9495 62.4985 12.241C62.3813 12.0211 62.4129 11.7219 62.6264 11.6082C62.9174 11.4531 63.1834 11.5938 63.3006 11.8137C65.5056 15.4225 68.3643 20.0865 70.9525 24.0559C69.9913 21.379 68.5632 17.6386 67.1729 13.9694C66.4796 13.0267 66.258 12.9537 63.5943 10.2454C63.3284 10.1047 63.2888 9.84341 63.4329 9.58392C63.5736 9.31797 63.8348 9.27843 64.0943 9.42255C65.0803 10.4004 65.7276 11.0853 66.2577 11.5503C64.9531 8.40027 63.8414 5.61245 62.9914 4.18845C51.4582 9.30345 38.7172 11.9643 26.82 17.456C23.8948 18.8235 10.8854 24.1603 7.9383 26.2039C8.58935 28.2986 10.1789 32.7004 12.2058 37.9074C12.4338 37.9769 12.4699 38.2317 12.4448 38.5274C17.0366 49.9668 23.6084 64.9355 26.5397 67.9746C36.4052 62.9093 47.6242 59.8386 58.091 55.2004C63.8039 52.7213 68.0217 51.1302 73.7662 48.3519C75.7768 47.372 76.9492 46.9383 79.0392 46.1072C79.4807 46.063 79.8557 46.2369 80.0884 46.4866C80.2388 46.5975 80.2814 46.8489 80.3607 46.9976C80.413 47.6258 80.0571 48.1892 79.429 48.2415C78.4402 48.6769 75.7681 49.8182 74.8885 50.2869C69.035 53.0319 64.8171 54.6231 59.071 57.2112C51.7097 60.4772 45.1756 62.6464 37.6955 65.5023C33.4065 67.1314 30.6696 68.6809 26.9311 70.299C26.6021 70.383 26.265 70.2802 25.8108 69.9575C24.4977 70.6571 20.6612 72.7925 20.2232 72.8432C17.8989 73.2345 13.5953 61.2762 12.4981 59.0454C9.25431 52.4272 8.68523 49.068 6.10917 42.6588C5.75131 41.6286 5.31583 40.6398 4.95962 39.7998C4.50534 39.4771 4.4593 39.2193 4.56204 38.8822C-0.0988983 29.0742 -3.28697 28.9042 5.80033 25.1837L6.02025 25.0665C8.39118 22.3001 20.9373 17.6835 21.7772 17.3274C32.5416 12.5306 39.7733 10.0811 50.9666 6.27663C51.4857 6.19107 63.1424 1.66635 63.2514 1.6996C63.5804 1.61567 64.0726 2.00952 64.5746 2.7802C70.8915 -1.05884 70.7364 -1.34992 74.2982 4.63374C79.1771 12.731 86.9252 30.453 88.6462 39.6681C89.8061 45.7106 89.9759 42.5224 81.8714 46.8405C81.3604 47.1128 80.6862 46.9073 80.4139 46.3962L80.3346 46.2475C80.2554 46.0987 80.2507 45.9185 80.2904 45.8059ZM24.2218 68.3624C24.0288 68.0002 23.7233 67.5982 23.4113 67.1997C22.9843 67.801 22.2218 68.4896 21.0511 69.1133L19.8804 69.7371L20.2698 70.4681L24.2154 68.3659L24.2218 68.3624ZM22.9507 66.5067C22.6785 65.9956 22.373 65.5937 22.1007 65.0827C21.5581 65.6541 20.4083 66.8315 19.0492 67.2732L18.7582 67.4283L19.1097 68.0881C19.2269 68.308 19.382 68.5991 19.4659 68.9281C20.3375 68.2727 21.6586 67.7598 22.3103 67.2216C22.5302 67.1045 22.742 66.8006 22.9572 66.5032L22.9507 66.5067ZM21.6255 64.2064L21.4704 63.9153C20.8188 64.4535 19.8726 65.1403 19.0723 65.7578C18.8191 65.984 18.4918 66.258 18.3098 66.4464L18.3477 66.5175C18.6055 66.4715 18.8254 66.3543 19.1165 66.1993C19.9185 65.7719 20.8612 65.0787 21.2631 64.7732C21.3326 64.5451 21.437 64.3981 21.619 64.2098L21.6255 64.2064ZM20.8926 63.0023L20.7755 62.7824C20.4465 62.8663 19.8246 63.289 19.0937 63.6784C18.5495 64.0597 17.9609 64.3733 17.3741 64.5032C17.5671 64.8655 17.7257 65.163 17.8475 65.5632C18.2081 65.1801 18.6811 64.8367 19.1163 64.4221C19.8391 63.846 20.4942 63.3143 20.8961 63.0088L20.8926 63.0023ZM20.4274 62.129C20.3102 61.9091 20.2642 61.6513 20.1091 61.3602C19.7848 61.6243 19.4872 61.7828 19.1664 62.0534C18.4355 62.4429 17.7425 62.9034 17.2396 63.3624C17.7506 63.0901 18.4483 62.8098 19.1429 62.5393C19.543 62.4175 20.0242 62.2608 20.4308 62.1355L20.4274 62.129ZM19.6403 60.4804L19.406 60.0406C19.3348 60.0785 19.2193 60.0487 19.1482 60.0866C18.2954 60.0758 17.0914 60.8087 15.8811 61.1711C16.1534 61.6822 16.3545 62.2311 16.6268 62.7421C17.3117 62.0949 18.4066 61.3288 19.1294 60.7527L19.6403 60.4804ZM19.02 59.3161C18.827 58.9538 18.6684 58.6563 18.5466 58.2561C17.7048 58.796 16.6531 59.456 15.8557 60.0635C16.737 59.785 17.9503 59.4126 19.02 59.3161ZM18.1222 57.4441C17.9672 57.153 17.85 56.9331 17.8039 56.6752C16.9622 57.2151 15.7617 57.9544 14.7065 58.6079C14.8616 58.899 15.0166 59.1901 15.1419 59.5967C16.1179 58.7944 17.3616 57.949 18.1222 57.4441ZM17.3766 55.8731L17.1043 55.3621C16.4698 55.0441 15.1648 56.3041 13.8436 56.817L14.3123 57.6967C15.657 56.698 16.5762 56.4906 17.3766 55.8731ZM16.7481 54.5221C16.5551 54.1598 16.4298 53.7532 16.1954 53.3133C15.3618 54.0399 14.0488 54.7394 13.1359 55.3172L13.3702 55.7571C14.2878 55.3595 15.6422 54.7376 16.7481 54.5221ZM15.4895 51.6299L15.0208 50.7501C14.1411 51.2188 12.8597 51.6192 12.0576 52.0465L11.9088 52.1258C11.9549 52.3836 12.11 52.6747 12.1495 52.936L12.2207 52.8981C12.9976 52.7665 14.3818 52.029 15.4796 51.6268L15.4895 51.6299ZM14.6266 49.8389L14.5427 49.5099C13.7262 49.3802 12.7456 50.0024 11.7534 50.4313C11.6047 50.5106 11.4244 50.5152 11.2757 50.5945C11.3929 50.8144 11.4768 51.1434 11.594 51.3634L11.885 51.2083C12.8691 50.5926 14.0066 50.0779 14.6266 49.8389ZM14.1597 48.7755C14.0379 48.3754 13.8414 48.0067 13.6847 47.5255C12.9917 47.986 12.1185 48.4513 11.4587 48.8028C11.1677 48.9579 11.0568 49.1083 10.8369 49.2254L10.9208 49.5544C11.1408 49.4373 11.321 49.4326 11.5409 49.3154C12.2799 49.1127 13.338 48.823 14.1563 48.7691L14.1597 48.7755ZM13.2871 46.6078L13.0941 46.2456C12.575 46.3311 12.001 46.828 11.4124 47.1416L11.1213 47.2967C10.7923 47.3806 10.5724 47.4978 10.24 47.5752L10.5583 48.3441C10.7782 48.2269 11.0314 48.0007 11.2513 47.8835C12.0154 47.385 12.705 46.918 13.2936 46.6044L13.2871 46.6078ZM12.7758 45.4767C12.6126 44.9989 12.3403 44.4879 12.1836 44.0067C11.7437 44.241 11.1237 44.48 10.6425 44.6367C10.2027 44.8711 9.76283 45.1054 9.50968 45.3317C9.67289 45.8094 9.78828 46.213 9.95149 46.6908L10.9023 46.1842C11.5223 45.9452 12.1821 45.5937 12.7723 45.4702L12.7758 45.4767ZM11.7515 43.0244L11.4711 42.3266C11.1422 42.4106 10.7321 42.5294 10.2988 42.7603C9.74987 42.9614 9.34794 43.2669 8.79906 43.468C8.95415 43.759 9.03809 44.088 9.19662 44.3856C9.47957 44.0438 9.88149 43.7383 10.3925 43.4661C10.7547 43.2731 11.2324 43.1099 11.7515 43.0244ZM11.1908 41.6289C11.1068 41.2999 10.9104 40.9312 10.8329 40.5988L9.95323 41.0675C9.33319 41.3065 8.67343 41.658 8.27151 41.9635C8.27963 42.1502 8.39336 42.3636 8.47263 42.5124C8.95038 42.3492 9.46135 42.077 10.1228 41.9156C10.4517 41.8317 10.8618 41.7129 11.1908 41.6289ZM10.4009 39.6164C10.2837 39.3965 10.1997 39.0675 10.0446 38.7764L9.53366 39.0487C8.87391 39.4002 8.14301 39.7896 7.41046 39.9889C7.61158 40.5378 7.80804 40.9065 7.92342 41.3101C8.5039 40.8098 9.19688 40.3493 9.77902 40.0391C9.99894 39.9219 10.1809 39.7336 10.4009 39.6164ZM9.72937 37.9976C9.52824 37.4487 9.33359 36.8963 9.13247 36.3474L9.06132 36.3853C8.33854 36.9614 7.27687 37.6184 6.55064 38.1881L6.94821 39.1057C7.42596 38.9425 8.37677 38.4359 9.4383 38.1527L9.72937 37.9976ZM8.73835 35.4362C8.65441 35.1072 8.57693 34.7748 8.41839 34.4772C7.57031 34.6467 6.36166 35.1993 5.30014 35.4825L6.12328 37.386C7.10733 36.7703 8.23671 36.0689 8.7349 35.4298L8.73835 35.4362ZM8.06218 33.6372C7.86106 33.0883 7.6664 32.5359 7.46528 31.987C6.48123 32.6026 5.13029 33.2311 4.47865 33.7693L4.83486 34.6093C5.67483 34.2531 6.96274 33.8493 8.06865 33.6338L8.06218 33.6372ZM7.10095 30.9603C7.05491 30.7024 6.93774 30.4825 6.86027 30.15C5.94104 30.3574 4.5883 31.1695 3.41936 31.6096C3.65372 32.0495 3.92599 32.5605 4.12711 33.1094C5.10305 32.3071 6.34673 31.4618 7.10741 30.9568L7.10095 30.9603ZM6.57988 29.4523C6.45803 29.0522 6.3771 28.7133 6.22201 28.4222C5.16213 28.8955 3.73013 29.5588 2.77931 30.0654C2.82534 30.3233 2.90117 30.4656 3.01835 30.6855C4.01519 30.4368 5.43729 29.7704 6.57643 29.4459L6.57988 29.4523ZM5.97666 27.4317C4.84563 27.943 2.67805 28.8155 2.39166 29.1508L2.47093 29.2996C3.52613 28.646 5.02584 27.9383 5.97666 27.4317ZM65.7098 4.70833L66.4094 6.02147C68.7444 4.77739 67.6846 5.25074 71.3249 4.14996C71.0148 3.56778 70.5921 2.94588 70.1629 2.32744C69.0949 2.61409 66.9815 3.93113 65.7064 4.70187L65.7098 4.70833ZM66.8036 6.93264C67.0379 7.37251 67.2391 7.92144 67.5113 8.43247C69.0064 7.54456 71.5011 6.77179 72.7179 6.40587C72.4835 5.96601 72.1401 5.49289 71.8678 4.98187L71.7967 5.01978C68.0106 6.18991 69.1515 5.68167 66.81 6.9292L66.8036 6.93264ZM67.8232 9.20478C67.8692 9.46262 67.9864 9.68255 68.1035 9.90249C69.3915 9.49866 71.9195 8.61683 73.8437 8.34737L73.2612 7.25417C71.7552 7.5915 68.8043 8.22524 67.8331 9.2078L67.8232 9.20478ZM68.4614 10.9326C68.6165 11.2237 68.7418 11.6304 68.8969 11.9214C70.3506 10.9559 73.0815 10.4393 74.654 9.88389L74.2266 9.08178C72.8629 9.34329 70.262 10.4467 68.4614 10.9326ZM69.291 12.8326C69.4129 13.2328 69.4938 13.5717 69.6868 13.9339C70.8971 13.5715 73.8335 12.3807 75.8603 12.1479L75.1606 10.8348C73.4773 11.5407 70.3462 12.1791 69.2846 12.8361L69.291 12.8326ZM70.0132 14.8895C70.1683 15.1806 70.2522 15.5096 70.4108 15.8071C72.2016 14.9444 75.7157 14.6666 76.687 13.684L76.2975 12.953C74.9338 13.2146 71.9374 14.62 70.0167 14.8959L70.0132 14.8895ZM70.6859 16.682C70.8789 17.0443 70.9663 17.3797 71.0817 17.7833C72.4283 18.3781 74.619 15.6163 77.3516 15.2899L77.4227 15.252L77.1126 14.6698L77.0414 14.7077C75.4373 15.5623 71.9313 16.0268 70.6894 16.6885L70.6859 16.682ZM71.4 18.5522C71.5632 19.03 71.6786 19.4336 71.8751 19.8023C73.59 18.7972 76.9789 18.1128 78.0278 17.0889L78.1765 17.0096C78.0593 16.7897 78.0133 16.5318 77.9375 16.3895L77.7508 16.3976C75.8049 16.9693 73.022 18.2611 71.397 18.5621L71.4 18.5522ZM72.1601 20.6802L72.4405 21.3779C73.4292 20.9425 76.6835 19.491 78.9366 19.1376C78.9366 19.1376 79.0078 19.0997 79.1233 19.1295C78.9303 18.7673 78.805 18.3607 78.612 17.9984L78.2498 18.1914C76.459 19.0542 72.9197 19.6277 72.17 20.6832L72.1601 20.6802ZM72.7605 22.3369C72.9616 22.8859 73.1562 23.4382 73.2815 23.8449C75.066 22.6117 78.4421 21.5604 79.6081 20.7564L79.7569 20.6772C79.6018 20.3861 79.4846 20.1662 79.4386 19.9083C79.3674 19.9462 79.2519 19.9164 79.2519 19.9164C77.7757 20.1382 74.6024 21.9286 72.7639 22.3434L72.7605 22.3369ZM73.5567 24.7198C73.6785 25.1199 73.8371 25.4175 73.8766 25.6788C75.3827 25.3414 78.5343 23.8533 80.5548 23.2501C80.6638 23.2834 80.7414 23.242 80.7414 23.242C80.5403 22.6931 80.3457 22.1407 80.1113 21.7009L79.9625 21.7801C78.1449 23.1223 74.3001 23.2939 73.5601 24.7262L73.5567 24.7198ZM74.2789 26.7766C74.48 27.3256 74.6367 27.8068 74.8 28.2845C76.6176 26.9424 79.7612 25.2675 81.1074 24.4589L81.2562 24.3796L81.0632 24.0174C81.0632 24.0174 80.9541 23.9841 80.8765 24.0255C79.2515 24.3265 76.2333 26.408 74.2858 26.7896L74.2789 26.7766ZM75.1183 29.0534L75.2815 29.5312C76.6026 29.0183 79.7759 27.2279 81.9452 26.5455L82.0163 26.5076L81.6205 25.4063L81.5494 25.4442C79.7317 26.7864 76.3538 28.0214 75.1282 29.0564L75.1183 29.0534ZM75.5899 30.297C75.8289 30.9171 75.9524 31.5074 76.266 32.0961C78.3287 30.341 82.3519 28.1974 82.4231 28.1595L82.643 28.0423L82.404 27.4223L82.3328 27.4602C80.6115 28.0949 77.2434 29.7067 75.5933 30.3035L75.5899 30.297ZM76.5132 32.9028L76.5924 33.0516C78.3913 32.3755 81.4572 30.742 83.3984 29.9901C83.2766 29.59 83.118 29.2924 83.0026 28.8888L82.9315 28.9267C81.1517 30.3401 77.8612 31.9105 76.5166 32.9093L76.5132 32.9028ZM76.9882 34.1529C77.0675 34.3017 77.1433 34.444 77.1514 34.6307C78.9691 33.2885 82.5983 32.011 83.8339 30.9789L83.7546 30.8302C82.035 31.655 79.0863 33.5084 76.9882 34.1529ZM77.5076 35.4707L77.6627 35.7618C78.9378 34.9911 82.3311 33.0835 84.4687 32.7003C84.4606 32.5136 84.4227 32.4425 84.3469 32.3002L84.1918 32.0091C82.5182 33.0918 78.9601 34.3314 77.5046 35.4806L77.5076 35.4707ZM78.0917 36.754C78.2468 37.0451 78.3721 37.4518 78.5651 37.814C80.4161 36.3628 83.8932 34.7842 85.0988 34.2415C84.9817 34.0216 84.8977 33.6926 84.7805 33.4726C83.4168 33.7342 80.0329 36.0022 78.0917 36.754ZM78.9546 38.545C79.0006 38.8028 79.1178 39.0227 79.235 39.2427C80.8186 38.864 83.7943 36.5311 85.6311 35.9262C85.5139 35.7063 85.5092 35.5261 85.392 35.3061C83.6771 36.3112 80.3389 37.4337 78.9546 38.545ZM79.7002 40.1159L80.2069 41.0668C81.8758 39.8039 85.1744 38.4201 85.9573 37.2556C85.8781 37.1068 85.8734 36.9266 85.7941 36.7778C84.3639 37.2574 81.6017 39.4765 79.6938 40.1194L79.7002 40.1159ZM80.555 41.7202L80.9444 42.4511C82.3082 42.1896 85.0072 40.5689 86.5069 39.8612C86.4626 39.4197 86.2994 38.9419 86.2453 38.4974C84.5764 39.7603 81.3093 40.8448 80.555 41.7202ZM81.3752 43.2597L81.9577 44.3529C83.7187 43.6057 86.3575 42.5734 87.1596 42.1461C87.0377 41.7459 86.881 41.2647 86.7557 40.8581C85.5138 41.5198 82.921 42.8099 81.3752 43.2597ZM12.5471 53.8536C12.6643 54.0736 12.7814 54.2935 12.7861 54.4737C13.7621 53.6714 15.0057 52.826 15.6177 52.4004C14.6984 52.6078 13.6116 53.5605 12.5436 53.8472L12.5471 53.8536ZM59.4547 9.1622C51.8925 13.2826 20.261 32.9512 15.1048 34.0125L11.8898 34.3219C11.2238 34.303 10.7614 33.7936 10.828 33.2017C10.8468 32.5356 11.3561 32.0732 11.948 32.1399L14.3482 31.8909L14.6473 31.9225C16.4146 31.5456 22.0717 28.4319 28.8271 24.5586C28.1295 24.839 27.4348 25.1094 26.666 25.4277C22.1192 27.1027 17.5229 28.5135 13.1816 29.5144L12.9238 29.5604C12.6327 29.7155 12.3668 29.5748 12.2496 29.3549C12.1324 29.1349 12.164 28.8357 12.4551 28.6807L13.0039 28.4796C13.852 28.3101 14.7001 28.1406 15.6193 27.9332C22.8655 26.0407 30.5323 23.1767 37.4329 19.5914C39.219 18.5485 40.9702 17.4244 42.7563 16.3814L44.4713 15.3763C44.9111 15.142 45.3842 14.7986 45.7827 14.4866C45.8538 14.4487 46.0026 14.3695 46.1117 14.4027C51.5838 11.1134 56.2143 8.36399 58.407 7.19573C58.9891 6.88557 59.6633 7.0911 59.9356 7.60212C60.2457 8.1843 60.0403 8.85851 59.4581 9.16867L59.4547 9.1622ZM44.8168 52.9796C44.0164 53.5971 43.3678 54.1254 42.9296 54.5498C41.7337 55.4694 41.4822 55.8857 40.9146 56.7529C40.5587 57.3163 40.0954 58.0365 39.2413 59.239L39.1006 59.5049C38.9186 59.6932 38.5517 59.706 38.3634 59.524C38.1751 59.342 38.2002 59.0462 38.3822 58.8579L38.4931 58.7075C41.4586 54.5944 39.932 55.7815 44.2127 52.1886C44.4326 52.0715 44.7318 52.1031 44.9166 52.2786C45.0338 52.4986 45.0022 52.7978 44.8267 52.9826L44.8168 52.9796ZM37.439 54.0951C33.9188 61.2194 31.3049 60.1787 32.4466 58.8147C32.5953 58.7354 32.7376 58.6596 32.9657 58.7291C34.277 57.8394 35.9772 54.8739 36.4691 53.8644C36.5718 53.5273 36.7917 53.4102 37.1288 53.5129C37.3569 53.5824 37.4706 53.7959 37.439 54.0951ZM58.0322 14.2387C57.67 14.4316 57.4104 14.6613 57.1193 14.8164C54.2038 16.5608 52.826 17.6686 52.0215 20.9126C51.8809 21.1785 51.8523 21.4678 51.7496 21.8049C51.6801 22.0329 51.5045 22.2178 51.2054 22.1862C50.9773 22.1167 50.7511 21.8635 50.824 21.6419C51.886 16.9486 53.4884 15.9038 57.6113 13.4331C57.8312 13.3159 58.1304 13.3475 58.2441 13.561C58.3992 13.8521 58.2586 14.118 58.0387 14.2352L58.0322 14.2387ZM73.8463 47.2711C69.8672 48.079 71.9302 47.7272 67.7249 48.2819C67.5382 48.29 67.2408 48.0747 67.2659 47.779C67.2199 47.5212 67.4019 47.3328 67.6597 47.2868C71.7228 46.8079 69.7309 47.1218 73.71 46.3139C73.9679 46.2679 74.1941 46.521 74.2401 46.7789C74.2862 47.0367 74.1042 47.2251 73.8463 47.2711Z" fill="#FC3845"></path></svg>