<svg xmlns="http://www.w3.org/2000/svg" width="104" height="149" viewBox="0 0 104 149" fill="none"><path fill-rule="evenodd" clip-rule="evenodd" d="M60.5661 98.5343C64.5887 105.236 71.5799 107.119 79.1373 104.347C79.3637 104.04 79.5698 103.728 79.7191 103.279C81.5774 99.2455 79.3925 93.07 72.021 91.2091L71.7988 91.1454C70.8498 92.2281 69.065 93.5629 66.8386 95.1535C65.1217 96.2674 63.7284 97.2228 62.299 97.7964C61.7054 98.1179 61.0348 98.2972 60.5863 98.5401L60.5661 98.5343ZM4.50688 2.1575C5.74622 6.58732 12.2078 14.6109 16.1095 19.6724C18.9455 18.1363 22.5479 17.3223 26.3412 18.2781C27.5444 18.0111 28.5274 18.0306 29.9034 18.8072C42.8124 24.8437 44.4872 34.7074 40.3712 42.038C51.79 40.0007 65.7557 52.2718 61.1262 66.119C61.7878 65.5766 62.6167 65.3116 63.4574 65.7928C69.0753 67.2823 70.3556 72.8272 68.5861 77.7495C66.8166 82.6718 72.2894 84.2399 73.344 86.8799C73.4211 87.0221 73.6502 87.0987 73.8085 87.013C84.6491 88.8847 87.8549 102.268 81.3638 108.426C80.2565 109.595 79.0784 110.601 77.817 111.485C80.2005 116.231 82.5097 121.219 86.3066 125.016C109.096 115.498 107.191 148.642 89.7548 148.453C79.5563 148.491 77.9814 133.489 85.8541 131.299C87.3606 130.867 89.0851 130.87 91.1449 131.46C96.4726 133.107 96.2867 137.74 90.8501 140.869C89.8081 141.433 88.4348 141.04 87.8815 140.018C87.3281 138.997 87.7488 137.632 88.9359 136.989C89.3844 136.746 89.978 136.424 90.3494 136.039C89.9662 135.678 89.1345 135.56 88.2285 135.682C86.0424 135.93 83.8992 137.643 85.7974 141.147C93.6843 154.637 109.294 120.492 87.9104 129.048C86.8683 129.612 85.8783 129.58 84.8925 129.177C80.1064 127.806 76.3343 119.078 73.871 113.806C58.6638 121.291 49.6083 103.533 54.4852 96.1584C54.0089 95.2791 53.4555 94.2575 52.8932 92.8729C52.6668 93.1795 52.4607 93.4918 52.1573 93.6561C44.4299 101.438 36.6638 89.5883 40.0938 78.8494C23.9783 77.1923 19.552 60.1387 24.3268 51.8826C21.9115 52.0536 19.4234 51.7121 16.822 50.8466C3.78881 45.9979 4.53616 30.3065 12.4219 22.4393C7.7376 16.2796 1.76416 9.88154 -9.16044e-05 2.34088C0.11719 1.14005 1.07938 0.0502236 2.20128 0.0111812C3.48147 -0.113598 4.56032 0.80728 4.52008 2.15035L4.50688 2.1575ZM18.0167 23.5398C17.8064 24.2224 17.512 24.7498 17.0635 24.9927C16.615 25.2356 16.0895 25.3363 15.7152 25.3384C14.3178 26.664 13.1585 28.4292 12.2983 30.4004C16.03 34.8015 23.7605 38.7425 29.4561 37.1627C33.4229 35.9506 36.2096 35.3945 37.9341 35.397C38.136 31.1398 35.3784 26.3951 28.0311 22.8152C27.4125 22.3976 27.1223 22.5548 26.5968 22.6555C25.7811 22.9133 25.0944 22.7166 24.4759 22.299C22.2099 22.0212 19.9487 22.4766 18.0097 23.5269L18.0167 23.5398ZM11.6744 32.461C10.22 37.9652 11.8996 44.2472 18.3742 46.5939C20.9624 47.4666 23.3867 47.6587 25.863 47.254C28.8719 46.7615 31.7848 45.3676 33.9252 43.2717C34.7291 42.2676 35.533 41.2635 36.2758 40.4932C36.8576 39.4254 37.4393 38.3577 37.7017 37.0783C35.7349 37.0063 30.0484 38.9492 30.0484 38.9492C25.7782 40.3256 20.7629 38.8777 16.5453 36.4457C14.7798 35.3281 13.0886 33.9696 11.6945 32.4668L11.6744 32.461ZM32.0502 50.141C31.1532 50.6269 30.2563 51.1127 29.898 51.4907C30.0431 51.4121 29.9661 51.2699 29.9661 51.2699C29.9661 51.2699 29.898 51.4907 29.6787 51.8102C28.4541 54.1795 23.0052 59.7735 31.6522 70.7611C32.3507 71.704 33.3525 72.4826 34.4223 73.0404C31.3002 68.6939 29.924 62.2476 34.4921 57.5153C35.4411 56.4327 36.7095 55.5617 38.2 54.7543L38.9386 54.3542C38.5582 54.3763 38.4131 54.4549 38.184 54.3783C37.2842 54.481 36.4463 54.3829 36.063 54.0219C33.8463 52.764 32.6063 51.5457 32.044 50.1611L32.0502 50.141ZM38.0706 74.0748C39.3598 74.3131 40.724 74.3435 42.0812 74.361C42.3076 74.0544 42.3686 73.8207 42.6588 73.6635C43.3857 72.5171 44.4929 71.3487 45.519 70.4083C48.0397 68.2903 51.388 66.6606 55.4389 65.6037L55.7423 65.4394C56.1137 65.0542 56.5622 64.8113 56.9266 64.4132C57.205 63.5098 57.2542 62.5298 57.3105 61.5627C56.7015 58.2967 55.4366 56.3393 53.6072 55.0723C49.952 54.025 45.5061 53.9746 43.413 54.7404C43.1908 54.6768 43.0325 54.7625 42.8874 54.8411C41.2358 55.3511 39.8133 55.9376 38.7032 56.7228C37.5161 57.3659 36.5511 58.0725 35.8153 58.8558C31.1181 64.0426 34.457 70.9311 38.0838 74.0677L38.0706 74.0748ZM55.5241 53.6661C52.5192 48.1187 45.9398 44.5075 36.8327 48.6711C36.7647 48.8919 36.5454 49.2114 36.4773 49.4322C36.1059 49.8174 35.5123 50.1389 34.9868 50.2396C35.7623 51.3248 36.687 51.9612 37.6798 52.3768C38.5886 52.6371 39.4203 52.7553 40.3333 52.6454C44.9375 52.6101 50.5962 49.545 54.9215 53.6246C55.1436 53.6882 55.3019 53.6025 55.5311 53.679L55.5241 53.6661ZM60.2661 68.0901C60.198 68.311 60.1238 68.5519 59.8336 68.709C59.3331 69.5488 58.3591 69.8924 57.4433 69.6191C55.4113 70.1511 53.4765 70.8312 51.7568 71.562C51.7686 72.3082 52.0228 73.1239 52.1248 74.0052C58.9068 70.1477 63.0994 71.8405 64.8274 74.6844C65.5105 72.0398 64.1414 71.2761 62.0697 69.9397C61.8476 69.876 61.6053 69.8066 61.3831 69.7429C60.7645 69.3254 60.4493 68.7435 60.2854 68.0629L60.2661 68.0901ZM58.7082 93.687C58.9303 93.7506 59.0144 93.9058 59.2497 93.9623C63.8914 92.2007 65.0785 91.5577 68.4462 87.4756C66.4148 84.7961 64.9527 83.5142 64.096 82.657C63.147 83.7397 61.4211 84.4905 59.2322 84.3549C59.3252 84.8732 59.337 85.6194 58.9816 86.3806C58.3506 88.4283 57.4787 89.6532 56.5907 90.5021C56.983 91.2263 57.6043 92.027 58.2417 93.2037C58.4638 93.2674 58.625 93.5648 58.702 93.707L58.7082 93.687ZM50.0338 72.696C49.4402 73.0175 48.9237 73.4812 48.5593 73.8793C41.3206 80.0748 42.9363 90.5225 47.7905 91.673C48.5291 91.2729 49.2039 90.7234 49.7135 90.2467C46.3088 87.1738 44.6376 80.1513 50.0303 75.5243C50.1754 75.4457 50.3337 75.36 50.5468 75.0606C50.2997 74.2579 50.0588 73.435 50.0338 72.696ZM51.0429 89.1419C52.7347 87.2889 53.2485 86.442 55.2639 88.7455C56.5163 87.4985 57.5215 85.4488 57.2673 84.6331L57.1223 84.7117C56.5967 84.8124 56.0684 84.5299 55.9753 84.0117C56.0434 83.7908 55.9593 83.6357 56.1857 83.3291C54.191 82.1349 52.3207 79.7528 51.2022 76.9635L51.1252 76.8212C48.0109 79.2608 46.678 83.1939 50.6639 88.4107L51.0561 89.1348L51.0429 89.1419ZM63.2767 80.0735C63.487 79.391 63.7654 78.4876 64.186 77.1224C63.7222 73.7778 57.3845 73.4476 52.8289 75.7144C54.7638 80.7041 59.6424 85.8052 63.2086 80.2944C63.3054 80.242 63.328 80.1684 63.2767 80.0735ZM58.3932 98.7747L58.171 98.7111C56.0835 102.668 61.1629 115.605 72.5574 109.617C72.7677 108.934 73.2843 108.471 73.8778 108.149C74.3263 107.906 74.6935 107.891 75.0129 108.103C75.3844 107.718 75.6745 107.561 76.039 107.163C68.9022 108.57 62.2575 105.563 58.3932 98.7747Z" fill="#67242B"></path></svg>