<svg xmlns="http://www.w3.org/2000/svg" width="102" height="87" viewBox="0 0 102 87" fill="none"><path fill-rule="evenodd" clip-rule="evenodd" d="M87.1489 30.2597C85.86 26.5393 77.0237 2.70507 80.6428 0.477634C84.8334 -1.9165 95.165 5.06541 96.1921 13.0716C97.3733 21.1247 96.6743 24.5809 91.4622 30.3332C90.9457 30.8727 90.2155 31.0067 89.5845 30.8148C88.9138 31.3074 87.806 30.9704 87.1673 30.2497L87.1489 30.2597ZM4.22941 68.5066C7.47459 74.9119 18.2467 75.913 15.1591 62.7442C14.2184 58.4332 3.00928 56.6025 3.64838 65.8839C3.75522 66.0867 3.65608 66.4126 3.93119 66.6666C4.30883 67.1375 4.59164 67.9202 4.22941 68.5066ZM0.0438904 66.351L0.0913087 66.1951C-1.01174 52.7477 16.5562 53.014 18.647 62.0559C23.2623 80.4264 2.88916 80.8703 -0.000118282 67.0497C0.047293 66.8939 -0.00783544 66.5211 0.0395761 66.3652L0.0438904 66.351ZM40.3578 44.1699C39.9754 56.8095 59.5655 45.2911 47.0021 41.1134C43.0476 39.9105 41.3319 40.9676 40.295 43.2684C40.3501 43.6412 40.471 43.8483 40.3762 44.16L40.3578 44.1699ZM36.9999 46.6471C36.0463 46.357 35.6567 45.3716 35.9023 44.5639L36.0963 43.9263L36.0489 44.0822C37.6151 37.2209 44.0257 35.4865 49.6966 38.45C66.1389 46.95 39.2082 62.7064 36.9999 46.6471ZM52.4644 75.4852C56.9328 78.4234 56.5137 69.0231 51.2127 73.3551C50.5893 73.6919 51.0738 74.3656 51.4558 74.8223C51.61 74.8693 51.5626 75.0251 51.7309 75.0763C51.8991 75.1275 52.2076 75.2213 52.4687 75.471L52.4644 75.4852ZM49.9575 78.0354C46.8875 76.7455 46.089 71.9669 49.8763 69.7906C62.306 63.0758 61.3592 85.5286 50.2326 78.2894C50.0784 78.2425 50.1258 78.0866 49.9575 78.0354ZM27.479 78.551C30.1949 89.5168 41.3916 74.9189 30.5067 75.4471C29.0981 75.5449 28.4274 76.0376 28.142 77.5298C28.0429 77.8557 27.7464 78.2763 27.479 78.551ZM24.5081 76.9352C25.7415 71.722 31.1211 70.5564 35.2592 72.8678C47.3694 79.6941 27.3923 95.3055 23.8151 78.6595C23.6865 77.9238 24.0488 77.3373 24.5038 76.9494L24.5081 76.9352ZM88.9017 67.1564C95.5703 69.7112 99.6815 68.6862 97.539 59.8143C96.0326 53.938 80.6469 54.5057 88.9017 67.1564ZM89.1046 71.0727C88.4339 71.5653 87.4803 71.2753 86.8416 70.5547C73.5156 51.8101 98.0422 47.3818 100.934 58.9275C103.749 69.5674 98.4621 73.9037 89.1089 71.0586L89.1046 71.0727ZM89.7473 26.8548C96.7705 17.9691 92.0253 5.16302 83.6077 3.82545C85.3649 11.6977 87.2169 19.2582 89.7473 26.8548Z" fill="#67242B"></path></svg>