<svg xmlns="http://www.w3.org/2000/svg" width="146" height="119" viewBox="0 0 146 119" fill="none"><path fill-rule="evenodd" clip-rule="evenodd" d="M72.9788 16.2476C61.0505 25.7604 44.871 39.1221 34.025 43.781C16.9719 50.8738 21.1732 50.242 14.1878 70.4039C10.9828 79.5764 7.41796 88.7066 5.00738 98.1256C19.6883 96.6873 55.0406 91.2981 64.2217 86.8831C59.7633 53.2707 59.3906 40.5948 72.9788 16.2476ZM92.7232 38.431C94.3613 38.5436 95.2521 38.5817 97.2438 38.203C97.8192 36.3861 98.4909 34.3608 99.6871 31.7977L100.041 31.3066C97.9881 31.5182 96.5716 31.4983 94.685 31.6496C94.0196 34.2084 93.4036 36.3868 92.7319 38.4121L92.7232 38.431ZM99.2063 38.7332C99.3786 39.2063 99.1164 39.4751 98.8679 39.7389C98.0303 41.8247 97.0343 43.4323 95.7964 44.4189C94.5585 45.4055 92.7884 45.8768 90.4115 45.6708C90.044 47.5854 89.5243 49.5553 89.0249 52.0537C92.1849 50.5405 97.1807 50.1552 100.814 53.8116C103.912 50.1935 106.733 49.1664 108.847 49.6413C110.383 46.5921 109.636 47.9359 111.747 44.4882L111.899 44.4328C110.78 43.7687 109.799 43.0542 109.046 42.4462C108.596 43.1458 108.146 43.8454 107.621 44.3831C105.338 47.3578 102.538 50.3317 100.637 51.9063C100.015 52.1329 99.5804 51.9287 99.3524 51.3026C99.1801 50.8295 99.3866 50.4077 99.782 50.0745C101.268 48.8241 103.31 46.6467 105.134 44.3906C106.959 42.1345 108.414 39.8083 108.898 38.2137C109.044 37.6248 109.666 37.3983 110.086 37.6075C110.673 37.7563 110.901 38.3824 110.694 38.8043C110.549 39.3932 110.417 39.977 110.058 40.4543L110.175 40.7743C110.231 40.9273 110.443 41.0389 110.555 41.345C111.253 41.7999 112.22 42.5194 113.712 43.2208C116.97 37.5905 116.347 29.0871 113.012 24.7863C112.264 26.1302 110.195 31.1544 110.195 31.1544C99.1586 52.7914 104.748 31.7197 103.142 27.3092L101.507 32.5376C100.634 34.9987 99.9568 37.0101 99.1598 38.7344L99.2063 38.7332ZM96.4062 40.2888C94.8795 40.4823 93.8417 40.5135 92.1427 40.234C91.7131 41.4621 91.3608 42.4728 90.9312 43.7009C94.0416 43.9864 95.3759 42.7914 96.4062 40.2888ZM95.0576 29.7489C96.9442 29.5977 98.2087 29.673 100.565 29.3505C100.717 29.2952 100.883 29.2347 101.091 29.3324L103.223 24.9947C106.125 25.1826 105.837 31.7012 105.283 35.9844C109.94 27.8748 114.046 11.9761 117.711 32.7033C118.158 35.3928 117.803 41.211 115.777 43.9029C117.795 44.5862 119.798 44.7549 120.864 43.2953C121.466 42.5403 121.854 41.1541 121.579 38.9377C120.292 29.0844 126.816 29.0251 131.425 31.9638C130.327 30.4098 128.289 29.1981 126.396 28.8158C114.11 26.1672 123.14 16.4805 116.921 17.8474C114.302 18.4387 112.456 18.2285 111.019 17.6801C110.452 18.0597 109.947 18.6063 109.533 18.9305C99.1727 29.8262 103.817 17.8129 97.6874 18.4379C97.1677 20.4079 96.5024 22.9667 95.7203 26.6238C95.5948 27.7411 95.4084 28.6914 95.0751 29.711L95.0576 29.7489ZM114.186 45.3807C113.868 45.4965 113.715 45.5519 113.447 45.2873C113.351 45.4957 113.245 45.7231 112.997 45.9869L112.901 46.1953C115.74 49.6053 114.364 47.8056 116.961 52.0128C117.133 52.4859 116.775 52.9632 116.305 53.1343C115.835 53.3055 115.248 53.1567 115.081 52.6976C113.085 49.1536 113.906 50.462 111.946 47.9611C111.684 48.2299 111.593 48.4522 111.082 48.9849C112.946 51.6943 114.763 54.2317 114.755 57.6069C114.719 57.9823 114.153 58.3619 113.779 58.3247C113.192 58.1758 112.873 57.7721 112.853 57.2436C112.867 55.8203 112.35 54.4011 111.46 52.9447C111.638 55.3696 110.149 58.5908 105.988 61.6978C106.196 61.7954 106.362 61.735 106.422 61.902C110.555 63.0601 118.811 66.294 117.861 60.762C117.841 60.2335 117.662 59.227 117.627 58.1841C117.711 55.4903 118.19 52.4635 121.361 54.3343C121.795 54.5385 122.439 55.36 123.462 56.2325C125.961 58.7103 129.726 61.783 132.1 56.6481C132.301 56.2123 132.17 55.3777 132.094 54.6963C131.603 54.339 131.188 54.1437 130.753 53.9395C129.675 52.9139 129.483 51.9124 131.323 50.1708C132.041 49.7358 132.395 49.2446 132.601 48.8227C124.541 51.9312 123.562 47.308 124.946 44.3142C125.638 42.8173 126.654 41.7381 127.802 41.4934C128.176 41.5306 128.632 41.3645 129.011 41.4157C129.107 41.2072 129.365 40.9244 129.517 40.8691C132.089 38.6874 132.857 36.4537 132.541 34.5987C131.996 34.0884 131.519 33.7261 130.877 33.4243C124.797 30.8322 122.598 33.051 123.396 38.6384C123.726 41.0079 123.469 42.709 122.965 43.7751C121.429 46.8243 117.622 46.6034 114.167 45.3718L114.186 45.3807ZM98.4936 16.3951C99.8544 16.262 100.718 16.6565 101.306 17.3248C103.579 19.6961 100.962 25.1088 108.002 17.7386C108.265 17.4698 108.66 17.1367 109.24 16.752L109.185 16.599C106.063 14.3477 105.478 10.2902 102 11.9193C101.176 12.5817 100.61 12.9613 99.8419 13.7767C99.3363 14.3233 98.9422 15.1759 98.4987 16.409L98.4936 16.3951ZM128.547 43.5386L128.339 43.441C127.834 43.9875 127.419 44.3118 127.213 44.7337C123.913 48.7876 129.562 47.7864 132.064 46.8751C131.684 46.3044 130.986 45.8495 130.435 45.3253C129.681 44.7173 128.922 44.0954 128.542 43.5247L128.547 43.5386ZM108.248 81.5341C107.294 83.2998 107.878 86.8377 107.595 87.9965C107.559 88.3719 106.993 88.7515 106.619 88.7142C106.033 88.5654 105.713 88.1617 105.693 87.6332L105.79 87.4248C105.611 84.9999 105.462 81.6662 107.246 79.7716C106.866 79.2009 106.694 78.7278 106.466 78.1017C106.203 78.3706 106.112 78.5929 105.864 78.8567C104.384 80.6406 102.938 82.9479 102.778 84.9601C102.834 85.1132 102.986 85.0578 103.152 84.9973C103.207 85.1504 103.42 85.262 103.476 85.415C103.8 85.8327 103.724 86.5695 103.254 86.7407C99.4378 89.3755 100.196 81.2674 105.887 75.996C105.1 72.3744 107.182 69.8355 111.87 68.6483C111.262 67.4514 110.801 66.1853 110.931 65.082C108.761 64.4541 106.53 63.6592 104.684 63.449C104.476 63.3514 104.249 63.2448 104.194 63.0918C98.7453 67.5658 101.536 67.4476 101.588 76.3167C101.544 80.0673 100.263 84.8045 97.939 88.1406C100.716 89.4458 102.793 95.623 107.013 89.2799C111.813 82.5522 117.261 90.7169 118.3 86.777C119.879 81.3956 121.263 78.4018 122.536 77.0398C121.686 76.6402 121.14 76.13 120.775 76.0738C118.757 75.3905 113.42 88.9006 108.257 81.5151L108.248 81.5341ZM113.181 70.3139C107.058 71.4723 106.088 74.1419 109.623 79.9776C114.048 87.2696 116.236 70.4464 123.047 75.0888L124.014 75.8083C128.015 76.1319 126.443 70.8264 127.742 70.0068C128.004 69.7379 128.364 69.7802 128.95 69.9291C129.441 70.2863 130.125 70.7462 131.106 71.4607C134.455 74.3381 138.394 73.9751 140.007 72.127C139.461 71.6167 138.868 70.9344 138.115 70.3264C136.546 68.9436 134.978 67.5607 134.461 66.1415C130.35 66.0314 125.969 63.7188 125.019 66.9168C124.681 67.9225 124.182 69.0026 123.732 69.7022C120.958 73.738 116.259 72.9595 113.33 70.2914L113.178 70.3468L113.181 70.3139ZM140.913 74.0979C137.538 77.4703 132.523 74.8369 129.068 72.1869C129.033 72.5623 129.2 73.0215 128.998 73.4573C128.423 75.2742 127.767 76.3957 127.109 76.9976C129.098 78.5898 131.385 80.956 134.135 79.7809C139.541 77.6391 141.173 75.7998 140.918 74.1118L140.913 74.0979ZM112.667 65.5056C112.805 66.8736 113.848 68.2746 115.305 69.3514C117.025 70.6789 119.367 71.2603 121.207 69.5187C122.03 68.8563 122.742 67.8879 123.213 66.2983C123.358 65.7095 123.49 65.1257 123.904 64.8015C126.022 61.8872 130.878 64.0425 134.671 64.2684C134.768 64.06 134.934 63.9996 135.025 63.7773C138.795 59.5522 136.625 57.5059 134.105 55.918C134.125 56.4465 133.979 57.0353 133.847 57.6191C130.283 65.331 123.901 59.4605 121.415 56.9777C120.869 56.4674 120.601 56.2028 120.393 56.1051C119.184 56.1829 118.983 56.6187 119.175 57.6201C119.292 57.9401 119.403 58.2462 119.368 58.6216C119.987 61.7842 119.619 63.6987 118.603 64.778C117.477 66.0707 115.175 66.0266 112.686 65.5145L112.667 65.5056ZM93.5604 72.2906C96.564 78.1304 96.6218 83.1048 92.5201 88.8691C92.1666 89.3603 91.6357 89.3645 91.1593 89.0022C90.8349 88.5846 90.8147 88.0561 91.0212 87.6343C91.4356 87.31 91.6232 86.8792 91.8297 86.4574C94.639 82.0462 94.3581 77.8779 91.9626 73.2349C91.7903 72.7618 91.4102 72.1911 91.0163 71.6254L90.9606 71.4724C89.316 70.8264 87.707 69.805 86.4072 68.6867C86.1386 68.4221 86.0829 68.269 85.8612 68.1764L85.6598 68.6122C84.9323 70.4845 84.0339 72.4033 82.9327 74.2383C83.6308 74.6932 84.633 75.0374 86.2763 75.1639C97.721 75.9757 85.2856 89.9437 88.8507 90.9618C95.2148 92.9147 100.315 82.1537 99.6216 74.401C99.4228 72.8661 99.3267 71.6562 99.4573 70.5528C98.9517 71.0993 98.3853 71.479 97.653 71.919C96.6165 72.4698 95.2608 72.6168 93.5618 72.3373L93.5604 72.2906ZM87.6911 61.9788C90.9473 61.6754 95.5323 65.5369 97.8609 68.0612C96.6195 65.1253 91.1692 60.3497 88.2959 57.8347L88.206 58.5766C88.2325 59.6385 87.9549 60.8111 87.6723 61.9699L87.6911 61.9788ZM92.8504 92.6569C92.3803 92.8281 91.7582 93.0547 91.2324 93.0728C78.115 94.4618 95.8798 77.6705 86.2253 76.9158C84.283 76.9141 82.902 76.5187 81.9404 75.8131C80.1271 78.6166 78.1503 80.9281 75.9367 82.6325C75.7908 84.6397 71.7729 87.7103 69.3667 89.8315C72.7987 93.9238 77.5118 94.6972 83.2892 96.5013C83.9316 96.8032 84.8781 96.9943 86.0462 97.278L86.6514 101.864L86.4994 101.919C85.5593 102.262 84.6128 102.071 84.011 101.407C76.7069 99.7967 69.4789 97.4492 64.9284 91.2744C53.8809 96.3692 21.7558 100.946 8.27853 102.292C34.1519 117.957 22.9633 114.925 58.4271 109.842C66.8109 108.569 79.2455 105.822 88.7154 102.2C88.1288 102.051 87.3952 101.971 86.6565 101.878L86.0513 97.2919L86.2033 97.2365C88.802 96.1168 91.3044 95.2055 92.8554 92.6709L92.8504 92.6569ZM99.6652 66.695C101.454 57.5026 109.675 61.6315 109.467 52.8038C109.483 47.9913 101.281 57.0296 100.203 56.0039C97.1158 52.8578 94.0143 51.1349 88.8485 54.4502L88.6964 54.5056C88.7521 54.6587 88.7166 55.034 88.6065 55.2475C89.3513 57.2927 97.7042 62.2561 99.6703 66.7089L99.6652 66.695ZM97.0233 70.147C96.9067 69.827 96.6432 69.5763 96.4216 69.4836C94.5643 67.3077 91.8214 65.1076 89.5345 64.1597C88.5323 63.8156 87.7798 63.7272 87.3097 63.8984C87.012 64.5426 86.9358 65.2795 86.638 65.9237C86.9826 66.8698 87.9087 67.9508 89.3048 68.8606C90.9138 69.882 93.3058 70.6026 96.1882 70.262C96.562 70.2992 96.8661 70.1885 97.0182 70.1331L97.0233 70.147ZM98.3878 100.08C99.0656 100.006 99.8537 99.7192 100.537 99.6596C111.631 97.5735 126.982 93.5903 132.433 84.3088C131.908 84.327 131.543 84.2708 131.017 84.2889C128.792 84.0275 126.767 82.8108 124.819 80.8572C122.231 83.9427 122.521 86.6736 122.21 88.7412C121.898 90.8088 121.094 91.9996 116.41 91.7357C114.938 91.5627 113.3 91.4502 111.075 91.1888C106.806 97.9123 102.598 98.0106 97.3557 93.3327C95.5981 96.2893 95.0164 97.5727 93.5656 98.4477C95.8461 98.8621 97.3792 99.2021 97.7948 99.3974C98.0634 99.662 98.2851 99.7546 98.3966 100.061L98.3878 100.08ZM137.97 83.0016C132.287 98.9547 107.417 103.032 93.7539 105.329C93.6019 105.384 93.436 105.444 93.2281 105.347C82.3683 110.011 59.6633 114.182 59.1375 114.2C20.6949 119.832 34.5696 122.974 1.43019 103.352C0.206325 102.915 -0.310475 101.496 0.188755 100.416C0.285097 100.208 0.390173 99.9804 0.638593 99.7166C0.000601153 92.1169 8.96892 71.5954 9.93842 68.9258C17.4092 47.6889 13.4688 47.5323 32.4796 39.5375C46.934 33.5644 62.3839 17.2537 76.4319 8.2297C76.6334 7.79389 77.1441 7.26122 77.6141 7.09004C78.8584 6.63691 112.919 -8.61944 105.541 7.0681L105.279 7.33695C109.412 8.49505 111.51 13.7824 113.638 14.2521C125.736 8.60154 122.652 23.9545 125.56 24.1563C134.952 25.1798 141.317 35.8627 134.008 42.9682C136.943 46.1698 139.125 48.7634 135.648 52.3304C140.967 56.2714 144.988 58.5417 139.4 65.5564C144.4 71.0316 150.457 76.4844 139.002 82.4368C138.74 82.7057 138.283 82.8718 137.965 82.9876L137.97 83.0016ZM75.283 21.1131C78.1389 19.7106 80.5717 18.6513 84.5896 15.5807C85.1559 15.2011 85.2473 14.9787 85.944 14.9141C87.1883 14.461 88.4729 15.0647 88.8732 16.1639C89.2735 17.263 88.6779 18.5515 87.4337 19.0046L87.2816 19.06C80.1745 24.3114 78.9507 23.8746 72.1757 27.5868C71.3381 29.6725 70.4598 32.1198 69.0049 35.8643L68.7071 36.5086C72.3574 35.3526 70.8915 35.7131 77.8943 34.0453C79.1031 33.9676 80.1255 34.8401 80.4294 36.1477C80.5117 37.3627 79.4954 38.4419 78.2918 38.5336C70.8189 40.3725 74.2208 39.4803 67.3902 41.6211C66.8364 44.486 66.4129 47.6659 66.1884 50.9624C68.6414 50.4315 67.6543 50.6019 71.9939 49.9197C73.2026 49.842 74.391 50.6542 74.4733 51.8691C74.5556 53.084 73.7522 54.2749 72.5434 54.3526C67.8909 55.1645 69.8131 54.6378 66.1158 55.6218C65.9964 58.6909 66.0849 61.8577 66.1784 65.0383C69.5107 63.9981 68.1144 64.5066 72.7518 63.1803C73.844 62.7825 75.1286 63.3863 75.5289 64.4854C75.9849 65.7376 75.3894 67.0261 74.2972 67.4238C68.9681 68.8287 71.0561 68.2417 66.5759 69.5266C66.8212 74.0702 67.31 78.3361 67.8393 82.2406C67.971 83.0751 68.0939 83.9286 68.2256 84.7631C69.1455 83.8923 69.2976 83.8369 72.3196 80.9556L71.5313 82.661L73.9871 78.741C90.5679 53.8398 78.804 67.2008 87.0303 41.2449C89.9667 31.8078 90.2089 29.5922 92.3015 20.289C94.7275 9.9662 101.659 7.63087 101.828 4.18135C98.4846 3.25583 86.4768 8.16454 81.1324 10.4733L79.4306 13.5829C78.7387 15.0798 78.0874 16.2152 77.431 17.3367C76.6833 18.6806 75.9357 20.0244 75.2793 21.1459L75.283 21.1131ZM42.4804 50.4878C41.3077 58.9202 36.4679 73.321 39.2141 80.862C39.6144 81.9612 39.0188 83.2496 37.9266 83.6474C36.8344 84.0451 35.5498 83.4414 35.1495 82.3423C31.6786 73.2844 36.6414 59.7371 38.0916 50.132C38.1614 48.8617 39.2334 47.9355 40.3458 48.0662C41.6103 48.1415 42.5363 49.2225 42.4666 50.4929L42.4804 50.4878Z" fill="#67242B"></path></svg>